<svg xmlns="http://www.w3.org/2000/svg" width="104mm" height="69mm" viewBox="0 0 104 69">
<path d="M 0 0 L 104 0 L 104 69 L 0 69 Z" fill="#ffffff"/>
<path d="M 19.535 33.0729 C 19.9615 33.0729 20.3088 33.2158 20.5531 33.4677 C 20.7974 33.7196 20.9323 34.0721 20.9323 34.4929 C 20.9323 34.904 20.7985 35.2567 20.5581 35.5098 C 20.3176 35.7628 19.9766 35.9082 19.564 35.9082 C 19.1393 35.9082 18.792 35.7663 18.5478 35.5134 C 18.3036 35.2606 18.1686 34.9049 18.1686 34.4753 C 18.1686 34.0705 18.3034 33.7217 18.5447 33.4702 C 18.7859 33.2187 19.1256 33.0729 19.535 33.0729 Z  M 20.2109 34.9646 C 20.2109 34.7842 20.1958 34.6088 20.1657 34.4384 C 20.1055 34.0976 19.9972 33.7981 19.857 33.5767 C 19.7169 33.3554 19.5534 33.2239 19.3837 33.2239 C 19.0813 33.2239 18.8934 33.5002 18.8934 34.0024 C 18.8934 34.3673 18.9564 34.718 19.0624 35.0138 C 19.1683 35.3095 19.3103 35.5386 19.4715 35.664 C 19.5521 35.7268 19.6348 35.7581 19.7195 35.7581 C 20.0311 35.7581 20.2109 35.4895 20.2109 34.9646 Z  M 21.9675 35.7849 C 21.9675 35.8236 21.9411 35.8489 21.8839 35.85 L 21.2021 35.85 C 21.1449 35.8489 21.1177 35.8236 21.1177 35.7849 C 21.1177 35.7523 21.1387 35.7276 21.1806 35.711 L 21.2554 35.6875 C 21.3193 35.6644 21.3686 35.633 21.4032 35.5933 C 21.4378 35.5535 21.4551 35.4946 21.4551 35.4165 L 21.4551 33.6907 C 21.4551 33.6587 21.4521 33.6337 21.4463 33.6158 C 21.4404 33.598 21.425 33.5726 21.4 33.5399 L 21.2307 33.2848 C 21.1993 33.2382 21.1827 33.2128 21.1827 33.1874 C 21.1827 33.1503 21.2105 33.13 21.2558 33.13 L 21.8852 33.13 C 21.94 33.13 21.9711 33.1476 22.0104 33.205 L 23.3556 35.2826 L 23.2849 35.4669 L 23.2849 33.5635 C 23.2849 33.4093 23.2189 33.339 23.0845 33.2925 L 22.9953 33.269 C 22.9534 33.2508 22.9325 33.2261 22.9325 33.1951 C 22.9325 33.1548 22.9599 33.13 23.016 33.13 L 23.6978 33.13 C 23.755 33.13 23.7822 33.1548 23.7822 33.1951 C 23.7822 33.2272 23.7613 33.2518 23.7193 33.269 L 23.6446 33.2925 C 23.517 33.3358 23.4449 33.406 23.4449 33.5635 L 23.4449 35.3217 C 23.4449 35.3864 23.4578 35.4334 23.4854 35.474 L 23.6159 35.6705 C 23.6609 35.7353 23.6664 35.7595 23.6664 35.7867 C 23.6664 35.8244 23.6384 35.85 23.5879 35.85 L 22.9332 35.85 C 22.8855 35.85 22.8617 35.8298 22.8617 35.7894 C 22.8617 35.7587 22.8549 35.7327 22.8062 35.6654 L 21.4491 33.5874 L 21.615 33.5075 L 21.615 35.418 C 21.615 35.5689 21.6838 35.6387 21.8147 35.6875 L 21.9046 35.711 C 21.9466 35.7282 21.9675 35.7528 21.9675 35.7849 Z  M 26.4851 34.0818 C 26.4851 34.3326 26.366 34.5422 26.1557 34.6792 C 26.0506 34.7477 25.9247 34.7951 25.778 34.8214 C 25.6416 34.8454 25.5374 34.8766 25.3887 34.8766 C 25.1077 34.8766 24.9324 34.8185 24.7937 34.7238 L 24.8072 34.5963 C 24.9229 34.6844 25.0587 34.7235 25.2373 34.7235 C 25.4002 34.7235 25.5289 34.6734 25.6235 34.5733 C 25.7181 34.4732 25.7654 34.3178 25.7654 34.1072 C 25.7654 33.944 25.7355 33.799 25.6756 33.6721 C 25.6156 33.5452 25.5337 33.4455 25.4297 33.3729 C 25.3256 33.3003 25.2077 33.264 25.0758 33.264 L 24.9465 33.264 L 24.9465 35.5835 C 24.9465 35.642 24.9716 35.6711 25.0289 35.6888 L 25.1441 35.7129 C 25.1917 35.7303 25.2053 35.7492 25.2053 35.7849 C 25.2053 35.8283 25.177 35.85 25.1204 35.85 L 24.0593 35.85 C 24.0014 35.85 23.9744 35.8236 23.9744 35.7849 C 23.9744 35.7497 23.9948 35.7257 24.0355 35.7129 L 24.1485 35.6888 C 24.2102 35.6719 24.239 35.642 24.239 35.5835 L 24.239 33.381 C 24.239 33.3338 24.2092 33.3069 24.1485 33.2912 L 24.0355 33.2671 C 23.9948 33.2543 23.9744 33.2303 23.9744 33.1951 C 23.9744 33.1548 24.0014 33.13 24.0593 33.13 L 25.0897 33.13 C 25.3844 33.13 25.6357 33.1698 25.8437 33.2493 C 26.2597 33.4083 26.4851 33.7016 26.4851 34.0818 Z  M 25.2772 34.8087 L 25.9513 34.7327 L 26.4605 35.585 C 26.5067 35.6609 26.5481 35.6915 26.6184 35.7136 C 26.6674 35.7312 26.6843 35.7492 26.6843 35.7849 C 26.6843 35.8236 26.6567 35.85 26.5985 35.85 L 25.6609 35.85 C 25.606 35.85 25.5786 35.8283 25.5786 35.7849 C 25.5786 35.76 25.5915 35.7469 25.6216 35.7309 L 25.6748 35.714 C 25.7331 35.6871 25.7491 35.6588 25.7071 35.584 Z  M 27.2813 34.7597 L 28.3423 34.7597 L 28.3486 34.9095 L 27.2712 34.9095 Z  M 27.4969 35.7849 C 27.4969 35.8236 27.4711 35.85 27.4139 35.85 L 26.7701 35.85 C 26.7143 35.85 26.687 35.8238 26.687 35.7852 C 26.687 35.7544 26.7039 35.7366 26.7399 35.718 L 26.7952 35.696 C 26.839 35.6764 26.8783 35.6451 26.9132 35.6019 C 26.9481 35.5588 26.9798 35.4899 27.0082 35.3952 L 27.5861 33.4995 C 27.6243 33.3726 27.6029 33.3164 27.5185 33.2761 C 27.4636 33.2479 27.4416 33.228 27.4416 33.1946 C 27.4416 33.1527 27.4693 33.13 27.5274 33.13 L 28.5198 33.13 C 28.578 33.13 28.605 33.1528 28.605 33.1944 C 28.605 33.2299 28.5828 33.2528 28.5314 33.2731 C 28.4722 33.2926 28.4612 33.3218 28.4892 33.4103 L 29.1687 35.5318 C 29.2028 35.6386 29.2396 35.6854 29.3064 35.7068 C 29.3601 35.7296 29.3749 35.7482 29.3749 35.7849 C 29.3749 35.8236 29.3473 35.85 29.2895 35.85 L 28.3376 35.85 C 28.2793 35.85 28.2525 35.8236 28.2525 35.7849 C 28.2525 35.7506 28.2721 35.7341 28.3141 35.718 L 28.3994 35.6962 C 28.4335 35.6849 28.4513 35.6686 28.453 35.6474 C 28.4546 35.6261 28.4483 35.5926 28.4341 35.5468 L 27.7578 33.3986 L 27.8215 33.3133 L 27.1927 35.3782 C 27.1393 35.5534 27.2072 35.6362 27.3709 35.6992 L 27.4389 35.7196 C 27.4766 35.7351 27.4969 35.7513 27.4969 35.7849 Z  M 30.518 35.599 C 30.518 35.6458 30.5499 35.6729 30.6085 35.6888 L 30.7215 35.7129 C 30.7623 35.7257 30.7827 35.7496 30.7827 35.7846 C 30.7827 35.8242 30.7561 35.85 30.6978 35.85 L 29.6308 35.85 C 29.5728 35.85 29.5459 35.8242 29.5459 35.7846 C 29.5459 35.7496 29.5663 35.7257 29.607 35.7129 L 29.72 35.6888 C 29.7807 35.6729 29.8105 35.6458 29.8105 35.599 L 29.8105 33.381 C 29.8105 33.3342 29.7807 33.3069 29.72 33.2912 L 29.607 33.2671 C 29.5663 33.2544 29.5459 33.2304 29.5459 33.1951 C 29.5459 33.1548 29.5728 33.13 29.6308 33.13 L 30.6978 33.13 C 30.7561 33.13 30.7827 33.1548 30.7827 33.1951 C 30.7827 33.2304 30.7623 33.2544 30.7215 33.2671 L 30.6085 33.2912 C 30.5499 33.3069 30.518 33.3342 30.518 33.381 Z  M 32.8435 35.9003 C 32.7376 35.9003 32.6484 35.8866 32.5759 35.8591 C 32.5034 35.8317 32.445 35.8042 32.4008 35.7768 C 32.3565 35.7495 32.3236 35.7358 32.302 35.7358 C 32.262 35.7358 32.2171 35.7768 32.1705 35.8227 C 32.124 35.8687 32.0784 35.9097 32.0371 35.9097 C 31.9941 35.9097 31.9592 35.8823 31.9483 35.8235 L 31.8182 35.0628 C 31.8118 35.0189 31.8283 34.9889 31.8679 34.9749 C 31.9109 34.9586 31.9452 34.9769 31.9703 35.0257 C 32.0693 35.2172 32.1647 35.3657 32.2565 35.4711 C 32.3484 35.5764 32.4385 35.6498 32.527 35.6911 C 32.6154 35.7325 32.7034 35.7531 32.791 35.7531 C 32.9174 35.7531 33.018 35.7206 33.0927 35.6556 C 33.1674 35.5905 33.2048 35.4968 33.2049 35.3744 C 33.2051 35.2953 33.188 35.2242 33.1537 35.161 C 33.1195 35.0978 33.0571 35.0385 32.9666 34.9832 C 32.8762 34.9279 32.7468 34.8731 32.5784 34.8189 C 32.1707 34.6846 31.9317 34.5166 31.8217 34.2904 C 31.7666 34.1772 31.7391 34.047 31.7391 33.8996 C 31.7391 33.7392 31.779 33.5978 31.8587 33.4752 C 31.9384 33.3526 32.0501 33.2568 32.1937 33.188 C 32.3373 33.1191 32.5044 33.0847 32.695 33.0847 C 32.8018 33.0847 32.891 33.0959 32.9626 33.1183 C 33.0342 33.1406 33.0931 33.1632 33.1392 33.1859 C 33.1854 33.2086 33.2227 33.22 33.2512 33.22 C 33.2774 33.22 33.3052 33.208 33.3348 33.184 C 33.3644 33.16 33.3945 33.1359 33.4252 33.1115 C 33.4558 33.0872 33.4859 33.075 33.5154 33.075 C 33.5585 33.075 33.5891 33.0984 33.6097 33.173 L 33.8036 33.9187 C 33.8175 33.9706 33.7999 34.0102 33.7582 34.0254 C 33.7154 34.0393 33.6805 34.0197 33.657 33.977 C 33.5508 33.7831 33.4473 33.6321 33.3466 33.524 C 33.2459 33.416 33.147 33.3402 33.0498 33.2968 C 32.9527 33.2534 32.8559 33.2316 32.7595 33.2316 C 32.6393 33.2316 32.5428 33.2685 32.4701 33.3422 C 32.3974 33.4159 32.361 33.5141 32.361 33.6369 C 32.361 33.7159 32.3773 33.7879 32.4099 33.853 C 32.4426 33.918 32.5024 33.9796 32.5893 34.0377 C 32.6762 34.0958 32.8005 34.1538 32.962 34.2117 C 33.3793 34.359 33.6159 34.5252 33.7222 34.7369 C 33.7754 34.8428 33.8019 34.9638 33.8017 35.0999 C 33.8016 35.248 33.7635 35.3827 33.6875 35.5037 C 33.6115 35.6248 33.5022 35.7212 33.3595 35.7928 C 33.2169 35.8645 33.0449 35.9003 32.8435 35.9003 Z  M 34.4656 33.13 L 36.0072 33.13 C 36.0496 33.13 36.0863 33.1251 36.1172 33.1152 C 36.1791 33.0955 36.2251 33.0719 36.2631 33.0719 C 36.3226 33.0719 36.3494 33.0975 36.3691 33.1808 L 36.4937 33.8932 C 36.5056 33.9499 36.4864 33.9843 36.442 33.9933 C 36.4008 34.0023 36.3674 33.9884 36.3442 33.9414 C 36.2607 33.7578 36.1869 33.6187 36.1226 33.5241 C 36.0583 33.4295 35.9976 33.3652 35.9404 33.3313 C 35.8832 33.2973 35.8234 33.2804 35.7611 33.2804 L 35.5921 33.2804 L 35.5921 35.599 C 35.5921 35.6462 35.624 35.6729 35.6826 35.6888 L 35.7957 35.7129 C 35.8364 35.7257 35.8568 35.7497 35.8568 35.7849 C 35.8568 35.8283 35.8285 35.85 35.7719 35.85 L 34.7049 35.85 C 34.6471 35.85 34.62 35.8236 34.62 35.7849 C 34.62 35.7497 34.6404 35.7257 34.6811 35.7129 L 34.7942 35.6888 C 34.8548 35.6729 34.8847 35.6462 34.8847 35.599 L 34.8847 33.2804 L 34.7157 33.2804 C 34.6557 33.2804 34.5974 33.2984 34.5405 33.3345 C 34.4837 33.3706 34.4228 33.4361 34.3578 33.531 C 34.2928 33.6259 34.2177 33.7627 34.1326 33.9414 C 34.1099 33.9884 34.076 34.0023 34.0348 33.9933 C 33.9915 33.9843 33.9735 33.9499 33.9831 33.8932 L 34.1077 33.1808 C 34.1274 33.0975 34.1544 33.0719 34.2137 33.0719 C 34.2707 33.0719 34.3397 33.13 34.4656 33.13 Z  M 38.8144 34.6632 L 38.7439 33.5577 C 38.7343 33.4096 38.6748 33.3276 38.5396 33.2907 L 38.4552 33.2707 C 38.3994 33.2557 38.3801 33.2346 38.3801 33.1956 C 38.3801 33.1567 38.409 33.13 38.4594 33.13 L 39.1795 33.13 C 39.2313 33.13 39.2596 33.1567 39.2596 33.1956 C 39.2596 33.2349 39.2356 33.2545 39.1824 33.2705 L 39.1053 33.291 C 38.9603 33.3322 38.8947 33.4259 38.9043 33.564 L 38.977 34.6515 C 38.9876 34.7885 38.9955 34.9183 38.9965 35.06 C 38.9975 35.2194 38.9637 35.3632 38.8951 35.4916 C 38.8265 35.6199 38.7188 35.7216 38.5722 35.7967 C 38.4255 35.8718 38.2348 35.9093 38.0002 35.9093 C 37.7473 35.9093 37.5377 35.8746 37.3713 35.8051 C 37.0384 35.6663 36.8757 35.4099 36.8772 35.0808 C 36.8777 34.9867 36.8909 34.8027 36.903 34.6109 L 36.9787 33.3848 C 36.9827 33.3305 36.9532 33.3049 36.8781 33.2905 L 36.7684 33.2707 C 36.7158 33.2591 36.6896 33.2341 36.6896 33.1959 C 36.6896 33.1567 36.7186 33.13 36.7713 33.13 L 37.8907 33.13 C 37.9435 33.13 37.9723 33.1567 37.9723 33.1959 C 37.9723 33.2348 37.9498 33.2571 37.8935 33.2698 L 37.7779 33.2905 C 37.715 33.3028 37.6872 33.3285 37.6832 33.3847 L 37.6085 34.6066 C 37.5972 34.7905 37.5961 34.9472 37.5955 35.0564 C 37.5944 35.2952 37.6444 35.4685 37.7454 35.5765 C 37.8464 35.6845 37.9831 35.7385 38.1553 35.7385 C 38.2916 35.7385 38.4104 35.7116 38.5118 35.6579 C 38.7145 35.5503 38.8322 35.3461 38.8304 35.0682 C 38.8299 34.9762 38.8281 34.8993 38.8248 34.8374 C 38.8215 34.7756 38.818 34.7175 38.8144 34.6632 Z  M 39.4485 35.7849 C 39.4485 35.7493 39.4684 35.7253 39.5081 35.7129 L 39.6268 35.6881 C 39.6863 35.6721 39.7132 35.6457 39.7132 35.5971 L 39.7132 33.3844 C 39.7132 33.3348 39.6855 33.3079 39.6273 33.2919 L 39.5062 33.2664 C 39.4678 33.2542 39.4485 33.2302 39.4485 33.1944 C 39.4485 33.1531 39.4758 33.13 39.5327 33.13 L 40.5988 33.13 C 41.0729 33.13 41.4693 33.2724 41.7524 33.5323 C 42.0356 33.7923 42.1951 34.1613 42.1951 34.6167 C 42.1951 34.8645 42.1373 35.0808 42.0217 35.2657 C 41.9061 35.4506 41.7423 35.5942 41.5303 35.6965 C 41.3183 35.7988 41.0672 35.85 40.7769 35.85 L 39.5327 35.85 C 39.4749 35.85 39.4485 35.8245 39.4485 35.7849 Z  M 40.7322 35.7061 C 40.8736 35.7061 40.999 35.6671 41.1084 35.5892 C 41.3271 35.4333 41.4599 35.1065 41.4599 34.5794 C 41.4599 33.7438 41.1114 33.2739 40.5541 33.2739 L 40.4207 33.2739 L 40.4207 35.5675 C 40.4207 35.6615 40.4742 35.7061 40.5735 35.7061 Z  M 43.409 35.599 C 43.409 35.6458 43.4409 35.6729 43.4995 35.6888 L 43.6125 35.7129 C 43.6533 35.7257 43.6737 35.7496 43.6737 35.7846 C 43.6737 35.8242 43.6471 35.85 43.5888 35.85 L 42.5218 35.85 C 42.4638 35.85 42.4369 35.8242 42.4369 35.7846 C 42.4369 35.7496 42.4573 35.7257 42.498 35.7129 L 42.611 35.6888 C 42.6717 35.6729 42.7015 35.6458 42.7015 35.599 L 42.7015 33.381 C 42.7015 33.3342 42.6717 33.3069 42.611 33.2912 L 42.498 33.2671 C 42.4573 33.2544 42.4369 33.2304 42.4369 33.1951 C 42.4369 33.1548 42.4638 33.13 42.5218 33.13 L 43.5888 33.13 C 43.6471 33.13 43.6737 33.1548 43.6737 33.1951 C 43.6737 33.2304 43.6533 33.2544 43.6125 33.2671 L 43.4995 33.2912 C 43.4409 33.3069 43.409 33.3342 43.409 33.381 Z  M 45.2833 33.0729 C 45.7097 33.0729 46.0571 33.2158 46.3014 33.4677 C 46.5456 33.7196 46.6806 34.0721 46.6806 34.4929 C 46.6806 34.904 46.5468 35.2567 46.3064 35.5098 C 46.0659 35.7628 45.7249 35.9082 45.3123 35.9082 C 44.8876 35.9082 44.5402 35.7663 44.2961 35.5134 C 44.0519 35.2606 43.9169 34.9049 43.9169 34.4753 C 43.9169 34.0705 44.0517 33.7217 44.2929 33.4702 C 44.5342 33.2187 44.8739 33.0729 45.2833 33.0729 Z  M 45.9591 34.9646 C 45.9591 34.7842 45.9441 34.6088 45.914 34.4384 C 45.8538 34.0976 45.7454 33.7981 45.6053 33.5767 C 45.4652 33.3554 45.3017 33.2239 45.132 33.2239 C 44.8296 33.2239 44.6417 33.5002 44.6417 34.0024 C 44.6417 34.3673 44.7047 34.718 44.8107 35.0138 C 44.9166 35.3095 45.0586 35.5386 45.2198 35.664 C 45.3004 35.7268 45.3831 35.7581 45.4677 35.7581 C 45.7793 35.7581 45.9591 35.4895 45.9591 34.9646 Z" fill="#18181b"/>
<path d="M 48.5 33.93 C 48.8093 33.93 49.06 34.1807 49.06 34.49 C 49.06 34.7993 48.8093 35.05 48.5 35.05 C 48.1907 35.05 47.94 34.7993 47.94 34.49 C 47.94 34.1807 48.1907 33.93 48.5 33.93 Z" fill="#0c8c81"/>
<path d="M 53.06 23.1 L 53.28 23.1 L 53.28 45.9 L 53.06 45.9 Z" fill="#cfcdc8"/>
<path d="M 57.3539 31.83 L 57.9345 30.21 L 58.1868 30.21 L 58.7673 31.83 L 58.5385 31.83 L 58.4069 31.4506 L 57.7154 31.4506 L 57.5822 31.83 Z  M 57.7812 31.2548 L 58.3379 31.2548 L 58.0296 30.3655 L 58.0916 30.3655 Z  M 58.9707 31.83 L 58.9707 30.21 L 59.1854 30.21 L 59.1854 31.83 Z  M 59.536 31.3369 L 59.536 31.1521 L 60.3515 31.1521 L 60.3515 31.3369 Z  M 61.0223 31.8561 C 60.7918 31.8561 60.6298 31.7207 60.6298 31.5239 C 60.6298 31.3369 60.751 31.1967 61.0141 31.1532 L 61.4474 31.0814 L 61.4474 31.2521 L 61.0582 31.3179 C 60.9089 31.344 60.8445 31.4163 60.8445 31.5163 C 60.8445 31.6127 60.9286 31.6854 61.0468 31.6854 C 61.2664 31.6854 61.4126 31.5288 61.4126 31.3331 L 61.4126 31.0341 C 61.4126 30.9707 61.3892 30.9189 61.3422 30.8787 C 61.2953 30.8384 61.2338 30.8183 61.1577 30.8183 C 61.0221 30.8183 60.9145 30.8944 60.8652 31.0053 L 60.6891 30.914 C 60.7112 30.8604 60.7462 30.8123 60.7942 30.7699 C 60.8903 30.6851 61.0216 30.6329 61.1615 30.6329 C 61.3398 30.6329 61.482 30.7051 61.5589 30.8254 C 61.5973 30.8855 61.6165 30.9551 61.6165 31.0341 L 61.6165 31.83 L 61.4181 31.83 L 61.4181 31.6077 L 61.4545 31.6223 C 61.3827 31.7593 61.2234 31.8561 61.0223 31.8561 Z  M 62.4732 31.8561 C 62.3576 31.8561 62.2553 31.8292 62.1664 31.7754 C 61.9884 31.6677 61.8801 31.475 61.8801 31.2423 C 61.8801 31.0097 61.9878 30.8188 62.1661 30.7126 C 62.2552 30.6595 62.3576 30.6329 62.4732 30.6329 C 62.6262 30.6329 62.7628 30.6911 62.8636 30.7846 C 62.9139 30.8314 62.9513 30.8857 62.9755 30.9477 L 62.794 31.0352 C 62.7403 30.912 62.6204 30.8286 62.4732 30.8286 C 62.258 30.8286 62.0949 31.0042 62.0949 31.2445 C 62.0949 31.4025 62.1652 31.5335 62.2797 31.606 C 62.337 31.6423 62.4015 31.6604 62.4732 31.6604 C 62.6211 31.6604 62.7382 31.5781 62.794 31.4506 L 62.9755 31.5419 C 62.9516 31.6017 62.9145 31.6553 62.8641 31.7028 C 62.7633 31.7977 62.6269 31.8561 62.4732 31.8561 Z  M 63.7844 31.8561 C 63.6688 31.8561 63.5665 31.8292 63.4776 31.7754 C 63.2996 31.6677 63.1914 31.475 63.1914 31.2423 C 63.1914 31.0097 63.299 30.8188 63.4773 30.7126 C 63.5665 30.6595 63.6688 30.6329 63.7844 30.6329 C 63.9374 30.6329 64.074 30.6911 64.1748 30.7846 C 64.2251 30.8314 64.2625 30.8857 64.2868 30.9477 L 64.1052 31.0352 C 64.0516 30.912 63.9316 30.8286 63.7844 30.8286 C 63.5692 30.8286 63.4061 31.0042 63.4061 31.2445 C 63.4061 31.4025 63.4764 31.5335 63.5909 31.606 C 63.6482 31.6423 63.7127 31.6604 63.7844 31.6604 C 63.9323 31.6604 64.0494 31.5781 64.1052 31.4506 L 64.2868 31.5419 C 64.2628 31.6017 64.2257 31.6553 64.1753 31.7028 C 64.0746 31.7977 63.9381 31.8561 63.7844 31.8561 Z  M 65.0913 31.8561 C 64.8652 31.8561 64.6802 31.7418 64.5787 31.5555 C 64.5279 31.4623 64.5026 31.3574 64.5026 31.2407 C 64.5026 31.0051 64.6101 30.8169 64.7823 30.7118 C 64.8683 30.6592 64.9652 30.6329 65.0728 30.6329 C 65.4193 30.6329 65.6224 30.9037 65.6224 31.195 C 65.6224 31.2284 65.6194 31.2686 65.6121 31.3049 L 64.651 31.3049 L 64.651 31.1309 L 65.4958 31.1309 L 65.3985 31.2081 C 65.4119 31.1327 65.4049 31.0653 65.3775 31.0059 C 65.3228 30.887 65.2106 30.8123 65.0728 30.8123 C 64.9358 30.8123 64.8166 30.8858 64.7543 31.0137 C 64.7231 31.0777 64.7108 31.1541 64.7173 31.2429 C 64.7035 31.4154 64.7767 31.5476 64.8959 31.6183 C 64.9555 31.6536 65.021 31.6713 65.0924 31.6713 C 65.2497 31.6713 65.3553 31.5904 65.4213 31.4788 L 65.5909 31.5653 C 65.5213 31.7262 65.3316 31.8561 65.0913 31.8561 Z  M 65.8856 31.83 L 65.8856 30.1839 L 66.0894 30.1839 L 66.0894 31.83 Z  M 66.9418 31.8561 C 66.7157 31.8561 66.5307 31.7418 66.4292 31.5555 C 66.3784 31.4623 66.3531 31.3574 66.3531 31.2407 C 66.3531 31.0051 66.4606 30.8169 66.6328 30.7118 C 66.7188 30.6592 66.8157 30.6329 66.9233 30.6329 C 67.2698 30.6329 67.4729 30.9037 67.4729 31.195 C 67.4729 31.2284 67.4699 31.2686 67.4626 31.3049 L 66.5015 31.3049 L 66.5015 31.1309 L 67.3463 31.1309 L 67.249 31.2081 C 67.2624 31.1327 67.2554 31.0653 67.228 31.0059 C 67.1733 30.887 67.0611 30.8123 66.9233 30.8123 C 66.7863 30.8123 66.6671 30.8858 66.6048 31.0137 C 66.5736 31.0777 66.5613 31.1541 66.5678 31.2429 C 66.554 31.4154 66.6272 31.5476 66.7464 31.6183 C 66.806 31.6536 66.8715 31.6713 66.9429 31.6713 C 67.1002 31.6713 67.2058 31.5904 67.2718 31.4788 L 67.4414 31.5653 C 67.3718 31.7262 67.1821 31.8561 66.9418 31.8561 Z  M 67.7361 31.83 L 67.7361 30.659 L 67.9345 30.659 L 67.9345 30.8738 L 67.9127 30.8422 C 67.9671 30.7096 68.084 30.6444 68.2449 30.6444 L 68.3177 30.6444 L 68.3177 30.8373 L 68.2155 30.8373 C 68.0495 30.8373 67.9399 30.9443 67.9399 31.132 L 67.9399 31.83 Z  M 68.8418 31.8561 C 68.6113 31.8561 68.4493 31.7207 68.4493 31.5239 C 68.4493 31.3369 68.5705 31.1967 68.8336 31.1532 L 69.2669 31.0814 L 69.2669 31.2521 L 68.8777 31.3179 C 68.7283 31.344 68.664 31.4163 68.664 31.5163 C 68.664 31.6127 68.7481 31.6854 68.8662 31.6854 C 69.0859 31.6854 69.2321 31.5288 69.2321 31.3331 L 69.2321 31.0341 C 69.2321 30.9707 69.2086 30.9189 69.1617 30.8787 C 69.1148 30.8384 69.0533 30.8183 68.9771 30.8183 C 68.8416 30.8183 68.734 30.8944 68.6847 31.0053 L 68.5085 30.914 C 68.5307 30.8604 68.5657 30.8123 68.6137 30.7699 C 68.7098 30.6851 68.8411 30.6329 68.981 30.6329 C 69.1593 30.6329 69.3015 30.7051 69.3783 30.8254 C 69.4168 30.8855 69.436 30.9551 69.436 31.0341 L 69.436 31.83 L 69.2375 31.83 L 69.2375 31.6077 L 69.274 31.6223 C 69.2022 31.7593 69.0429 31.8561 68.8418 31.8561 Z  M 70.2248 31.843 C 69.9964 31.843 69.8671 31.7077 69.8671 31.4685 L 69.8671 30.852 L 69.6556 30.852 L 69.6556 30.659 L 69.6991 30.659 C 69.8035 30.659 69.8671 30.5889 69.8671 30.4845 L 69.8671 30.3894 L 70.0709 30.3894 L 70.0709 30.659 L 70.3329 30.659 L 70.3329 30.852 L 70.0709 30.852 L 70.0709 31.4631 C 70.0709 31.5816 70.1237 31.6582 70.265 31.6582 C 70.2875 31.6582 70.3213 31.6546 70.346 31.6517 L 70.346 31.83 C 70.309 31.838 70.2567 31.843 70.2248 31.843 Z  M 71.1495 31.8561 C 70.9233 31.8561 70.7383 31.7418 70.6368 31.5555 C 70.5861 31.4623 70.5607 31.3574 70.5607 31.2407 C 70.5607 31.0051 70.6683 30.8169 70.8404 30.7118 C 70.9265 30.6592 71.0233 30.6329 71.131 30.6329 C 71.4775 30.6329 71.6806 30.9037 71.6806 31.195 C 71.6806 31.2284 71.6775 31.2686 71.6703 31.3049 L 70.7091 31.3049 L 70.7091 31.1309 L 71.5539 31.1309 L 71.4566 31.2081 C 71.47 31.1327 71.4631 31.0653 71.4357 31.0059 C 71.381 30.887 71.2687 30.8123 71.131 30.8123 C 70.994 30.8123 70.8748 30.8858 70.8124 31.0137 C 70.7813 31.0777 70.7689 31.1541 70.7755 31.2429 C 70.7617 31.4154 70.8348 31.5476 70.954 31.6183 C 71.0137 31.6536 71.0792 31.6713 71.1506 31.6713 C 71.3078 31.6713 71.4135 31.5904 71.4794 31.4788 L 71.6491 31.5653 C 71.5795 31.7262 71.3898 31.8561 71.1495 31.8561 Z  M 72.4781 31.8561 C 72.3676 31.8561 72.2682 31.8294 72.1802 31.7759 C 72.004 31.669 71.8959 31.4757 71.8959 31.2445 C 71.8959 31.0104 72.0049 30.82 72.1799 30.7131 C 72.2674 30.6597 72.3666 30.6329 72.4775 30.6329 C 72.6711 30.6329 72.8276 30.7201 72.9146 30.8607 L 72.8825 30.9113 L 72.8825 30.1839 L 73.0864 30.1839 L 73.0864 31.83 L 72.888 31.83 L 72.888 31.5799 L 72.9152 31.6147 C 72.834 31.7698 72.6687 31.8561 72.4781 31.8561 Z  M 72.4944 31.6604 C 72.6415 31.6604 72.7633 31.5831 72.8314 31.4573 C 72.8655 31.3945 72.8825 31.3235 72.8825 31.2445 C 72.8825 31.0865 72.8096 30.9555 72.6925 30.883 C 72.634 30.8468 72.568 30.8286 72.4944 30.8286 C 72.3494 30.8286 72.2267 30.9068 72.1603 31.0311 C 72.1272 31.0933 72.1106 31.1644 72.1106 31.2445 C 72.1106 31.4815 72.2737 31.6604 72.4944 31.6604 Z  M 74.0454 31.83 L 73.6431 30.659 L 73.866 30.659 L 74.1856 31.6381 L 74.1073 31.6376 L 74.4205 30.659 L 74.6134 30.659 L 74.926 31.6376 L 74.8477 31.6381 L 75.169 30.659 L 75.3908 30.659 L 74.988 31.83 L 74.795 31.83 L 74.4857 30.852 L 74.5482 30.852 L 74.2383 31.83 Z  M 76.1117 31.8561 C 75.8855 31.8561 75.7005 31.7418 75.599 31.5555 C 75.5483 31.4623 75.5229 31.3574 75.5229 31.2407 C 75.5229 31.0051 75.6305 30.8169 75.8026 30.7118 C 75.8887 30.6592 75.9856 30.6329 76.0932 30.6329 C 76.4397 30.6329 76.6428 30.9037 76.6428 31.195 C 76.6428 31.2284 76.6397 31.2686 76.6325 31.3049 L 75.6713 31.3049 L 75.6713 31.1309 L 76.5161 31.1309 L 76.4188 31.2081 C 76.4322 31.1327 76.4253 31.0653 76.3979 31.0059 C 76.3432 30.887 76.2309 30.8123 76.0932 30.8123 C 75.9562 30.8123 75.837 30.8858 75.7746 31.0137 C 75.7435 31.0777 75.7311 31.1541 75.7377 31.2429 C 75.7239 31.4154 75.797 31.5476 75.9162 31.6183 C 75.9759 31.6536 76.0414 31.6713 76.1128 31.6713 C 76.27 31.6713 76.3757 31.5904 76.4417 31.4788 L 76.6113 31.5653 C 76.5417 31.7262 76.352 31.8561 76.1117 31.8561 Z  M 77.5142 31.8561 C 77.3236 31.8561 77.1591 31.7698 77.0771 31.6147 L 77.1043 31.5799 L 77.1043 31.83 L 76.9059 31.83 L 76.9059 30.1839 L 77.1098 30.1839 L 77.1098 30.9113 L 77.0777 30.8607 C 77.1668 30.7201 77.3212 30.6329 77.5148 30.6329 C 77.7366 30.6329 77.9182 30.7474 78.0201 30.9311 C 78.071 31.023 78.0964 31.1275 78.0964 31.2445 C 78.0964 31.4757 77.988 31.669 77.8129 31.7759 C 77.7254 31.8294 77.6258 31.8561 77.5142 31.8561 Z  M 77.4979 31.6604 C 77.6458 31.6604 77.7656 31.5831 77.832 31.4573 C 77.8651 31.3945 77.8817 31.3235 77.8817 31.2445 C 77.8817 31.1644 77.8651 31.0933 77.832 31.0311 C 77.7656 30.9068 77.6458 30.8286 77.4979 30.8286 C 77.3515 30.8286 77.229 30.9059 77.1609 31.0317 C 77.1268 31.0946 77.1098 31.1655 77.1098 31.2445 C 77.1098 31.4025 77.1826 31.5335 77.3 31.606 C 77.3587 31.6423 77.4247 31.6604 77.4979 31.6604 Z  M 79.3451 31.8561 C 79.1545 31.8561 78.99 31.7698 78.9081 31.6147 L 78.9353 31.5799 L 78.9353 31.83 L 78.7368 31.83 L 78.7368 30.1839 L 78.9407 30.1839 L 78.9407 30.9113 L 78.9086 30.8607 C 78.9978 30.7201 79.1522 30.6329 79.3457 30.6329 C 79.5675 30.6329 79.7492 30.7474 79.851 30.9311 C 79.9019 31.023 79.9274 31.1275 79.9274 31.2445 C 79.9274 31.4757 79.8189 31.669 79.6439 31.7759 C 79.5563 31.8294 79.4568 31.8561 79.3451 31.8561 Z  M 79.3288 31.6604 C 79.4767 31.6604 79.5966 31.5831 79.6629 31.4573 C 79.6961 31.3945 79.7126 31.3235 79.7126 31.2445 C 79.7126 31.1644 79.6961 31.0933 79.6629 31.0311 C 79.5966 30.9068 79.4767 30.8286 79.3288 30.8286 C 79.1824 30.8286 79.0599 30.9059 78.9918 31.0317 C 78.9577 31.0946 78.9407 31.1655 78.9407 31.2445 C 78.9407 31.4025 79.0135 31.5335 79.131 31.606 C 79.1897 31.6423 79.2556 31.6604 79.3288 31.6604 Z  M 80.608 31.8561 C 80.5232 31.8561 80.4473 31.8365 80.3805 31.7974 C 80.2467 31.7191 80.1677 31.5743 80.1677 31.3902 L 80.1677 30.659 L 80.3715 30.659 L 80.3715 31.369 C 80.3715 31.543 80.4873 31.6604 80.6526 31.6604 C 80.8189 31.6604 80.9369 31.543 80.9369 31.3527 L 80.9369 30.659 L 81.1407 30.659 L 81.1407 31.83 L 80.9423 31.83 L 80.9423 31.6017 L 80.9744 31.6212 C 80.9193 31.7698 80.7798 31.8561 80.608 31.8561 Z  M 81.4528 31.83 L 81.4528 30.659 L 81.6566 30.659 L 81.6566 31.83 Z  M 81.4528 30.4709 L 81.4528 30.21 L 81.6566 30.21 L 81.6566 30.4709 Z  M 81.9681 31.83 L 81.9681 30.1839 L 82.172 30.1839 L 82.172 31.83 Z  M 83.0179 31.8561 C 82.9073 31.8561 82.808 31.8294 82.72 31.7759 C 82.5438 31.669 82.4357 31.4757 82.4357 31.2445 C 82.4357 31.0104 82.5446 30.82 82.7197 30.7131 C 82.8072 30.6597 82.9064 30.6329 83.0173 30.6329 C 83.2109 30.6329 83.3674 30.7201 83.4544 30.8607 L 83.4223 30.9113 L 83.4223 30.1839 L 83.6262 30.1839 L 83.6262 31.83 L 83.4278 31.83 L 83.4278 31.5799 L 83.4549 31.6147 C 83.3738 31.7698 83.2085 31.8561 83.0179 31.8561 Z  M 83.0342 31.6604 C 83.1813 31.6604 83.3031 31.5831 83.3712 31.4573 C 83.4053 31.3945 83.4223 31.3235 83.4223 31.2445 C 83.4223 31.0865 83.3494 30.9555 83.2323 30.883 C 83.1738 30.8468 83.1078 30.8286 83.0342 30.8286 C 82.8892 30.8286 82.7664 30.9068 82.7001 31.0311 C 82.667 31.0933 82.6504 31.1644 82.6504 31.2445 C 82.6504 31.4815 82.8135 31.6604 83.0342 31.6604 Z  M 84.3579 31.8561 C 84.2416 31.8561 84.1398 31.8272 84.0527 31.7694 C 83.9655 31.7116 83.9034 31.6332 83.8665 31.5343 L 84.029 31.4571 C 84.0942 31.5955 84.2173 31.6827 84.3579 31.6827 C 84.4855 31.6827 84.5797 31.6167 84.5797 31.5174 C 84.5797 31.4478 84.5346 31.4083 84.4802 31.3837 C 84.453 31.3714 84.4275 31.3621 84.4036 31.356 L 84.2274 31.3059 C 84.018 31.2465 83.9236 31.1289 83.9236 30.9781 C 83.9236 30.839 83.9993 30.7325 84.1225 30.6756 C 84.1841 30.6472 84.2532 30.6329 84.3296 30.6329 C 84.4326 30.6329 84.5252 30.659 84.6074 30.7112 C 84.6897 30.7634 84.7479 30.8361 84.7819 30.9292 L 84.6172 31.0064 C 84.565 30.8839 84.4538 30.8091 84.3247 30.8091 C 84.2059 30.8091 84.1296 30.8743 84.1296 30.9656 C 84.1296 31.0657 84.2231 31.1015 84.2905 31.1211 L 84.4829 31.1777 C 84.6736 31.2335 84.7841 31.354 84.7841 31.5142 C 84.7841 31.6468 84.7073 31.7546 84.5797 31.8126 C 84.5159 31.8416 84.442 31.8561 84.3579 31.8561 Z" fill="#27272a"/>
<path d="M 58.0421 35.8561 C 57.8182 35.8561 57.6266 35.743 57.5186 35.5582 C 57.4646 35.4658 57.4376 35.3607 57.4376 35.2429 C 57.4376 35.0088 57.5525 34.8188 57.7345 34.7126 C 57.8254 34.6595 57.928 34.6329 58.0421 34.6329 C 58.2705 34.6329 58.4593 34.7447 58.5651 34.9281 C 58.618 35.0198 58.6445 35.1247 58.6445 35.2429 C 58.6445 35.4806 58.5262 35.6722 58.3447 35.7773 C 58.2539 35.8298 58.153 35.8561 58.0421 35.8561 Z  M 58.0421 35.6604 C 58.1893 35.6604 58.3105 35.5834 58.3787 35.4565 C 58.4127 35.3931 58.4298 35.3219 58.4298 35.2429 C 58.4298 35.0849 58.3567 34.9561 58.24 34.8833 C 58.1817 34.8469 58.1157 34.8286 58.0421 34.8286 C 57.895 34.8286 57.7735 34.9068 57.7043 35.0311 C 57.6697 35.0933 57.6524 35.1639 57.6524 35.2429 C 57.6524 35.4009 57.7269 35.5335 57.844 35.606 C 57.9025 35.6423 57.9686 35.6604 58.0421 35.6604 Z  M 58.9076 35.83 L 58.9076 34.659 L 59.106 34.659 L 59.106 34.8874 L 59.0739 34.8678 C 59.1312 34.7192 59.2686 34.6329 59.4403 34.6329 C 59.5248 34.6329 59.6002 34.6518 59.6665 34.6895 C 59.7991 34.7649 59.8807 34.9027 59.8807 35.0718 L 59.8807 35.83 L 59.6768 35.83 L 59.6768 35.1363 C 59.6768 35.0066 59.6274 34.9155 59.5425 34.8659 C 59.5001 34.8411 59.4512 34.8286 59.396 34.8286 C 59.2303 34.8286 59.1115 34.945 59.1115 35.1363 L 59.1115 35.83 Z  M 60.1688 35.83 L 60.1688 34.659 L 60.3672 34.659 L 60.3672 34.8738 L 60.3455 34.8422 C 60.3998 34.7096 60.5167 34.6444 60.6776 34.6444 L 60.7505 34.6444 L 60.7505 34.8373 L 60.6483 34.8373 C 60.4823 34.8373 60.3727 34.9443 60.3727 35.132 L 60.3727 35.83 Z  M 61.2745 35.8561 C 61.044 35.8561 60.882 35.7207 60.882 35.5239 C 60.882 35.3369 61.0033 35.1967 61.2664 35.1532 L 61.6997 35.0814 L 61.6997 35.2521 L 61.3104 35.3179 C 61.1611 35.344 61.0968 35.4163 61.0968 35.5163 C 61.0968 35.6127 61.1809 35.6854 61.299 35.6854 C 61.5186 35.6854 61.6649 35.5288 61.6649 35.3331 L 61.6649 35.0341 C 61.6649 34.9707 61.6414 34.9189 61.5945 34.8787 C 61.5475 34.8384 61.486 34.8183 61.4099 34.8183 C 61.2744 34.8183 61.1667 34.8944 61.1174 35.0053 L 60.9413 34.914 C 60.9634 34.8604 60.9985 34.8123 61.0465 34.7699 C 61.1425 34.6851 61.2738 34.6329 61.4137 34.6329 C 61.592 34.6329 61.7343 34.7051 61.8111 34.8254 C 61.8495 34.8855 61.8687 34.9551 61.8687 35.0341 L 61.8687 35.83 L 61.6703 35.83 L 61.6703 35.6077 L 61.7067 35.6223 C 61.635 35.7593 61.4757 35.8561 61.2745 35.8561 Z  M 62.1802 35.83 L 62.1802 34.659 L 62.3841 34.659 L 62.3841 35.83 Z  M 62.1802 34.4709 L 62.1802 34.21 L 62.3841 34.21 L 62.3841 34.4709 Z  M 63.1152 35.8561 C 62.9989 35.8561 62.8972 35.8272 62.81 35.7694 C 62.7228 35.7116 62.6608 35.6332 62.6238 35.5343 L 62.7864 35.4571 C 62.8516 35.5955 62.9746 35.6827 63.1152 35.6827 C 63.2428 35.6827 63.337 35.6167 63.337 35.5174 C 63.337 35.4478 63.2919 35.4083 63.2376 35.3837 C 63.2104 35.3714 63.1848 35.3621 63.1609 35.356 L 62.9848 35.3059 C 62.7753 35.2465 62.6809 35.1289 62.6809 34.9781 C 62.6809 34.839 62.7566 34.7325 62.8799 34.6756 C 62.9415 34.6472 63.0105 34.6329 63.087 34.6329 C 63.1899 34.6329 63.2825 34.659 63.3648 34.7112 C 63.447 34.7634 63.5052 34.8361 63.5393 34.9292 L 63.3746 35.0064 C 63.3224 34.8839 63.2111 34.8091 63.0821 34.8091 C 62.9632 34.8091 62.8869 34.8743 62.8869 34.9656 C 62.8869 35.0657 62.9804 35.1015 63.0478 35.1211 L 63.2403 35.1777 C 63.4309 35.2335 63.5414 35.354 63.5414 35.5142 C 63.5414 35.6468 63.4646 35.7546 63.337 35.8126 C 63.2733 35.8416 63.1993 35.8561 63.1152 35.8561 Z  M 64.284 35.843 C 64.0557 35.843 63.9263 35.7077 63.9263 35.4685 L 63.9263 34.852 L 63.7149 34.852 L 63.7149 34.659 L 63.7584 34.659 C 63.8627 34.659 63.9263 34.5889 63.9263 34.4845 L 63.9263 34.3894 L 64.1302 34.3894 L 64.1302 34.659 L 64.3922 34.659 L 64.3922 34.852 L 64.1302 34.852 L 64.1302 35.4631 C 64.1302 35.5816 64.1829 35.6582 64.3243 35.6582 C 64.3467 35.6582 64.3806 35.6546 64.4053 35.6517 L 64.4053 35.83 C 64.3683 35.838 64.3159 35.843 64.284 35.843 Z  M 65.0843 35.8561 C 64.9994 35.8561 64.9236 35.8365 64.8567 35.7974 C 64.723 35.7191 64.6439 35.5743 64.6439 35.3902 L 64.6439 34.659 L 64.8478 34.659 L 64.8478 35.369 C 64.8478 35.543 64.9636 35.6604 65.1288 35.6604 C 65.2952 35.6604 65.4131 35.543 65.4131 35.3527 L 65.4131 34.659 L 65.617 34.659 L 65.617 35.83 L 65.4186 35.83 L 65.4186 35.6017 L 65.4507 35.6212 C 65.3956 35.7698 65.256 35.8561 65.0843 35.8561 Z  M 66.4634 35.8561 C 66.3529 35.8561 66.2536 35.8294 66.1655 35.7759 C 65.9894 35.669 65.8812 35.4757 65.8812 35.2445 C 65.8812 35.0104 65.9902 34.82 66.1653 34.7131 C 66.2528 34.6597 66.352 34.6329 66.4629 34.6329 C 66.6564 34.6329 66.813 34.7201 66.9 34.8607 L 66.8679 34.9113 L 66.8679 34.1839 L 67.0717 34.1839 L 67.0717 35.83 L 66.8733 35.83 L 66.8733 35.5799 L 66.9005 35.6147 C 66.8193 35.7698 66.6541 35.8561 66.4634 35.8561 Z  M 66.4797 35.6604 C 66.6269 35.6604 66.7487 35.5831 66.8168 35.4573 C 66.8509 35.3945 66.8679 35.3235 66.8679 35.2445 C 66.8679 35.0865 66.7949 34.9555 66.6779 34.883 C 66.6194 34.8468 66.5533 34.8286 66.4797 34.8286 C 66.3348 34.8286 66.212 34.9068 66.1457 35.0311 C 66.1125 35.0933 66.0959 35.1644 66.0959 35.2445 C 66.0959 35.4815 66.259 35.6604 66.4797 35.6604 Z  M 67.3838 35.83 L 67.3838 34.659 L 67.5876 34.659 L 67.5876 35.83 Z  M 67.3838 34.4709 L 67.3838 34.21 L 67.5876 34.21 L 67.5876 34.4709 Z  M 68.4558 35.8561 C 68.2318 35.8561 68.0403 35.743 67.9323 35.5582 C 67.8783 35.4658 67.8513 35.3607 67.8513 35.2429 C 67.8513 35.0088 67.9662 34.8188 68.1481 34.7126 C 68.2391 34.6595 68.3417 34.6329 68.4558 34.6329 C 68.6841 34.6329 68.873 34.7447 68.9788 34.9281 C 69.0317 35.0198 69.0581 35.1247 69.0581 35.2429 C 69.0581 35.4806 68.9399 35.6722 68.7583 35.7773 C 68.6676 35.8298 68.5667 35.8561 68.4558 35.8561 Z  M 68.4558 35.6604 C 68.603 35.6604 68.7242 35.5834 68.7923 35.4565 C 68.8264 35.3931 68.8434 35.3219 68.8434 35.2429 C 68.8434 35.0849 68.7704 34.9561 68.6537 34.8833 C 68.5953 34.8469 68.5294 34.8286 68.4558 34.8286 C 68.3087 34.8286 68.1872 34.9068 68.1179 35.0311 C 68.0833 35.0933 68.066 35.1639 68.066 35.2429 C 68.066 35.4009 68.1406 35.5335 68.2577 35.606 C 68.3162 35.6423 68.3822 35.6604 68.4558 35.6604 Z  M 69.4039 35.83 L 69.4039 35.5691 L 69.6159 35.5691 L 69.6159 35.83 Z  M 70.5558 35.8561 C 70.4402 35.8561 70.3379 35.8292 70.249 35.7754 C 70.071 35.6677 69.9627 35.475 69.9627 35.2423 C 69.9627 35.0097 70.0704 34.8188 70.2487 34.7126 C 70.3378 34.6595 70.4402 34.6329 70.5558 34.6329 C 70.7088 34.6329 70.8454 34.6911 70.9462 34.7846 C 70.9965 34.8314 71.0339 34.8857 71.0581 34.9477 L 70.8766 35.0352 C 70.8229 34.912 70.703 34.8286 70.5558 34.8286 C 70.3406 34.8286 70.1775 35.0042 70.1775 35.2445 C 70.1775 35.4025 70.2478 35.5335 70.3623 35.606 C 70.4196 35.6423 70.4841 35.6604 70.5558 35.6604 C 70.7037 35.6604 70.8208 35.5781 70.8766 35.4506 L 71.0581 35.5419 C 71.0342 35.6017 70.9971 35.6553 70.9467 35.7028 C 70.8459 35.7977 70.7095 35.8561 70.5558 35.8561 Z  M 71.8785 35.8561 C 71.6545 35.8561 71.463 35.743 71.355 35.5582 C 71.301 35.4658 71.274 35.3607 71.274 35.2429 C 71.274 35.0088 71.3888 34.8188 71.5708 34.7126 C 71.6617 34.6595 71.7643 34.6329 71.8785 34.6329 C 72.1068 34.6329 72.2956 34.7447 72.4014 34.9281 C 72.4543 35.0198 72.4808 35.1247 72.4808 35.2429 C 72.4808 35.4806 72.3626 35.6722 72.181 35.7773 C 72.0902 35.8298 71.9894 35.8561 71.8785 35.8561 Z  M 71.8785 35.6604 C 72.0256 35.6604 72.1468 35.5834 72.215 35.4565 C 72.249 35.3931 72.2661 35.3219 72.2661 35.2429 C 72.2661 35.0849 72.193 34.9561 72.0763 34.8833 C 72.018 34.8469 71.952 34.8286 71.8785 34.8286 C 71.7313 34.8286 71.6098 34.9068 71.5406 35.0311 C 71.506 35.0933 71.4887 35.1639 71.4887 35.2429 C 71.4887 35.4009 71.5633 35.5335 71.6803 35.606 C 71.7388 35.6423 71.8049 35.6604 71.8785 35.6604 Z  M 72.7439 35.83 L 72.7439 34.659 L 72.9423 34.659 L 72.9423 34.8977 L 72.9146 34.8613 C 72.9712 34.7134 73.1091 34.6329 73.2685 34.6329 C 73.3606 34.6329 73.4431 34.6582 73.5161 34.7088 C 73.5892 34.7593 73.6394 34.8256 73.667 34.9075 L 73.6094 34.9113 C 73.6724 34.7279 73.8277 34.6329 74.0068 34.6329 C 74.1669 34.6329 74.3051 34.7129 74.3838 34.8455 C 74.4231 34.9118 74.4427 34.9872 74.4427 35.0716 L 74.4427 35.83 L 74.2389 35.83 L 74.2389 35.1363 C 74.2389 35.0066 74.1894 34.9155 74.109 34.8659 C 74.0687 34.8411 74.022 34.8286 73.9687 34.8286 C 73.8132 34.8286 73.6953 34.945 73.6953 35.1363 L 73.6953 35.83 L 73.4914 35.83 L 73.4914 35.1363 C 73.4914 35.0066 73.4419 34.9155 73.3615 34.8659 C 73.3212 34.8411 73.2745 34.8286 73.2212 34.8286 C 73.0625 34.8286 72.9478 34.945 72.9478 35.1363 L 72.9478 35.83 Z" fill="#0c8c81"/>
<path d="M 57.4334 39.08 L 57.4334 38.08 L 57.581 38.08 L 57.9562 38.6008 L 57.883 38.6008 L 58.2521 38.08 L 58.3998 38.08 L 58.3998 39.08 L 58.2421 39.08 L 58.2421 38.2672 L 58.3011 38.2834 L 57.9246 38.7981 L 57.9085 38.7981 L 57.5394 38.2834 L 57.5911 38.2672 L 57.5911 39.08 Z  M 58.8392 39.08 L 58.8392 38.08 L 59.4976 38.08 L 59.4976 38.2209 L 58.9969 38.2209 L 58.9969 38.5082 L 59.4707 38.5082 L 59.4707 38.6491 L 58.9969 38.6491 L 58.9969 38.9391 L 59.4976 38.9391 L 59.4976 39.08 Z  M 59.8785 39.08 L 59.8785 38.08 L 60.0363 38.08 L 60.0363 38.9391 L 60.4692 38.9391 L 60.4692 39.08 Z  M 60.8347 39.08 L 60.8347 38.08 L 61.2562 38.08 C 61.4441 38.08 61.5595 38.184 61.5595 38.3518 C 61.5595 38.4476 61.5108 38.5312 61.4079 38.5787 L 61.4072 38.5115 C 61.5454 38.5639 61.6005 38.6646 61.6005 38.7787 C 61.6005 38.8726 61.5699 38.9463 61.5089 38.9998 C 61.4478 39.0533 61.3638 39.08 61.2568 39.08 Z  M 60.9924 38.9391 L 61.2689 38.9391 C 61.3745 38.9391 61.4428 38.8769 61.4428 38.7793 C 61.4428 38.6818 61.3745 38.6183 61.2689 38.6183 L 60.9924 38.6183 Z  M 60.9924 38.4793 L 61.2595 38.4793 C 61.3454 38.4793 61.4018 38.4247 61.4018 38.3451 C 61.4018 38.2646 61.3454 38.2176 61.2595 38.2176 L 60.9924 38.2176 Z  M 62.4821 39.0961 C 62.3372 39.0961 62.2095 39.0422 62.116 38.9491 C 62.0225 38.8561 61.9667 38.7279 61.9667 38.5793 C 61.9667 38.4308 62.0218 38.3025 62.1154 38.2099 C 62.2089 38.1172 62.3363 38.0639 62.4821 38.0639 C 62.7739 38.0639 62.9976 38.2822 62.9976 38.5793 C 62.9976 38.7279 62.9417 38.8561 62.8482 38.9491 C 62.7547 39.0422 62.6271 39.0961 62.4821 39.0961 Z  M 62.4821 38.9518 C 62.6897 38.9518 62.8398 38.7905 62.8398 38.5793 C 62.8398 38.4223 62.7553 38.2917 62.6251 38.236 C 62.5817 38.2175 62.534 38.2082 62.4821 38.2082 C 62.3783 38.2082 62.2902 38.2469 62.2258 38.3149 C 62.1613 38.3829 62.1244 38.4746 62.1244 38.5793 C 62.1244 38.7905 62.2763 38.9518 62.4821 38.9518 Z  M 63.7819 39.0961 C 63.7072 39.0961 63.641 39.0804 63.5832 39.0491 C 63.4678 38.9865 63.3994 38.8733 63.3994 38.7337 L 63.3994 38.08 L 63.5571 38.08 L 63.5571 38.727 C 63.5571 38.8585 63.6504 38.9518 63.7819 38.9518 C 63.8705 38.9518 63.9394 38.9118 63.9779 38.8438 C 63.9971 38.8098 64.0067 38.7708 64.0067 38.727 L 64.0067 38.08 L 64.1645 38.08 L 64.1645 38.7337 C 64.1645 38.8733 64.0959 38.9865 63.9809 39.0491 C 63.9234 39.0804 63.8571 39.0961 63.7819 39.0961 Z  M 64.5958 39.08 L 64.5958 38.08 L 64.9589 38.08 C 65.1602 38.08 65.2998 38.1968 65.2998 38.3928 C 65.2998 38.5315 65.2262 38.6326 65.1099 38.6773 L 65.3407 39.08 L 65.1609 39.08 L 64.9152 38.6438 L 65.0186 38.7042 L 64.7535 38.7042 L 64.7535 39.08 Z  M 64.7535 38.5632 L 64.9622 38.5632 C 65.0709 38.5632 65.1421 38.4954 65.1421 38.3921 C 65.1421 38.2874 65.0709 38.2209 64.9622 38.2209 L 64.7535 38.2209 Z  M 65.7063 39.08 L 65.7063 38.08 L 65.8331 38.08 L 66.3949 38.8545 L 66.3338 38.8646 L 66.3338 38.08 L 66.4915 38.08 L 66.4915 39.08 L 66.364 39.08 L 65.807 38.3001 L 65.864 38.2901 L 65.864 39.08 Z  M 66.9309 39.08 L 66.9309 38.08 L 67.5893 38.08 L 67.5893 38.2209 L 67.0886 38.2209 L 67.0886 38.5082 L 67.5624 38.5082 L 67.5624 38.6491 L 67.0886 38.6491 L 67.0886 38.9391 L 67.5893 38.9391 L 67.5893 39.08 Z  M 67.9944 39.278 L 67.9944 39.2042 C 68.0526 39.1898 68.0855 39.1498 68.0918 39.08 L 68.0213 39.08 L 68.0213 38.9055 L 68.1756 38.9055 L 68.1756 39.0203 C 68.1756 39.1634 68.1144 39.252 67.9944 39.278 Z  M 69.0222 39.08 L 69.3739 38.08 L 69.5698 38.08 L 69.9215 39.08 L 69.7517 39.08 L 69.6752 38.8558 L 69.2685 38.8558 L 69.1913 39.08 Z  M 69.3148 38.7149 L 69.6276 38.7149 L 69.4497 38.1914 L 69.494 38.1914 Z  M 70.6468 39.0961 C 70.5721 39.0961 70.5059 39.0804 70.4481 39.0491 C 70.3327 38.9865 70.2642 38.8733 70.2642 38.7337 L 70.2642 38.08 L 70.422 38.08 L 70.422 38.727 C 70.422 38.8585 70.5152 38.9518 70.6468 38.9518 C 70.7354 38.9518 70.8043 38.9118 70.8428 38.8438 C 70.862 38.8098 70.8716 38.7708 70.8716 38.727 L 70.8716 38.08 L 71.0293 38.08 L 71.0293 38.7337 C 71.0293 38.8733 70.9608 38.9865 70.8458 39.0491 C 70.7883 39.0804 70.722 39.0961 70.6468 39.0961 Z  M 71.811 39.0961 C 71.7479 39.0961 71.6896 39.0844 71.6362 39.0609 C 71.5292 39.0139 71.4513 38.9281 71.4164 38.8216 L 71.5499 38.7652 C 71.5982 38.8878 71.696 38.9572 71.8177 38.9572 C 71.9251 38.9572 71.9956 38.9028 71.9956 38.8209 C 71.9956 38.7485 71.954 38.7075 71.8734 38.6834 L 71.6855 38.6243 C 71.5352 38.5778 71.4553 38.4773 71.4553 38.3485 C 71.4553 38.2366 71.5135 38.1485 71.611 38.1001 C 71.6598 38.076 71.7155 38.0639 71.7781 38.0639 C 71.898 38.0639 71.9988 38.1093 72.0691 38.1827 C 72.1042 38.2194 72.13 38.2619 72.1466 38.3102 L 72.015 38.3672 C 71.9748 38.2617 71.888 38.2028 71.7788 38.2028 C 71.6795 38.2028 71.6117 38.2572 71.6117 38.3404 C 71.6117 38.4048 71.6524 38.4574 71.7365 38.4834 L 71.9117 38.5377 C 72.071 38.5869 72.1513 38.6769 72.1513 38.8102 C 72.1513 38.9221 72.0902 39.0108 71.9882 39.0595 C 71.9372 39.0839 71.8781 39.0961 71.811 39.0961 Z  M 72.7383 39.08 L 72.7383 38.2209 L 72.4732 38.2209 L 72.4732 38.08 L 73.1578 38.08 L 73.1578 38.2209 L 72.896 38.2209 L 72.896 39.08 Z  M 73.5085 39.08 L 73.5085 38.08 L 73.8716 38.08 C 74.073 38.08 74.2126 38.1968 74.2126 38.3928 C 74.2126 38.5315 74.139 38.6326 74.0226 38.6773 L 74.2535 39.08 L 74.0736 39.08 L 73.828 38.6438 L 73.9314 38.7042 L 73.6663 38.7042 L 73.6663 39.08 Z  M 73.6663 38.5632 L 73.875 38.5632 C 73.9837 38.5632 74.0548 38.4954 74.0548 38.3921 C 74.0548 38.2874 73.9837 38.2209 73.875 38.2209 L 73.6663 38.2209 Z  M 74.5305 39.08 L 74.8821 38.08 L 75.0781 38.08 L 75.4298 39.08 L 75.26 39.08 L 75.1835 38.8558 L 74.7768 38.8558 L 74.6996 39.08 Z  M 74.8231 38.7149 L 75.1358 38.7149 L 74.958 38.1914 L 75.0023 38.1914 Z  M 75.7806 39.08 L 75.7806 38.08 L 75.9383 38.08 L 75.9383 38.9391 L 76.3712 38.9391 L 76.3712 39.08 Z  M 76.7367 39.08 L 76.7367 38.08 L 76.8945 38.08 L 76.8945 39.08 Z  M 77.2459 39.08 L 77.5976 38.08 L 77.7936 38.08 L 78.1452 39.08 L 77.9754 39.08 L 77.8989 38.8558 L 77.4922 38.8558 L 77.415 39.08 Z  M 77.5385 38.7149 L 77.8513 38.7149 L 77.6734 38.1914 L 77.7177 38.1914 Z" fill="#71717a"/>
<path d="M 0 6.91 L 4 6.91 L 4 7.09 L 0 7.09 Z  M 6.91 0 L 7.09 0 L 7.09 4 L 6.91 4 Z  M 0 61.91 L 4 61.91 L 4 62.09 L 0 62.09 Z  M 6.91 65 L 7.09 65 L 7.09 69 L 6.91 69 Z  M 100 6.91 L 104 6.91 L 104 7.09 L 100 7.09 Z  M 96.91 0 L 97.09 0 L 97.09 4 L 96.91 4 Z  M 100 61.91 L 104 61.91 L 104 62.09 L 100 62.09 Z  M 96.91 65 L 97.09 65 L 97.09 69 L 96.91 69 Z" fill="#111113"/>
</svg>
