<svg xmlns="http://www.w3.org/2000/svg" width="104mm" height="69mm" viewBox="0 0 104 69">
<path d="M 0 0 L 104 0 L 104 69 L 0 69 Z" fill="#ffffff"/>
<path d="M 3 3 L 101 3 L 101 66 L 3 66 Z" fill="#0c8c81"/>
<path d="M 51.39 22.05 L 51.61 22.05 L 51.61 46.95 L 51.39 46.95 Z" fill="#55aea8"/>
<path d="M 20.7337 30.9523 L 21.9988 30.9523 L 22.0089 31.1464 L 20.7178 31.1464 Z  M 20.9585 32.094 C 20.9585 32.1447 20.9244 32.1785 20.8467 32.1785 L 20.165 32.1785 C 20.0888 32.1785 20.0523 32.1455 20.0523 32.0948 C 20.0523 32.0567 20.0716 32.0336 20.1269 32.0076 L 20.2025 31.9797 C 20.2462 31.9598 20.2811 31.9317 20.3072 31.8954 C 20.3334 31.8592 20.3604 31.7962 20.3884 31.7066 L 21.0992 29.508 C 21.1184 29.4478 21.1229 29.4038 21.1129 29.3759 C 21.1028 29.3479 21.0725 29.3256 21.0219 29.309 C 20.9488 29.2833 20.9222 29.2553 20.9222 29.2114 C 20.9222 29.1586 20.9595 29.1285 21.0365 29.1285 L 22.0378 29.1285 C 22.1157 29.1285 22.151 29.1589 22.151 29.2106 C 22.151 29.2572 22.1239 29.2863 22.0562 29.3066 C 21.9772 29.3277 21.9671 29.3594 21.9965 29.4508 L 22.7692 31.7858 C 22.8101 31.915 22.8544 31.9692 22.9477 31.9949 C 23.0228 32.0224 23.0422 32.047 23.0422 32.094 C 23.0422 32.1447 23.005 32.1785 22.9282 32.1785 L 21.9875 32.1785 C 21.9106 32.1785 21.8743 32.1447 21.8743 32.094 C 21.8743 32.0508 21.9002 32.0258 21.9563 32.0076 L 22.0834 31.9832 C 22.1207 31.9726 22.1397 31.955 22.1402 31.9304 C 22.1408 31.9058 22.1324 31.8667 22.1152 31.8132 L 21.3234 29.373 L 21.3914 29.3236 L 20.6322 31.6804 C 20.5767 31.8561 20.6128 31.9254 20.7633 31.9834 L 20.8783 32.0096 C 20.9313 32.0286 20.9585 32.05 20.9585 32.094 Z  M 24.0919 30.2208 L 24.0919 31.8702 C 24.0919 31.9511 24.1163 31.9842 24.1673 32.0006 L 24.2559 32.0232 C 24.2974 32.0392 24.3181 32.0642 24.3181 32.0981 C 24.3181 32.1517 24.2837 32.1785 24.2149 32.1785 L 23.3819 32.1785 C 23.3133 32.1785 23.2816 32.1491 23.2816 32.1022 C 23.2816 32.0654 23.3034 32.0395 23.3521 32.0233 L 23.4469 32.0006 C 23.4982 31.9845 23.5223 31.9518 23.5223 31.8713 L 23.5223 30.5552 C 23.5223 30.4908 23.5031 30.4658 23.4573 30.459 L 23.3322 30.4519 C 23.2855 30.4423 23.2667 30.4198 23.2667 30.3849 C 23.2667 30.3441 23.2873 30.3226 23.353 30.2987 L 23.7793 30.1514 C 23.8733 30.1165 23.924 30.1025 23.9742 30.1025 C 24.0518 30.1025 24.0919 30.1495 24.0919 30.2208 Z  M 24.0293 30.6932 L 23.9437 30.605 L 24.0295 30.529 C 24.2043 30.3719 24.3546 30.2597 24.4802 30.1923 C 24.6059 30.1249 24.7255 30.0913 24.839 30.0913 C 25.0107 30.0913 25.1441 30.1483 25.2394 30.2625 C 25.3347 30.3767 25.3929 30.5316 25.4141 30.7274 L 25.5438 31.8632 C 25.5535 31.9488 25.572 31.9859 25.6266 32.002 L 25.7107 32.0233 C 25.7595 32.0393 25.7812 32.0652 25.7812 32.1022 C 25.7812 32.1491 25.7509 32.1785 25.6806 32.1785 L 24.8385 32.1785 C 24.7695 32.1785 24.735 32.1517 24.735 32.0981 C 24.735 32.0644 24.7556 32.0394 24.7967 32.0232 L 24.8892 32.0006 C 24.9453 31.9842 24.977 31.9469 24.9674 31.8632 L 24.847 30.8081 C 24.8165 30.5495 24.7223 30.4218 24.5262 30.4218 C 24.4028 30.4218 24.2689 30.4874 24.1166 30.6178 Z  M 27.5225 31.8312 L 27.5072 31.8197 L 27.5072 29.3982 C 27.5072 29.3337 27.488 29.3088 27.4422 29.302 L 27.3171 29.2948 C 27.2704 29.2853 27.2516 29.2628 27.2516 29.2279 C 27.2516 29.1871 27.2722 29.1655 27.3379 29.1417 L 27.7642 28.9943 C 27.8582 28.9595 27.9089 28.9454 27.9591 28.9454 C 28.0367 28.9454 28.0768 28.9925 28.0768 29.0638 L 28.0768 31.8702 C 28.0768 31.9511 28.1012 31.9856 28.1522 32.0006 L 28.2428 32.0222 C 28.2931 32.0382 28.3152 32.0639 28.3152 32.1022 C 28.3152 32.1491 28.2834 32.1785 28.2131 32.1785 L 27.7497 32.1785 C 27.6839 32.1785 27.6296 32.1579 27.5868 32.1167 C 27.544 32.0754 27.5225 32.0203 27.5225 31.9513 Z  M 25.9609 31.2145 C 25.9609 30.9853 26.0062 30.7867 26.0969 30.6185 C 26.1876 30.4504 26.31 30.3205 26.4642 30.2288 C 26.6183 30.1371 26.7905 30.0913 26.9807 30.0913 C 27.3199 30.0913 27.5778 30.2526 27.7419 30.5467 L 27.6154 30.6542 C 27.4803 30.4225 27.2976 30.3041 27.0863 30.3041 C 26.884 30.3041 26.7157 30.4216 26.6228 30.6717 C 26.5763 30.7968 26.5531 30.9574 26.5531 31.1534 C 26.5531 31.6987 26.7706 31.9612 27.0677 31.9612 C 27.2736 31.9612 27.4594 31.8409 27.6156 31.5889 L 27.6983 31.697 C 27.4719 32.0369 27.1868 32.2303 26.8427 32.2303 C 26.6732 32.2303 26.5221 32.1873 26.3892 32.1012 C 26.2563 32.0152 26.1517 31.8959 26.0754 31.7432 C 25.999 31.5906 25.9609 31.4143 25.9609 31.2145 Z  M 29.3376 31.0384 C 29.3376 30.8307 29.3673 30.6565 29.4268 30.5158 C 29.5458 30.2344 29.7489 30.0913 29.9658 30.0913 C 30.2317 30.0913 30.3826 30.2491 30.3826 30.5293 C 30.3826 30.7712 30.2697 30.891 30.1083 30.891 C 29.9471 30.891 29.8605 30.7992 29.8594 30.6411 L 29.859 30.5639 C 29.8574 30.4718 29.8196 30.4261 29.7261 30.4261 C 29.6201 30.4261 29.5157 30.5129 29.4542 30.6913 C 29.4234 30.7805 29.408 30.8941 29.408 31.0321 Z  M 29.3794 30.2232 L 29.408 30.7536 L 29.408 31.8682 C 29.408 31.9415 29.4341 31.9757 29.5134 31.9886 L 29.7056 32.0183 C 29.7651 32.028 29.7929 32.0534 29.7929 32.1012 C 29.7929 32.1494 29.7571 32.1785 29.6893 32.1785 L 28.6989 32.1785 C 28.6296 32.1785 28.5977 32.1487 28.5977 32.1021 C 28.5977 32.0651 28.6203 32.0389 28.6694 32.0226 L 28.7631 32.0006 C 28.8143 31.9856 28.8385 31.9519 28.8385 31.8725 L 28.8385 30.5581 C 28.8385 30.4934 28.8195 30.4679 28.7736 30.4611 L 28.6475 30.4539 C 28.6016 30.4444 28.5824 30.4218 28.5824 30.3872 C 28.5824 30.3467 28.6043 30.3233 28.6691 30.3008 L 29.0885 30.1593 C 29.2089 30.1138 29.2558 30.1044 29.2893 30.1044 C 29.344 30.1044 29.3699 30.1383 29.3794 30.2232 Z  M 32.5486 30.9153 C 32.5486 31.0477 32.4707 31.1218 32.3249 31.1218 L 30.9613 31.1218 L 30.9613 30.9783 L 31.8761 30.9783 C 31.9425 30.9783 31.9757 30.948 31.9757 30.8873 C 31.9757 30.6862 31.9395 30.5335 31.8671 30.4293 C 31.7946 30.3252 31.699 30.2731 31.5801 30.2731 C 31.2998 30.2731 31.107 30.5372 31.107 30.9898 C 31.107 31.2748 31.1732 31.4891 31.3054 31.6327 C 31.4377 31.7763 31.6123 31.8481 31.8292 31.8481 C 32.0971 31.8481 32.3051 31.7256 32.3976 31.519 C 32.4394 31.4699 32.4611 31.4555 32.4892 31.4555 C 32.5283 31.4555 32.5461 31.4954 32.5448 31.5461 C 32.538 31.6708 32.4949 31.7851 32.4155 31.8891 C 32.336 31.9932 32.2291 32.076 32.0948 32.1377 C 31.9605 32.1994 31.807 32.2303 31.6344 32.2303 C 31.4301 32.2303 31.2493 32.1877 31.0919 32.1026 C 30.9345 32.0175 30.8113 31.8979 30.7222 31.7439 C 30.6332 31.5898 30.5887 31.4095 30.5887 31.2029 C 30.5887 30.9857 30.6316 30.7937 30.7173 30.6269 C 30.803 30.46 30.9256 30.3289 31.0851 30.2337 C 31.2446 30.1385 31.4344 30.0909 31.6545 30.0909 C 32.0275 30.0909 32.2993 30.2406 32.4417 30.4882 C 32.513 30.6121 32.5486 30.7544 32.5486 30.9153 Z  M 33.8859 32.1946 L 33.6839 32.1946 C 33.6078 32.1946 33.5514 32.1619 33.5192 32.0723 L 32.9571 30.4471 C 32.924 30.3479 32.8952 30.3249 32.8479 30.3136 L 32.7734 30.296 C 32.7235 30.2798 32.7059 30.2568 32.7059 30.2173 C 32.7059 30.1689 32.7433 30.1402 32.8039 30.1402 L 33.7191 30.1402 C 33.7799 30.1402 33.8172 30.1683 33.8172 30.2167 C 33.8172 30.2562 33.7961 30.2804 33.7388 30.2942 L 33.6514 30.3102 C 33.6017 30.3192 33.5723 30.3384 33.5631 30.3677 C 33.5539 30.397 33.563 30.4531 33.5902 30.5361 L 34.0251 31.8576 L 33.8968 31.9841 L 34.4219 30.4503 L 34.5849 30.564 L 34.0483 32.0854 C 34.0163 32.1695 33.9534 32.1946 33.8859 32.1946 Z  M 35.2429 32.1946 L 35.0462 32.1946 C 34.9751 32.1946 34.912 32.1588 34.8823 32.0727 L 34.3304 30.4373 C 34.299 30.3461 34.2734 30.3245 34.227 30.3136 L 34.1531 30.2963 C 34.1037 30.2799 34.0855 30.2573 34.0855 30.2165 C 34.0855 30.1657 34.1185 30.1402 34.1846 30.1402 L 35.0662 30.1402 C 35.1312 30.1402 35.1637 30.166 35.1637 30.2175 C 35.1637 30.2572 35.142 30.2841 35.0915 30.2924 L 34.9854 30.31 C 34.9075 30.3227 34.8938 30.376 34.9407 30.5218 L 35.3732 31.8628 L 35.2487 31.9932 L 35.6999 30.5809 C 35.7309 30.4861 35.7416 30.4198 35.7319 30.382 C 35.7222 30.3443 35.6891 30.3204 35.6323 30.3103 L 35.5461 30.2942 C 35.4902 30.2804 35.4678 30.2573 35.4678 30.2165 C 35.4678 30.1681 35.5052 30.1402 35.5657 30.1402 L 36.1152 30.1402 C 36.1767 30.1402 36.2138 30.1691 36.2138 30.2175 C 36.2138 30.2531 36.1981 30.2793 36.1397 30.2945 L 36.0725 30.3093 C 36.0146 30.3255 35.975 30.3857 35.9204 30.5479 L 35.4048 32.0832 C 35.3757 32.1687 35.3096 32.1946 35.2429 32.1946 Z  M 39.9865 30.2411 C 39.9865 30.6198 39.7874 30.9035 39.4408 31.0561 C 39.2675 31.1325 39.0643 31.1706 38.8313 31.1706 C 38.5145 31.1706 38.2532 31.1009 38.0572 30.9759 L 38.0836 30.8116 C 38.2484 30.9232 38.4489 30.9775 38.6644 30.9775 C 38.9352 30.9775 39.1532 30.8586 39.2741 30.6339 C 39.3345 30.5215 39.3647 30.3855 39.3647 30.226 C 39.3647 29.8523 39.2128 29.5734 38.9525 29.4245 C 38.8223 29.35 38.6696 29.3127 38.4945 29.3127 L 38.3097 29.3127 L 38.3097 31.8587 C 38.3097 31.9185 38.3424 31.9608 38.4135 31.9729 L 38.6097 31.9998 C 38.6726 32.0109 38.6975 32.0391 38.6975 32.094 C 38.6975 32.1449 38.6637 32.1785 38.5866 32.1785 L 37.4677 32.1785 C 37.3917 32.1785 37.3563 32.145 37.3563 32.0938 C 37.3563 32.048 37.383 32.0169 37.4364 32.0006 L 37.5741 31.9727 C 37.6425 31.9544 37.6775 31.9181 37.6775 31.8592 L 37.6775 29.4493 C 37.6775 29.3893 37.6424 29.3525 37.5748 29.3344 L 37.4357 29.3062 C 37.3828 29.2902 37.3563 29.2592 37.3563 29.2132 C 37.3563 29.1593 37.3915 29.1285 37.4675 29.1285 L 38.5088 29.1285 C 38.818 29.1285 39.0828 29.1761 39.303 29.2712 C 39.5233 29.3664 39.6923 29.4977 39.81 29.6652 C 39.9276 29.8327 39.9865 30.0247 39.9865 30.2411 Z  M 42.2105 30.9153 C 42.2105 31.0477 42.1326 31.1218 41.9869 31.1218 L 40.6232 31.1218 L 40.6232 30.9783 L 41.538 30.9783 C 41.6045 30.9783 41.6377 30.948 41.6377 30.8873 C 41.6377 30.6862 41.6015 30.5335 41.529 30.4293 C 41.4566 30.3252 41.361 30.2731 41.2421 30.2731 C 40.9618 30.2731 40.769 30.5372 40.769 30.9898 C 40.769 31.2748 40.8351 31.4891 40.9674 31.6327 C 41.0996 31.7763 41.2742 31.8481 41.4912 31.8481 C 41.7591 31.8481 41.9671 31.7256 42.0595 31.519 C 42.1014 31.4699 42.123 31.4555 42.1511 31.4555 C 42.1903 31.4555 42.2081 31.4954 42.2068 31.5461 C 42.2 31.6708 42.1569 31.7851 42.0774 31.8891 C 41.998 31.9932 41.8911 32.076 41.7568 32.1377 C 41.6225 32.1994 41.469 32.2303 41.2963 32.2303 C 41.0921 32.2303 40.9112 32.1877 40.7538 32.1026 C 40.5964 32.0175 40.4732 31.8979 40.3842 31.7439 C 40.2952 31.5898 40.2507 31.4095 40.2507 31.2029 C 40.2507 30.9857 40.2935 30.7937 40.3792 30.6269 C 40.4649 30.46 40.5875 30.3289 40.747 30.2337 C 40.9065 30.1385 41.0963 30.0909 41.3164 30.0909 C 41.6894 30.0909 41.9612 30.2406 42.1037 30.4882 C 42.1749 30.6121 42.2105 30.7544 42.2105 30.9153 Z  M 43.3287 30.2208 L 43.3287 31.8702 C 43.3287 31.9511 43.3531 31.9842 43.4041 32.0006 L 43.4927 32.0232 C 43.5342 32.0392 43.5549 32.0642 43.5549 32.0981 C 43.5549 32.1517 43.5205 32.1785 43.4517 32.1785 L 42.6187 32.1785 C 42.5501 32.1785 42.5184 32.1491 42.5184 32.1022 C 42.5184 32.0654 42.5401 32.0395 42.5889 32.0233 L 42.6837 32.0006 C 42.735 31.9845 42.7591 31.9518 42.7591 31.8713 L 42.7591 30.5552 C 42.7591 30.4908 42.7399 30.4658 42.6941 30.459 L 42.569 30.4519 C 42.5223 30.4423 42.5035 30.4198 42.5035 30.3849 C 42.5035 30.3441 42.5241 30.3226 42.5898 30.2987 L 43.0161 30.1514 C 43.1101 30.1165 43.1608 30.1025 43.211 30.1025 C 43.2886 30.1025 43.3287 30.1495 43.3287 30.2208 Z  M 43.2661 30.6932 L 43.1805 30.605 L 43.2663 30.529 C 43.4411 30.3719 43.5914 30.2597 43.717 30.1923 C 43.8427 30.1249 43.9623 30.0913 44.0757 30.0913 C 44.2474 30.0913 44.3809 30.1483 44.4762 30.2625 C 44.5715 30.3767 44.6297 30.5316 44.6509 30.7274 L 44.7806 31.8632 C 44.7902 31.9488 44.8088 31.9859 44.8634 32.002 L 44.9475 32.0233 C 44.9963 32.0393 45.018 32.0652 45.018 32.1022 C 45.018 32.1491 44.9877 32.1785 44.9174 32.1785 L 44.0753 32.1785 C 44.0063 32.1785 43.9718 32.1517 43.9718 32.0981 C 43.9718 32.0644 43.9923 32.0394 44.0335 32.0232 L 44.1259 32.0006 C 44.1821 31.9842 44.2138 31.9469 44.2042 31.8632 L 44.0838 30.8081 C 44.0533 30.5495 43.9591 30.4218 43.7629 30.4218 C 43.6395 30.4218 43.5056 30.4874 43.3534 30.6178 Z  M 46.5605 32.007 C 46.3628 31.9754 46.219 31.9474 46.1293 31.9231 C 46.0395 31.8988 45.9826 31.8755 45.9586 31.8532 C 45.9345 31.831 45.9225 31.8081 45.9225 31.7846 C 45.9225 31.7328 45.9606 31.6912 46.049 31.6526 L 46.0078 31.6214 C 45.7329 31.6529 45.5832 31.7329 45.5177 31.8368 C 45.4849 31.8887 45.4685 31.9447 45.4685 32.0046 C 45.4685 32.072 45.4892 32.1304 45.5305 32.1795 C 45.5718 32.2286 45.6483 32.2722 45.7599 32.3103 C 45.8716 32.3484 46.0332 32.3845 46.2448 32.4186 C 46.5936 32.4747 46.7762 32.5354 46.8526 32.6144 C 46.8908 32.6539 46.9099 32.7001 46.9099 32.753 C 46.9099 32.9543 46.7311 33.0728 46.2973 33.0728 C 46.0422 33.0728 45.8614 33.0323 45.7548 32.9514 C 45.6483 32.8704 45.595 32.7639 45.595 32.632 C 45.595 32.5607 45.6257 32.4964 45.6869 32.4391 C 45.7482 32.3818 45.838 32.3439 45.9564 32.3254 L 45.9238 32.2666 C 45.6399 32.3012 45.4423 32.3628 45.3309 32.4515 C 45.2195 32.5402 45.1638 32.6423 45.1638 32.7576 C 45.1638 32.946 45.2899 33.0987 45.5966 33.1833 C 45.7499 33.2255 45.9549 33.2466 46.2116 33.2466 C 46.5974 33.2466 46.8928 33.1846 47.0979 33.0606 C 47.303 32.9366 47.4055 32.7775 47.4055 32.5834 C 47.4055 32.4779 47.379 32.3879 47.3259 32.3133 C 47.2198 32.1641 46.9827 32.0677 46.5605 32.007 Z  M 46.6165 30.3017 L 46.7387 30.3192 C 46.789 30.2206 46.8316 30.1536 46.8665 30.1182 C 46.9014 30.0828 46.9412 30.0651 46.9861 30.0651 C 47.065 30.0651 47.1058 30.115 47.1448 30.1712 C 47.1837 30.2273 47.2294 30.2772 47.3188 30.2772 C 47.4463 30.2772 47.5266 30.1789 47.5266 30.0286 C 47.5266 29.9413 47.4986 29.8725 47.4426 29.8223 C 47.3867 29.7721 47.3132 29.747 47.2223 29.747 C 47.007 29.747 46.8138 29.8907 46.6818 30.1697 Z  M 47.2316 30.8695 C 47.2316 30.7242 47.1923 30.5933 47.1137 30.4767 C 46.9566 30.2434 46.6621 30.0971 46.2639 30.0971 C 46.0585 30.0971 45.8788 30.1323 45.7248 30.2028 C 45.4167 30.3437 45.2391 30.6019 45.2391 30.9324 C 45.2391 31.0764 45.2787 31.2067 45.3581 31.3235 C 45.4374 31.4403 45.55 31.5327 45.6958 31.6005 C 45.8416 31.6683 46.0136 31.7022 46.2118 31.7022 C 46.6171 31.7022 46.9324 31.5546 47.1034 31.3041 C 47.1889 31.1789 47.2316 31.034 47.2316 30.8695 Z  M 46.1592 30.2576 C 46.2872 30.25 46.3931 30.3021 46.4767 30.414 C 46.5603 30.5259 46.6124 30.6856 46.633 30.893 C 46.6743 31.2922 46.554 31.5186 46.3082 31.5338 C 46.1398 31.543 46.0034 31.4433 45.919 31.2495 C 45.8769 31.1525 45.8486 31.0356 45.8344 30.8986 C 45.7941 30.4991 45.9157 30.2714 46.1592 30.2576 Z" fill="#ffffff"/>
<path d="M 25.7267 36.5785 L 25.7267 35.0785 L 26.3521 35.0785 C 26.6033 35.0785 26.7656 35.2315 26.7656 35.4554 C 26.7656 35.6111 26.6841 35.7372 26.5413 35.7957 L 26.5397 35.7534 C 26.7177 35.8138 26.826 35.9656 26.826 36.1452 C 26.826 36.2779 26.784 36.3832 26.7 36.4613 C 26.616 36.5395 26.5005 36.5785 26.3537 36.5785 Z  M 25.8757 36.4396 L 26.3501 36.4396 C 26.4499 36.4396 26.5294 36.4135 26.5884 36.3613 C 26.6475 36.3091 26.677 36.2377 26.677 36.1472 C 26.677 36.0576 26.6477 35.9861 26.589 35.9328 C 26.5304 35.8795 26.4521 35.8529 26.3541 35.8529 L 25.8757 35.8529 Z  M 25.8757 35.7188 L 26.34 35.7188 C 26.4235 35.7188 26.4905 35.6948 26.5409 35.6467 C 26.5914 35.5987 26.6166 35.5364 26.6166 35.4599 C 26.6166 35.3047 26.5086 35.2174 26.34 35.2174 L 25.8757 35.2174 Z  M 27.4812 36.6027 C 27.4071 36.6027 27.3393 36.5854 27.2778 36.5507 C 27.1549 36.4815 27.0777 36.3522 27.0777 36.1847 L 27.0777 35.5034 L 27.2166 35.5034 L 27.2166 36.1702 C 27.2166 36.349 27.3378 36.4646 27.5037 36.4646 C 27.6769 36.4646 27.7945 36.3393 27.7945 36.146 L 27.7945 35.5034 L 27.9334 35.5034 L 27.9334 36.5785 L 27.7945 36.5785 L 27.7945 36.3663 L 27.8267 36.3748 C 27.7773 36.5144 27.645 36.6027 27.4812 36.6027 Z  M 28.6204 36.6027 C 28.5189 36.6027 28.4298 36.5771 28.353 36.526 C 28.2762 36.4748 28.2203 36.4051 28.1851 36.3168 L 28.3035 36.2608 C 28.3668 36.3929 28.4851 36.4758 28.6204 36.4758 C 28.687 36.4758 28.7431 36.4595 28.7889 36.4267 C 28.8347 36.394 28.8576 36.351 28.8576 36.2979 C 28.8576 36.2248 28.8113 36.1814 28.7547 36.1543 C 28.7264 36.1407 28.6994 36.1307 28.6739 36.1243 L 28.5149 36.0792 C 28.3216 36.025 28.2378 35.9212 28.2378 35.7864 C 28.2378 35.6012 28.3957 35.4792 28.593 35.4792 C 28.6832 35.4792 28.7652 35.5026 28.8388 35.5495 C 28.9125 35.5963 28.9644 35.6607 28.9945 35.7426 L 28.8737 35.7989 C 28.8189 35.6781 28.7122 35.606 28.5882 35.606 C 28.4647 35.606 28.382 35.6781 28.382 35.7764 C 28.382 35.8811 28.4766 35.9209 28.5451 35.9403 L 28.7239 35.9922 C 28.8984 36.0427 29.0005 36.1532 29.0005 36.297 C 29.0005 36.4141 28.9308 36.5115 28.8167 36.5636 C 28.7596 36.5897 28.6942 36.6027 28.6204 36.6027 Z  M 29.2743 36.5785 L 29.2743 35.5034 L 29.4133 35.5034 L 29.4133 36.5785 Z  M 29.2743 35.3 L 29.2743 35.0785 L 29.4133 35.0785 L 29.4133 35.3 Z  M 29.7314 36.5785 L 29.7314 35.5034 L 29.8703 35.5034 L 29.8703 35.7156 L 29.8381 35.7071 C 29.8896 35.567 30.0209 35.4792 30.1836 35.4792 C 30.259 35.4792 30.3272 35.4964 30.3882 35.5307 C 30.5101 35.5995 30.5871 35.7255 30.5871 35.8791 L 30.5871 36.5785 L 30.4482 36.5785 L 30.4482 35.9278 C 30.4482 35.7968 30.3966 35.7047 30.3098 35.6548 C 30.2665 35.6298 30.2169 35.6173 30.1611 35.6173 C 29.9887 35.6173 29.8703 35.7417 29.8703 35.9358 L 29.8703 36.5785 Z  M 31.3739 36.6027 C 31.2733 36.6027 31.1824 36.5782 31.1013 36.5292 C 30.9392 36.4312 30.8388 36.253 30.8388 36.0377 C 30.8388 35.8219 30.9366 35.6483 31.0931 35.5517 C 31.1713 35.5034 31.2593 35.4792 31.357 35.4792 C 31.6609 35.4792 31.8515 35.7275 31.8515 35.9906 C 31.8515 36.0174 31.8492 36.0498 31.8439 36.0836 L 30.9254 36.0836 L 30.9254 35.9548 L 31.7641 35.9548 L 31.6993 36.0083 C 31.7203 35.8569 31.6531 35.7324 31.5431 35.6618 C 31.488 35.6265 31.426 35.6089 31.357 35.6089 C 31.218 35.6089 31.0942 35.6856 31.0276 35.8136 C 30.9943 35.8777 30.9804 35.9529 30.9858 36.0393 C 30.975 36.2122 31.0527 36.3466 31.1748 36.4189 C 31.2359 36.455 31.3023 36.473 31.3739 36.473 C 31.5313 36.473 31.6407 36.3902 31.7094 36.2737 L 31.8278 36.3365 C 31.7609 36.4831 31.589 36.6027 31.3739 36.6027 Z  M 32.4942 36.6027 C 32.3927 36.6027 32.3036 36.5771 32.2268 36.526 C 32.1501 36.4748 32.0941 36.4051 32.0589 36.3168 L 32.1773 36.2608 C 32.2407 36.3929 32.3589 36.4758 32.4942 36.4758 C 32.5608 36.4758 32.617 36.4595 32.6627 36.4267 C 32.7085 36.394 32.7314 36.351 32.7314 36.2979 C 32.7314 36.2248 32.6852 36.1814 32.6285 36.1543 C 32.6002 36.1407 32.5733 36.1307 32.5478 36.1243 L 32.3887 36.0792 C 32.1954 36.025 32.1117 35.9212 32.1117 35.7864 C 32.1117 35.6012 32.2695 35.4792 32.4668 35.4792 C 32.557 35.4792 32.639 35.5026 32.7127 35.5495 C 32.7864 35.5963 32.8382 35.6607 32.8683 35.7426 L 32.7475 35.7989 C 32.6927 35.6781 32.586 35.606 32.462 35.606 C 32.3385 35.606 32.2558 35.6781 32.2558 35.7764 C 32.2558 35.8811 32.3505 35.9209 32.4189 35.9403 L 32.5977 35.9922 C 32.7722 36.0427 32.8743 36.1532 32.8743 36.297 C 32.8743 36.4141 32.8046 36.5115 32.6905 36.5636 C 32.6335 36.5897 32.568 36.6027 32.4942 36.6027 Z  M 33.517 36.6027 C 33.4156 36.6027 33.3264 36.5771 33.2496 36.526 C 33.1729 36.4748 33.1169 36.4051 33.0817 36.3168 L 33.2001 36.2608 C 33.2635 36.3929 33.3817 36.4758 33.517 36.4758 C 33.5836 36.4758 33.6398 36.4595 33.6856 36.4267 C 33.7313 36.394 33.7542 36.351 33.7542 36.2979 C 33.7542 36.2248 33.708 36.1814 33.6513 36.1543 C 33.623 36.1407 33.5961 36.1307 33.5706 36.1243 L 33.4115 36.0792 C 33.2182 36.025 33.1345 35.9212 33.1345 35.7864 C 33.1345 35.6012 33.2923 35.4792 33.4896 35.4792 C 33.5798 35.4792 33.6618 35.5026 33.7355 35.5495 C 33.8092 35.5963 33.8611 35.6607 33.8911 35.7426 L 33.7703 35.7989 C 33.7156 35.6781 33.6088 35.606 33.4848 35.606 C 33.3613 35.606 33.2786 35.6781 33.2786 35.7764 C 33.2786 35.8811 33.3733 35.9209 33.4417 35.9403 L 33.6205 35.9922 C 33.795 36.0427 33.8972 36.1532 33.8972 36.297 C 33.8972 36.4141 33.8274 36.5115 33.7133 36.5636 C 33.6563 36.5897 33.5909 36.6027 33.517 36.6027 Z  M 34.5314 36.5785 L 34.5314 35.0785 L 35.0219 35.0785 C 35.3182 35.0785 35.542 35.2057 35.6617 35.4299 C 35.7216 35.5419 35.7515 35.6745 35.7515 35.8275 C 35.7515 36.1309 35.6266 36.3624 35.408 36.4859 C 35.2988 36.5477 35.1701 36.5785 35.0219 36.5785 Z  M 34.6804 36.4396 L 35.0211 36.4396 C 35.1378 36.4396 35.2392 36.4145 35.3253 36.3643 C 35.4974 36.2639 35.5961 36.0756 35.5961 35.8275 C 35.5961 35.7035 35.5722 35.5959 35.5244 35.5048 C 35.4288 35.3225 35.2525 35.2174 35.0211 35.2174 L 34.6804 35.2174 Z  M 36.4941 36.6027 C 36.3934 36.6027 36.3025 36.5782 36.2215 36.5292 C 36.0593 36.4312 35.9589 36.253 35.9589 36.0377 C 35.9589 35.8219 36.0567 35.6483 36.2132 35.5517 C 36.2915 35.5034 36.3794 35.4792 36.4772 35.4792 C 36.7811 35.4792 36.9717 35.7275 36.9717 35.9906 C 36.9717 36.0174 36.9694 36.0498 36.964 36.0836 L 36.0455 36.0836 L 36.0455 35.9548 L 36.8843 35.9548 L 36.8194 36.0083 C 36.8404 35.8569 36.7733 35.7324 36.6632 35.6618 C 36.6082 35.6265 36.5462 35.6089 36.4772 35.6089 C 36.3381 35.6089 36.2143 35.6856 36.1478 35.8136 C 36.1145 35.8777 36.1005 35.9529 36.1059 36.0393 C 36.0952 36.2122 36.1728 36.3466 36.2949 36.4189 C 36.356 36.455 36.4224 36.473 36.4941 36.473 C 36.6514 36.473 36.7608 36.3902 36.8295 36.2737 L 36.9479 36.3365 C 36.8811 36.4831 36.7091 36.6027 36.4941 36.6027 Z  M 37.5346 36.5785 L 37.1126 35.5034 L 37.2684 35.5034 L 37.6305 36.4565 L 37.5793 36.4565 L 37.9433 35.5034 L 38.1012 35.5034 L 37.6747 36.5785 Z  M 38.7773 36.6027 C 38.6766 36.6027 38.5858 36.5782 38.5047 36.5292 C 38.3425 36.4312 38.2421 36.253 38.2421 36.0377 C 38.2421 35.8219 38.3399 35.6483 38.4964 35.5517 C 38.5747 35.5034 38.6627 35.4792 38.7604 35.4792 C 39.0643 35.4792 39.2549 35.7275 39.2549 35.9906 C 39.2549 36.0174 39.2526 36.0498 39.2472 36.0836 L 38.3287 36.0836 L 38.3287 35.9548 L 39.1675 35.9548 L 39.1027 36.0083 C 39.1236 35.8569 39.0565 35.7324 38.9464 35.6618 C 38.8914 35.6265 38.8294 35.6089 38.7604 35.6089 C 38.6213 35.6089 38.4976 35.6856 38.431 35.8136 C 38.3977 35.8777 38.3837 35.9529 38.3891 36.0393 C 38.3784 36.2122 38.456 36.3466 38.5782 36.4189 C 38.6392 36.455 38.7056 36.473 38.7773 36.473 C 38.9346 36.473 39.044 36.3902 39.1127 36.2737 L 39.2311 36.3365 C 39.1643 36.4831 38.9923 36.6027 38.7773 36.6027 Z  M 39.5287 36.5785 L 39.5287 35.0544 L 39.6676 35.0544 L 39.6676 36.5785 Z  M 40.4879 36.6027 C 40.2844 36.6027 40.1117 36.4986 40.0144 36.3287 C 39.9658 36.2437 39.9415 36.1472 39.9415 36.0393 C 39.9415 35.9323 39.9655 35.8366 40.0136 35.7522 C 40.1097 35.5836 40.2801 35.4792 40.4881 35.4792 C 40.5921 35.4792 40.6851 35.5034 40.7672 35.5517 C 40.9312 35.6483 41.0327 35.8227 41.0327 36.0393 C 41.0327 36.2573 40.9264 36.4336 40.7623 36.5302 C 40.6803 36.5785 40.5888 36.6027 40.4879 36.6027 Z  M 40.4879 36.4646 C 40.5623 36.4646 40.6294 36.446 40.6893 36.4088 C 40.8091 36.3345 40.8845 36.199 40.8845 36.0393 C 40.8845 35.8793 40.8092 35.7476 40.6896 35.6732 C 40.6298 35.6359 40.5626 35.6173 40.4881 35.6173 C 40.3391 35.6173 40.2141 35.6971 40.143 35.8241 C 40.1074 35.8875 40.0896 35.9593 40.0896 36.0393 C 40.0896 36.199 40.167 36.3345 40.2866 36.4088 C 40.3465 36.446 40.4135 36.4646 40.4879 36.4646 Z  M 41.3066 36.9812 L 41.3066 35.5034 L 41.4455 35.5034 L 41.4455 35.7566 L 41.4229 35.716 C 41.5072 35.5715 41.6589 35.4792 41.8482 35.4792 C 41.9498 35.4792 42.0403 35.5036 42.1199 35.5525 C 42.2789 35.6502 42.3777 35.825 42.3777 36.0411 C 42.3777 36.2546 42.2789 36.4312 42.1199 36.5292 C 42.0403 36.5782 41.9498 36.6027 41.8482 36.6027 C 41.6592 36.6027 41.4986 36.5093 41.4229 36.3498 L 41.4455 36.3252 L 41.4455 36.9812 Z  M 41.8417 36.4638 C 41.916 36.4638 41.9823 36.4452 42.0408 36.4081 C 42.1577 36.334 42.2295 36.2009 42.2295 36.0409 C 42.2295 35.8786 42.1576 35.7478 42.0408 35.6737 C 41.9824 35.6366 41.9161 35.6181 41.8419 35.6181 C 41.7677 35.6181 41.7007 35.6366 41.641 35.6737 C 41.5215 35.7478 41.4467 35.8805 41.4467 36.0407 C 41.4467 36.201 41.5215 36.3341 41.641 36.4082 C 41.7007 36.4452 41.7676 36.4638 41.8417 36.4638 Z  M 42.6515 36.5785 L 42.6515 35.5034 L 42.7905 35.5034 L 42.7905 35.7132 L 42.7675 35.683 C 42.8239 35.5552 42.9509 35.4792 43.0937 35.4792 C 43.1769 35.4792 43.2523 35.5029 43.32 35.5503 C 43.3876 35.5977 43.4353 35.6597 43.4629 35.7365 L 43.4227 35.7381 C 43.4479 35.6554 43.4939 35.5916 43.5608 35.5466 C 43.6276 35.5017 43.702 35.4792 43.7839 35.4792 C 43.9272 35.4792 44.055 35.552 44.1286 35.6731 C 44.1654 35.7336 44.1837 35.8023 44.1837 35.8791 L 44.1837 36.5785 L 44.0448 36.5785 L 44.0448 35.9278 C 44.0448 35.8623 44.0326 35.8066 44.0082 35.7609 C 43.9593 35.6693 43.8735 35.6173 43.7678 35.6173 C 43.6075 35.6173 43.4871 35.7417 43.4871 35.9358 L 43.4871 36.5785 L 43.3482 36.5785 L 43.3482 35.9278 C 43.3482 35.7968 43.2956 35.7047 43.2127 35.6548 C 43.1712 35.6298 43.124 35.6173 43.0711 35.6173 C 42.9076 35.6173 42.7905 35.7417 42.7905 35.9358 L 42.7905 36.5785 Z  M 44.9706 36.6027 C 44.8699 36.6027 44.779 36.5782 44.698 36.5292 C 44.5358 36.4312 44.4354 36.253 44.4354 36.0377 C 44.4354 35.8219 44.5332 35.6483 44.6897 35.5517 C 44.768 35.5034 44.856 35.4792 44.9537 35.4792 C 45.2576 35.4792 45.4482 35.7275 45.4482 35.9906 C 45.4482 36.0174 45.4459 36.0498 45.4405 36.0836 L 44.522 36.0836 L 44.522 35.9548 L 45.3608 35.9548 L 45.296 36.0083 C 45.3169 35.8569 45.2498 35.7324 45.1397 35.6618 C 45.0847 35.6265 45.0227 35.6089 44.9537 35.6089 C 44.8146 35.6089 44.6909 35.6856 44.6243 35.8136 C 44.591 35.8777 44.577 35.9529 44.5824 36.0393 C 44.5717 36.2122 44.6493 36.3466 44.7715 36.4189 C 44.8325 36.455 44.8989 36.473 44.9706 36.473 C 45.1279 36.473 45.2373 36.3902 45.306 36.2737 L 45.4244 36.3365 C 45.3576 36.4831 45.1856 36.6027 44.9706 36.6027 Z  M 45.722 36.5785 L 45.722 35.5034 L 45.8609 35.5034 L 45.8609 35.7156 L 45.8287 35.7071 C 45.8803 35.567 46.0115 35.4792 46.1742 35.4792 C 46.2496 35.4792 46.3178 35.4964 46.3788 35.5307 C 46.5007 35.5995 46.5777 35.7255 46.5777 35.8791 L 46.5777 36.5785 L 46.4388 36.5785 L 46.4388 35.9278 C 46.4388 35.7968 46.3872 35.7047 46.3005 35.6548 C 46.2571 35.6298 46.2075 35.6173 46.1517 35.6173 C 45.9793 35.6173 45.8609 35.7417 45.8609 35.9358 L 45.8609 36.5785 Z  M 47.2772 36.5906 C 47.0898 36.5906 46.9844 36.4795 46.9844 36.2765 L 46.9844 35.6403 L 46.7847 35.6403 L 46.7847 35.5034 L 46.8451 35.5034 C 46.9321 35.5034 46.9844 35.4424 46.9844 35.3544 L 46.9844 35.2537 L 47.1233 35.2537 L 47.1233 35.5034 L 47.3593 35.5034 L 47.3593 35.6403 L 47.1233 35.6403 L 47.1233 36.2765 C 47.1233 36.378 47.1628 36.4605 47.2997 36.4605 C 47.3212 36.4605 47.3557 36.4572 47.3766 36.4545 L 47.3766 36.5785 C 47.3455 36.5866 47.2997 36.5906 47.2772 36.5906 Z" fill="#b1dad7"/>
<path d="M 39.2871 39.4285 L 39.2871 37.9285 L 39.416 37.9285 L 39.9781 38.7524 L 39.9092 38.7524 L 40.471 37.9285 L 40.5998 37.9285 L 40.5998 39.4285 L 40.4509 39.4285 L 40.4509 38.1359 L 40.4952 38.1552 L 39.9471 38.959 L 39.9398 38.959 L 39.3926 38.1552 L 39.4361 38.1359 L 39.4361 39.4285 Z  M 41.2498 39.4527 C 41.0468 39.4527 40.8958 39.327 40.8958 39.1499 C 40.8958 38.9856 40.9993 38.8523 41.2401 38.812 L 41.667 38.7407 L 41.667 38.8676 L 41.2752 38.9328 C 41.1087 38.9613 41.0432 39.0422 41.0432 39.1442 C 41.0432 39.1963 41.0635 39.2397 41.104 39.2743 C 41.1445 39.3089 41.1964 39.3262 41.2594 39.3262 C 41.3349 39.3262 41.4006 39.3097 41.4566 39.2767 C 41.5685 39.2107 41.6347 39.0938 41.6347 38.959 L 41.6347 38.6888 C 41.6347 38.6214 41.6105 38.5668 41.5621 38.5251 C 41.5136 38.4834 41.4503 38.4625 41.3722 38.4625 C 41.2396 38.4625 41.1318 38.5351 41.0803 38.6409 L 40.9546 38.5728 C 40.9747 38.5283 41.0062 38.4875 41.049 38.4506 C 41.1347 38.3768 41.2503 38.3292 41.3722 38.3292 C 41.6082 38.3292 41.7737 38.477 41.7737 38.6888 L 41.7737 39.4285 L 41.6347 39.4285 L 41.6347 39.2099 L 41.6541 39.2276 C 41.617 39.3097 41.5339 39.3813 41.4266 39.4221 C 41.3729 39.4425 41.3139 39.4527 41.2498 39.4527 Z  M 42.0918 39.4285 L 42.0918 38.3534 L 42.2307 38.3534 L 42.2307 38.5656 L 42.1985 38.5571 C 42.2501 38.417 42.3813 38.3292 42.544 38.3292 C 42.6194 38.3292 42.6876 38.3464 42.7486 38.3807 C 42.8705 38.4495 42.9475 38.5755 42.9475 38.7291 L 42.9475 39.4285 L 42.8086 39.4285 L 42.8086 38.7778 C 42.8086 38.6468 42.757 38.5547 42.6703 38.5048 C 42.6269 38.4798 42.5773 38.4673 42.5215 38.4673 C 42.3491 38.4673 42.2307 38.5917 42.2307 38.7858 L 42.2307 39.4285 Z  M 43.5531 39.4527 C 43.3502 39.4527 43.1992 39.327 43.1992 39.1499 C 43.1992 38.9856 43.3027 38.8523 43.5435 38.812 L 43.9703 38.7407 L 43.9703 38.8676 L 43.5785 38.9328 C 43.4121 38.9613 43.3466 39.0422 43.3466 39.1442 C 43.3466 39.1963 43.3668 39.2397 43.4074 39.2743 C 43.4479 39.3089 43.4997 39.3262 43.5628 39.3262 C 43.6382 39.3262 43.7039 39.3097 43.7599 39.2767 C 43.8719 39.2107 43.9381 39.0938 43.9381 38.959 L 43.9381 38.6888 C 43.9381 38.6214 43.9139 38.5668 43.8654 38.5251 C 43.817 38.4834 43.7537 38.4625 43.6756 38.4625 C 43.5429 38.4625 43.4352 38.5351 43.3836 38.6409 L 43.258 38.5728 C 43.2781 38.5283 43.3096 38.4875 43.3524 38.4506 C 43.438 38.3768 43.5537 38.3292 43.6756 38.3292 C 43.9115 38.3292 44.077 38.477 44.077 38.6888 L 44.077 39.4285 L 43.9381 39.4285 L 43.9381 39.2099 L 43.9574 39.2276 C 43.9204 39.3097 43.8373 39.3813 43.7299 39.4221 C 43.6762 39.4425 43.6173 39.4527 43.5531 39.4527 Z  M 44.9021 39.8715 C 44.6839 39.8715 44.5103 39.7623 44.437 39.6085 L 44.5635 39.5401 C 44.6134 39.648 44.7292 39.7338 44.8989 39.7338 C 45.031 39.7338 45.1493 39.6817 45.2188 39.5789 C 45.2536 39.5275 45.271 39.4637 45.271 39.3874 L 45.271 39.135 L 45.2943 39.1595 C 45.2568 39.2393 45.2006 39.3013 45.1258 39.3458 C 45.0511 39.3902 44.9686 39.4124 44.8784 39.4124 C 44.6781 39.4124 44.5115 39.3085 44.4197 39.1442 C 44.3738 39.0621 44.3509 38.9709 44.3509 38.8708 C 44.3509 38.6684 44.4489 38.4983 44.6076 38.4017 C 44.6869 38.3534 44.7772 38.3292 44.8784 38.3292 C 45.0588 38.3292 45.2127 38.4215 45.2943 38.566 L 45.271 38.6066 L 45.271 38.3534 L 45.4099 38.3534 L 45.4099 39.3874 C 45.4099 39.5727 45.3181 39.7244 45.1651 39.8085 C 45.0886 39.8505 45.0009 39.8715 44.9021 39.8715 Z  M 44.8848 39.2735 C 45.0292 39.2735 45.1486 39.195 45.2178 39.0726 C 45.2525 39.0113 45.2698 38.9441 45.2698 38.8708 C 45.2698 38.7237 45.1947 38.5954 45.0795 38.5227 C 45.0219 38.4863 44.957 38.4681 44.8848 38.4681 C 44.8115 38.4681 44.7456 38.4863 44.6869 38.5227 C 44.5696 38.5954 44.499 38.7221 44.499 38.8708 C 44.499 39.0174 44.5698 39.1462 44.6861 39.2189 C 44.7442 39.2553 44.8105 39.2735 44.8848 39.2735 Z  M 46.2189 39.4527 C 46.1182 39.4527 46.0274 39.4282 45.9463 39.3792 C 45.7841 39.2812 45.6837 39.103 45.6837 38.8877 C 45.6837 38.6719 45.7815 38.4983 45.938 38.4017 C 46.0163 38.3534 46.1043 38.3292 46.202 38.3292 C 46.5059 38.3292 46.6965 38.5775 46.6965 38.8406 C 46.6965 38.8674 46.6942 38.8998 46.6888 38.9336 L 45.7703 38.9336 L 45.7703 38.8048 L 46.6091 38.8048 L 46.5443 38.8583 C 46.5652 38.7069 46.4981 38.5824 46.388 38.5118 C 46.333 38.4765 46.271 38.4589 46.202 38.4589 C 46.0629 38.4589 45.9392 38.5356 45.8726 38.6636 C 45.8393 38.7277 45.8254 38.8029 45.8307 38.8893 C 45.82 39.0622 45.8976 39.1966 46.0198 39.2689 C 46.0809 39.305 46.1472 39.323 46.2189 39.323 C 46.3762 39.323 46.4856 39.2402 46.5543 39.1237 L 46.6727 39.1865 C 46.6059 39.3331 46.4339 39.4527 46.2189 39.4527 Z  M 46.9703 39.4285 L 46.9703 38.3534 L 47.1092 38.3534 L 47.1092 38.5398 L 47.0883 38.5168 C 47.1372 38.4068 47.2478 38.3397 47.3976 38.3397 L 47.4656 38.3397 L 47.4656 38.4786 L 47.3762 38.4786 C 47.213 38.4786 47.1092 38.5872 47.1092 38.7681 L 47.1092 39.4285 Z" fill="#b1dad7"/>
<path d="M 57.7054 20.97 L 57.7054 19.95 L 58.0765 19.95 C 58.2818 19.95 58.4242 20.0691 58.4242 20.269 C 58.4242 20.4004 58.3612 20.4972 58.2572 20.5483 C 58.2052 20.5739 58.1449 20.5866 58.0765 20.5866 L 57.8663 20.5866 L 57.8663 20.97 Z  M 57.8663 20.4429 L 58.0799 20.4429 C 58.1908 20.4429 58.2633 20.3737 58.2633 20.2683 C 58.2633 20.1615 58.1908 20.0938 58.0799 20.0938 L 57.8663 20.0938 Z  M 59.0099 20.97 L 59.0099 19.95 L 59.1708 19.95 L 59.1708 20.3998 L 59.6431 20.3998 L 59.6431 19.95 L 59.804 19.95 L 59.804 20.97 L 59.6431 20.97 L 59.6431 20.5435 L 59.1708 20.5435 L 59.1708 20.97 Z  M 60.9304 20.9864 C 60.7826 20.9864 60.6524 20.9314 60.557 20.8365 C 60.4616 20.7416 60.4047 20.6108 60.4047 20.4593 C 60.4047 20.3078 60.4609 20.1769 60.5563 20.0825 C 60.6517 19.988 60.7817 19.9336 60.9304 19.9336 C 61.228 19.9336 61.4562 20.1563 61.4562 20.4593 C 61.4562 20.6108 61.3993 20.7416 61.3039 20.8365 C 61.2085 20.9314 61.0783 20.9864 60.9304 20.9864 Z  M 60.9304 20.8392 C 61.1422 20.8392 61.2953 20.6747 61.2953 20.4593 C 61.2953 20.2991 61.2091 20.166 61.0763 20.1092 C 61.032 20.0902 60.9834 20.0808 60.9304 20.0808 C 60.8246 20.0808 60.7347 20.1202 60.6689 20.1896 C 60.6032 20.259 60.5656 20.3525 60.5656 20.4593 C 60.5656 20.6747 60.7205 20.8392 60.9304 20.8392 Z  M 62.0569 20.97 L 62.0569 19.95 L 62.1863 19.95 L 62.7593 20.74 L 62.697 20.7503 L 62.697 19.95 L 62.8579 19.95 L 62.8579 20.97 L 62.7278 20.97 L 62.1596 20.1745 L 62.2178 20.1643 L 62.2178 20.97 Z  M 63.4887 20.97 L 63.4887 19.95 L 64.1603 19.95 L 64.1603 20.0938 L 63.6496 20.0938 L 63.6496 20.3868 L 64.1329 20.3868 L 64.1329 20.5305 L 63.6496 20.5305 L 63.6496 20.8262 L 64.1603 20.8262 L 64.1603 20.97 Z" fill="#79c0ba"/>
<path d="M 58.5528 24.6614 C 58.245 24.6614 58.0054 24.4835 57.8757 24.1814 C 57.8108 24.0303 57.7784 23.8543 57.7784 23.6535 C 57.7784 23.2518 57.9149 22.9416 58.1459 22.7741 C 58.2614 22.6904 58.3962 22.6486 58.5502 22.6486 C 58.8591 22.6486 59.0962 22.8244 59.2258 23.1263 C 59.2905 23.2772 59.3229 23.453 59.3229 23.6537 C 59.3229 24.055 59.1888 24.3677 58.9575 24.5355 C 58.8419 24.6195 58.707 24.6614 58.5528 24.6614 Z  M 58.553 24.4353 C 58.872 24.4353 59.0813 24.1259 59.0813 23.6537 C 59.0813 23.3389 58.9887 23.0997 58.8306 22.9711 C 58.7516 22.9068 58.6581 22.8747 58.5503 22.8747 C 58.2316 22.8747 58.0221 23.1815 58.0221 23.6537 C 58.0221 23.965 58.1144 24.2073 58.2739 24.3376 C 58.3537 24.4028 58.4467 24.4353 58.553 24.4353 Z  M 60.5838 24.63 L 60.5838 24.1767 L 59.6143 24.1767 L 59.6143 23.9768 L 60.5792 22.68 L 60.806 22.68 L 60.806 23.9768 L 61.0552 23.9768 L 61.0552 24.1767 L 60.806 24.1767 L 60.806 24.63 Z  M 59.7977 24.065 L 59.765 23.9768 L 60.5838 23.9768 L 60.5838 22.884 L 60.6557 22.9046 Z  M 61.3095 24.63 L 61.3095 24.4671 L 61.8502 23.8782 C 62.0619 23.648 62.1877 23.5126 62.2495 23.3943 C 62.2803 23.3351 62.2958 23.2718 62.2958 23.2043 C 62.2958 22.9864 62.156 22.8639 61.9444 22.8639 C 61.7264 22.8639 61.5689 22.9932 61.5137 23.2183 L 61.2942 23.1636 C 61.339 22.9526 61.4645 22.7972 61.6443 22.7123 C 61.7342 22.6698 61.8335 22.6486 61.9422 22.6486 C 62.1803 22.6486 62.3628 22.748 62.4638 22.912 C 62.5143 22.9941 62.5395 23.0886 62.5395 23.1956 C 62.5395 23.341 62.4807 23.4699 62.3625 23.6236 C 62.3034 23.7005 62.2274 23.7891 62.1345 23.8895 L 61.648 24.4193 L 62.5859 24.4193 L 62.5859 24.63 Z  M 63.5014 24.6614 C 63.1941 24.6614 62.9385 24.491 62.8445 24.2176 L 63.0455 24.1318 C 63.1221 24.3281 63.2926 24.4461 63.5014 24.4461 C 63.7513 24.4461 63.9278 24.2959 63.9278 24.0359 C 63.9278 23.7759 63.75 23.6292 63.4993 23.6292 C 63.4484 23.6292 63.384 23.6353 63.3442 23.6466 L 63.2932 23.5366 L 63.8147 22.8907 L 62.9407 22.8907 L 62.9407 22.68 L 64.0887 22.68 L 64.0887 22.8861 L 63.593 23.5 L 63.5737 23.4431 C 63.6906 23.446 63.794 23.4729 63.884 23.5237 C 64.064 23.6255 64.1716 23.8034 64.1716 24.0332 C 64.1716 24.2684 64.0509 24.4669 63.8489 24.578 C 63.7479 24.6336 63.6321 24.6614 63.5014 24.6614 Z  M 65.5483 24.6614 C 65.241 24.6614 64.9853 24.491 64.8914 24.2176 L 65.0923 24.1318 C 65.1689 24.3281 65.3394 24.4461 65.5483 24.4461 C 65.7981 24.4461 65.9747 24.2959 65.9747 24.0359 C 65.9747 23.7759 65.7969 23.6292 65.5461 23.6292 C 65.4953 23.6292 65.4308 23.6353 65.391 23.6466 L 65.34 23.5366 L 65.8615 22.8907 L 64.9876 22.8907 L 64.9876 22.68 L 66.1356 22.68 L 66.1356 22.8861 L 65.6398 23.5 L 65.6205 23.4431 C 65.7374 23.446 65.8409 23.4729 65.9309 23.5237 C 66.1108 23.6255 66.2184 23.8034 66.2184 24.0332 C 66.2184 24.2684 66.0977 24.4669 65.8957 24.578 C 65.7948 24.6336 65.6789 24.6614 65.5483 24.6614 Z  M 67.3291 24.6614 C 67.0213 24.6614 66.7817 24.4835 66.652 24.1814 C 66.5871 24.0303 66.5547 23.8543 66.5547 23.6535 C 66.5547 23.2518 66.6912 22.9416 66.9222 22.7741 C 67.0377 22.6904 67.1725 22.6486 67.3265 22.6486 C 67.6355 22.6486 67.8725 22.8244 68.0021 23.1263 C 68.0669 23.2772 68.0992 23.453 68.0992 23.6537 C 68.0992 24.055 67.9651 24.3677 67.7338 24.5355 C 67.6182 24.6195 67.4833 24.6614 67.3291 24.6614 Z  M 67.3294 24.4353 C 67.6484 24.4353 67.8577 24.1259 67.8577 23.6537 C 67.8577 23.3389 67.765 23.0997 67.6069 22.9711 C 67.5279 22.9068 67.4345 22.8747 67.3266 22.8747 C 67.0079 22.8747 66.7984 23.1815 66.7984 23.6537 C 66.7984 23.965 66.8907 24.2073 67.0502 24.3376 C 67.13 24.4028 67.223 24.4353 67.3294 24.4353 Z  M 69.0452 24.6614 C 68.7379 24.6614 68.4822 24.491 68.3883 24.2176 L 68.5892 24.1318 C 68.6658 24.3281 68.8363 24.4461 69.0452 24.4461 C 69.295 24.4461 69.4716 24.2959 69.4716 24.0359 C 69.4716 23.7759 69.2938 23.6292 69.043 23.6292 C 68.9922 23.6292 68.9277 23.6353 68.8879 23.6466 L 68.8369 23.5366 L 69.3584 22.8907 L 68.4845 22.8907 L 68.4845 22.68 L 69.6325 22.68 L 69.6325 22.8861 L 69.1367 23.5 L 69.1174 23.4431 C 69.2343 23.446 69.3378 23.4729 69.4278 23.5237 C 69.6077 23.6255 69.7153 23.8034 69.7153 24.0332 C 69.7153 24.2684 69.5946 24.4669 69.3927 24.578 C 69.2917 24.6336 69.1758 24.6614 69.0452 24.6614 Z  M 71.1107 24.6614 C 70.8061 24.6614 70.5453 24.4933 70.4522 24.2199 L 70.6467 24.1341 C 70.6844 24.2322 70.746 24.3088 70.8317 24.3637 C 70.9174 24.4187 71.0104 24.4461 71.1107 24.4461 C 71.3544 24.4461 71.5309 24.2605 71.5309 24.0168 C 71.5309 23.7645 71.3522 23.5879 71.1128 23.5879 C 71.0313 23.5879 70.9564 23.6065 70.8881 23.6436 C 70.8198 23.6807 70.77 23.7272 70.7387 23.7831 L 70.5445 23.7434 L 70.6929 22.68 L 71.6975 22.68 L 71.6975 22.8907 L 70.7844 22.8907 L 70.8779 22.8003 L 70.7619 23.629 L 70.6757 23.5818 C 70.7918 23.433 70.9564 23.3729 71.1348 23.3729 C 71.3879 23.3729 71.5844 23.4981 71.6931 23.6915 C 71.7475 23.7882 71.7747 23.8966 71.7747 24.0168 C 71.7747 24.26 71.6518 24.4644 71.4518 24.577 C 71.3519 24.6333 71.2382 24.6614 71.1107 24.6614 Z  M 72.8886 24.6614 C 72.5807 24.6614 72.3412 24.4835 72.2115 24.1814 C 72.1466 24.0303 72.1142 23.8543 72.1142 23.6535 C 72.1142 23.2518 72.2507 22.9416 72.4817 22.7741 C 72.5972 22.6904 72.732 22.6486 72.886 22.6486 C 73.1949 22.6486 73.432 22.8244 73.5615 23.1263 C 73.6263 23.2772 73.6587 23.453 73.6587 23.6537 C 73.6587 24.055 73.5245 24.3677 73.2933 24.5355 C 73.1777 24.6195 73.0428 24.6614 72.8886 24.6614 Z  M 72.8888 24.4353 C 73.2078 24.4353 73.4171 24.1259 73.4171 23.6537 C 73.4171 23.3389 73.3245 23.0997 73.1664 22.9711 C 73.0874 22.9068 72.9939 22.8747 72.886 22.8747 C 72.5674 22.8747 72.3579 23.1815 72.3579 23.6537 C 72.3579 23.965 72.4502 24.2073 72.6097 24.3376 C 72.6894 24.4028 72.7825 24.4353 72.8888 24.4353 Z  M 74.7889 24.6614 C 74.481 24.6614 74.2415 24.4835 74.1117 24.1814 C 74.0469 24.0303 74.0144 23.8543 74.0144 23.6535 C 74.0144 23.2518 74.1509 22.9416 74.382 22.7741 C 74.4975 22.6904 74.6322 22.6486 74.7862 22.6486 C 75.0952 22.6486 75.3322 22.8244 75.4618 23.1263 C 75.5266 23.2772 75.559 23.453 75.559 23.6537 C 75.559 24.055 75.4248 24.3677 75.1935 24.5355 C 75.0779 24.6195 74.943 24.6614 74.7889 24.6614 Z  M 74.7891 24.4353 C 75.1081 24.4353 75.3174 24.1259 75.3174 23.6537 C 75.3174 23.3389 75.2247 23.0997 75.0667 22.9711 C 74.9876 22.9068 74.8942 22.8747 74.7863 22.8747 C 74.4676 22.8747 74.2582 23.1815 74.2582 23.6537 C 74.2582 23.965 74.3505 24.2073 74.51 24.3376 C 74.5897 24.4028 74.6828 24.4353 74.7891 24.4353 Z" fill="#ffffff"/>
<path d="M 57.7054 29.05 L 57.7054 28.03 L 58.377 28.03 L 58.377 28.1738 L 57.8663 28.1738 L 57.8663 28.4668 L 58.3496 28.4668 L 58.3496 28.6105 L 57.8663 28.6105 L 57.8663 28.9062 L 58.377 28.9062 L 58.377 29.05 Z  M 58.9483 29.05 L 58.9483 28.03 L 59.0989 28.03 L 59.4815 28.5612 L 59.4069 28.5612 L 59.7834 28.03 L 59.934 28.03 L 59.934 29.05 L 59.7732 29.05 L 59.7732 28.221 L 59.8334 28.2374 L 59.4494 28.7625 L 59.4329 28.7625 L 59.0564 28.2374 L 59.1091 28.221 L 59.1091 29.05 Z  M 60.4745 29.05 L 60.8332 28.03 L 61.0331 28.03 L 61.3918 29.05 L 61.2186 29.05 L 61.1406 28.8214 L 60.7258 28.8214 L 60.647 29.05 Z  M 60.773 28.6776 L 61.092 28.6776 L 60.9106 28.1436 L 60.9558 28.1436 Z  M 61.9323 29.05 L 61.9323 28.03 L 62.0932 28.03 L 62.0932 29.05 Z  M 62.7247 29.05 L 62.7247 28.03 L 62.8856 28.03 L 62.8856 28.9062 L 63.3271 28.9062 L 63.3271 29.05 Z" fill="#79c0ba"/>
<path d="M 58.4576 32.7414 C 58.3235 32.7414 58.2016 32.7095 58.092 32.6456 C 57.8729 32.518 57.7339 32.2874 57.7339 32.0041 C 57.7339 31.723 57.8711 31.4945 58.0888 31.3668 C 58.1977 31.303 58.3206 31.2711 58.4576 31.2711 C 58.7317 31.2711 58.9576 31.4053 59.084 31.6258 C 59.1471 31.736 59.1787 31.8621 59.1787 32.0041 C 59.1787 32.2902 59.0371 32.5205 58.8197 32.6467 C 58.711 32.7098 58.5903 32.7414 58.4576 32.7414 Z  M 58.4576 32.5176 C 58.6381 32.5176 58.7878 32.4226 58.8719 32.2665 C 58.9139 32.1885 58.935 32.101 58.935 32.0041 C 58.935 31.8102 58.8448 31.6517 58.7009 31.5621 C 58.629 31.5173 58.5479 31.4948 58.4576 31.4948 C 58.2771 31.4948 58.1273 31.5911 58.0418 31.744 C 57.999 31.8204 57.9776 31.9071 57.9776 32.0041 C 57.9776 32.1979 58.0699 32.3613 58.2141 32.4506 C 58.2862 32.4953 58.3673 32.5176 58.4576 32.5176 Z  M 59.5033 32.71 L 59.5033 31.3025 L 59.7294 31.3025 L 59.7294 31.5765 L 59.689 31.5569 C 59.7582 31.3772 59.9244 31.2711 60.132 31.2711 C 60.334 31.2711 60.4995 31.3673 60.5917 31.5267 C 60.6378 31.6064 60.6608 31.6968 60.6608 31.7979 L 60.6608 32.71 L 60.4302 32.71 L 60.4302 31.875 C 60.4302 31.7144 60.3693 31.602 60.2648 31.5408 C 60.2125 31.5101 60.1524 31.4948 60.0844 31.4948 C 59.8804 31.4948 59.7339 31.6384 59.7339 31.875 L 59.7339 32.71 Z  M 61.0162 32.71 L 61.0162 31.3025 L 61.2422 31.3025 L 61.2422 31.5525 L 61.2161 31.5157 C 61.2818 31.3642 61.4213 31.2846 61.6145 31.2846 L 61.7026 31.2846 L 61.7026 31.5061 L 61.5796 31.5061 C 61.379 31.5061 61.2468 31.6354 61.2468 31.8627 L 61.2468 32.71 Z  M 62.3339 32.7414 C 62.0596 32.7414 61.8642 32.5779 61.8642 32.343 C 61.8642 32.1194 62.008 31.9502 62.3223 31.8979 L 62.8523 31.8099 L 62.8523 32.0071 L 62.3736 32.0877 C 62.187 32.1202 62.108 32.2112 62.108 32.3342 C 62.108 32.3937 62.1314 32.4435 62.1782 32.4838 C 62.225 32.5241 62.2851 32.5442 62.3585 32.5442 C 62.4489 32.5442 62.528 32.5248 62.5955 32.4861 C 62.7307 32.4087 62.8104 32.2704 62.8104 32.1092 L 62.8104 31.7504 C 62.8104 31.6719 62.7815 31.6078 62.7236 31.5582 C 62.6658 31.5086 62.5901 31.4838 62.4967 31.4838 C 62.3311 31.4838 62.1999 31.5762 62.1395 31.7105 L 61.9377 31.6045 C 61.9642 31.5415 62.0062 31.4848 62.0636 31.4344 C 62.1786 31.3336 62.3349 31.2711 62.4999 31.2711 C 62.6059 31.2711 62.6997 31.2914 62.7814 31.3322 C 62.9448 31.4137 63.0411 31.5618 63.0411 31.7504 L 63.0411 32.71 L 62.815 32.71 L 62.815 32.4386 L 62.8543 32.4596 C 62.7719 32.6222 62.5772 32.7414 62.3339 32.7414 Z  M 63.4242 32.71 L 63.4242 31.3025 L 63.6549 31.3025 L 63.6549 32.71 Z  M 63.4242 31.0662 L 63.4242 30.76 L 63.6549 30.76 L 63.6549 31.0662 Z  M 64.5364 32.7414 C 64.398 32.7414 64.277 32.7068 64.1732 32.6377 C 64.0694 32.5686 63.9951 32.4748 63.9503 32.3564 L 64.1368 32.2678 C 64.2158 32.4357 64.3655 32.5419 64.5364 32.5419 C 64.6152 32.5419 64.681 32.523 64.7337 32.4852 C 64.7864 32.4474 64.8128 32.3976 64.8128 32.3359 C 64.8128 32.248 64.7551 32.1984 64.6873 32.1683 C 64.6534 32.1532 64.6222 32.142 64.5937 32.1347 L 64.3848 32.0753 C 64.1308 32.0032 64.0188 31.863 64.0188 31.6836 C 64.0188 31.4339 64.2305 31.2711 64.5023 31.2711 C 64.6247 31.2711 64.735 31.3023 64.8334 31.3649 C 64.9318 31.4274 65.0013 31.5145 65.0421 31.6259 L 64.853 31.7145 C 64.7881 31.5642 64.6527 31.4729 64.4959 31.4729 C 64.3486 31.4729 64.2537 31.5548 64.2537 31.6684 C 64.2537 31.7951 64.3725 31.8387 64.4513 31.8614 L 64.6833 31.9295 C 64.912 31.9964 65.0455 32.1416 65.0455 32.3332 C 65.0455 32.491 64.9535 32.6202 64.801 32.6895 C 64.7247 32.7241 64.6365 32.7414 64.5364 32.7414 Z  M 65.9347 32.7257 C 65.667 32.7257 65.5156 32.5661 65.5156 32.2829 L 65.5156 31.524 L 65.2596 31.524 L 65.2596 31.3025 L 65.3159 31.3025 C 65.4395 31.3025 65.5156 31.2169 65.5156 31.0934 L 65.5156 30.9779 L 65.7462 30.9779 L 65.7462 31.3025 L 66.0597 31.3025 L 66.0597 31.524 L 65.7462 31.524 L 65.7462 32.2783 C 65.7462 32.4206 65.8079 32.515 65.9788 32.515 C 66.0062 32.515 66.0478 32.5106 66.0769 32.5071 L 66.0769 32.71 C 66.0332 32.7199 65.971 32.7257 65.9347 32.7257 Z  M 66.9029 32.7414 C 66.7014 32.7414 66.5333 32.6428 66.4423 32.4749 C 66.3968 32.391 66.3741 32.294 66.3741 32.184 L 66.3741 31.3025 L 66.6047 31.3025 L 66.6047 32.159 C 66.6047 32.3731 66.7471 32.5176 66.9507 32.5176 C 67.1553 32.5176 67.301 32.3731 67.301 32.1374 L 67.301 31.3025 L 67.5316 31.3025 L 67.5316 32.71 L 67.3056 32.71 L 67.3056 32.436 L 67.3459 32.4556 C 67.2796 32.6352 67.1105 32.7414 66.9029 32.7414 Z  M 68.5561 32.7414 C 68.4237 32.7414 68.3046 32.7093 68.199 32.6452 C 67.9878 32.5169 67.8582 32.2848 67.8582 32.0062 C 67.8582 31.8652 67.8887 31.7395 67.9496 31.6291 C 68.0716 31.4083 68.2891 31.2711 68.5556 31.2711 C 68.7909 31.2711 68.9815 31.3783 69.0872 31.5501 L 69.0508 31.6092 L 69.0508 30.7286 L 69.2814 30.7286 L 69.2814 32.71 L 69.0553 32.71 L 69.0553 32.4051 L 69.0877 32.443 C 68.9899 32.6344 68.7889 32.7414 68.5561 32.7414 Z  M 68.5729 32.5176 C 68.6632 32.5176 68.7444 32.4953 68.8165 32.4506 C 68.9606 32.3613 69.0508 32.2001 69.0508 32.0062 C 69.0508 31.8124 68.9606 31.6512 68.8165 31.5619 C 68.7444 31.5172 68.6632 31.4948 68.5729 31.4948 C 68.4841 31.4948 68.4038 31.5173 68.332 31.5621 C 68.1883 31.6517 68.1019 31.8095 68.1019 32.0062 C 68.1019 32.2001 68.1887 32.3613 68.3309 32.4506 C 68.402 32.4953 68.4827 32.5176 68.5729 32.5176 Z  M 69.6642 32.71 L 69.6642 31.3025 L 69.8949 31.3025 L 69.8949 32.71 Z  M 69.6642 31.0662 L 69.6642 30.76 L 69.8949 30.76 L 69.8949 31.0662 Z  M 70.9428 32.7414 C 70.8087 32.7414 70.6868 32.7095 70.5773 32.6456 C 70.3582 32.518 70.2191 32.2874 70.2191 32.0041 C 70.2191 31.723 70.3564 31.4945 70.574 31.3668 C 70.6829 31.303 70.8058 31.2711 70.9428 31.2711 C 71.2169 31.2711 71.4429 31.4053 71.5692 31.6258 C 71.6324 31.736 71.6639 31.8621 71.6639 32.0041 C 71.6639 32.2902 71.5223 32.5205 71.3049 32.6467 C 71.1962 32.7098 71.0755 32.7414 70.9428 32.7414 Z  M 70.9428 32.5176 C 71.1234 32.5176 71.273 32.4226 71.3571 32.2665 C 71.3992 32.1885 71.4202 32.101 71.4202 32.0041 C 71.4202 31.8102 71.33 31.6517 71.1861 31.5621 C 71.1142 31.5173 71.0331 31.4948 70.9428 31.4948 C 70.7623 31.4948 70.6126 31.5911 70.527 31.744 C 70.4843 31.8204 70.4629 31.9071 70.4629 32.0041 C 70.4629 32.1979 70.5551 32.3613 70.6993 32.4506 C 70.7714 32.4953 70.8526 32.5176 70.9428 32.5176 Z  M 73.06 33.2587 C 72.748 33.2587 72.4763 33.144 72.2759 32.945 C 72.0754 32.7461 71.9597 32.4744 71.9597 32.1647 C 71.9597 31.8549 72.0779 31.5846 72.277 31.3886 C 72.476 31.1925 72.7506 31.0771 73.0591 31.0771 C 73.3763 31.0771 73.6478 31.2001 73.8415 31.4005 C 74.0352 31.6008 74.1459 31.8664 74.1459 32.156 C 74.1459 32.4876 73.9799 32.71 73.7067 32.71 C 73.5408 32.71 73.3797 32.6149 73.3495 32.4386 L 73.3959 32.4955 C 73.3204 32.6341 73.1705 32.71 72.9934 32.71 C 72.791 32.71 72.6206 32.6058 72.5255 32.438 C 72.4779 32.3541 72.4541 32.2589 72.4541 32.1525 C 72.4541 31.9402 72.5554 31.7649 72.7192 31.6642 C 72.8011 31.6139 72.8933 31.5887 72.9957 31.5887 C 73.1667 31.5887 73.3153 31.6612 73.3906 31.7826 L 73.3704 31.8277 L 73.3704 31.6149 L 73.5566 31.6149 L 73.5566 32.3235 C 73.5566 32.4514 73.6161 32.5107 73.7107 32.5107 C 73.8494 32.5107 73.929 32.3964 73.929 32.1576 C 73.929 31.6599 73.5823 31.2786 73.06 31.2786 C 72.8053 31.2786 72.5846 31.3711 72.4262 31.5298 C 72.2678 31.6885 72.1766 31.9062 72.1766 32.162 C 72.1766 32.5389 72.378 32.8506 72.7036 32.9883 C 72.8122 33.0342 72.9323 33.0571 73.0639 33.0571 C 73.2228 33.0571 73.3742 33.022 73.4947 32.9526 L 73.5871 33.1266 C 73.4351 33.2147 73.2594 33.2587 73.06 33.2587 Z  M 73.0063 32.5107 C 73.2041 32.5107 73.3456 32.354 73.3456 32.1485 C 73.3456 32.0449 73.3136 31.9598 73.2496 31.8931 C 73.1855 31.8265 73.1046 31.793 73.0068 31.7927 C 72.8784 31.7921 72.7695 31.8581 72.7114 31.9658 C 72.6823 32.0196 72.6678 32.0811 72.6678 32.1502 C 72.6678 32.3523 72.8138 32.5107 73.0063 32.5107 Z  M 75.0888 33.2858 C 74.9903 33.2858 74.8994 33.2704 74.816 33.2395 C 74.6491 33.1777 74.5264 33.0673 74.4642 32.9238 L 74.6769 32.8215 C 74.7033 32.8878 74.7512 32.9445 74.8206 32.9915 C 74.89 33.0385 74.9779 33.062 75.0844 33.062 C 75.33 33.062 75.5303 32.9166 75.5303 32.6514 L 75.5303 32.3371 L 75.5694 32.3774 C 75.4717 32.5725 75.2741 32.6804 75.0509 32.6804 C 74.9198 32.6804 74.8018 32.6492 74.6971 32.5868 C 74.4877 32.4621 74.3599 32.238 74.3599 31.975 C 74.3599 31.8421 74.3899 31.7226 74.45 31.6167 C 74.5701 31.4047 74.7849 31.2711 75.0496 31.2711 C 75.2727 31.2711 75.4613 31.3781 75.5694 31.5543 L 75.5348 31.6161 L 75.5348 31.3025 L 75.7609 31.3025 L 75.7609 32.6514 C 75.7609 32.7727 75.7322 32.8812 75.6747 32.9769 C 75.5598 33.1683 75.3501 33.2858 75.0888 33.2858 Z  M 75.0692 32.4561 C 75.2421 32.4561 75.3852 32.3635 75.4681 32.2176 C 75.5095 32.1447 75.5303 32.0641 75.5303 31.9759 C 75.5303 31.7995 75.44 31.646 75.3019 31.5596 C 75.2329 31.5164 75.1553 31.4948 75.0692 31.4948 C 74.8934 31.4948 74.7448 31.5882 74.6641 31.7329 C 74.6238 31.8053 74.6037 31.8863 74.6037 31.9759 C 74.6037 32.1517 74.6895 32.305 74.8299 32.3913 C 74.9001 32.4345 74.9798 32.4561 75.0692 32.4561 Z  M 76.145 32.71 L 76.145 31.3025 L 76.3711 31.3025 L 76.3711 31.5836 L 76.3383 31.5412 C 76.409 31.3674 76.5741 31.2711 76.7629 31.2711 C 76.873 31.2711 76.9718 31.3015 77.0595 31.3624 C 77.1472 31.4234 77.2082 31.503 77.2424 31.6013 L 77.1773 31.6053 C 77.2144 31.4956 77.2762 31.4125 77.3627 31.3559 C 77.4492 31.2993 77.5459 31.2711 77.6527 31.2711 C 77.8442 31.2711 78.0108 31.3673 78.1059 31.5267 C 78.1534 31.6064 78.1771 31.6968 78.1771 31.7978 L 78.1771 32.71 L 77.9465 32.71 L 77.9465 31.875 C 77.9465 31.7144 77.8852 31.602 77.786 31.5408 C 77.7364 31.5101 77.6789 31.4948 77.6136 31.4948 C 77.4229 31.4948 77.2764 31.6384 77.2764 31.875 L 77.2764 32.71 L 77.0458 32.71 L 77.0458 31.875 C 77.0458 31.7144 76.9844 31.602 76.8852 31.5408 C 76.8356 31.5101 76.7782 31.4948 76.7129 31.4948 C 76.5179 31.4948 76.3757 31.6384 76.3757 31.875 L 76.3757 32.71 Z  M 78.9443 32.7414 C 78.6699 32.7414 78.4746 32.5779 78.4746 32.343 C 78.4746 32.1194 78.6183 31.9502 78.9327 31.8979 L 79.4626 31.8099 L 79.4626 32.0071 L 78.9839 32.0877 C 78.7974 32.1202 78.7183 32.2112 78.7183 32.3342 C 78.7183 32.3937 78.7417 32.4435 78.7885 32.4838 C 78.8354 32.5241 78.8955 32.5442 78.9688 32.5442 C 79.0593 32.5442 79.1383 32.5248 79.2059 32.4861 C 79.341 32.4087 79.4208 32.2704 79.4208 32.1092 L 79.4208 31.7504 C 79.4208 31.6719 79.3918 31.6078 79.334 31.5582 C 79.2761 31.5086 79.2004 31.4838 79.107 31.4838 C 78.9415 31.4838 78.8102 31.5762 78.7498 31.7105 L 78.548 31.6045 C 78.5745 31.5415 78.6165 31.4848 78.674 31.4344 C 78.7889 31.3336 78.9452 31.2711 79.1102 31.2711 C 79.2162 31.2711 79.3101 31.2914 79.3917 31.3322 C 79.5551 31.4137 79.6514 31.5618 79.6514 31.7504 L 79.6514 32.71 L 79.4253 32.71 L 79.4253 32.4386 L 79.4647 32.4596 C 79.3822 32.6222 79.1875 32.7414 78.9443 32.7414 Z  M 80.0346 32.71 L 80.0346 31.3025 L 80.2652 31.3025 L 80.2652 32.71 Z  M 80.0346 31.0662 L 80.0346 30.76 L 80.2652 30.76 L 80.2652 31.0662 Z  M 80.647 32.71 L 80.647 30.7286 L 80.8777 30.7286 L 80.8777 32.71 Z  M 81.3496 32.71 L 81.3496 32.4038 L 81.591 32.4038 L 81.591 32.71 Z  M 82.7149 32.7414 C 82.5761 32.7414 82.4535 32.7091 82.3472 32.6443 C 82.1344 32.5149 82.0055 32.2834 82.0055 32.0036 C 82.0055 31.7238 82.1339 31.4945 82.3469 31.3668 C 82.4535 31.303 82.5761 31.2711 82.7149 31.2711 C 82.8961 31.2711 83.0583 31.3404 83.1788 31.4511 C 83.2391 31.5064 83.2839 31.5707 83.3132 31.6438 L 83.1069 31.7451 C 83.0407 31.5962 82.8944 31.4948 82.7149 31.4948 C 82.5385 31.4948 82.3914 31.588 82.3102 31.7427 C 82.2695 31.82 82.2492 31.9079 82.2492 32.0062 C 82.2492 32.2001 82.3358 32.3613 82.4768 32.4506 C 82.5473 32.4953 82.6267 32.5176 82.7149 32.5176 C 82.895 32.5176 83.0378 32.4177 83.1069 32.2631 L 83.3132 32.3691 C 83.2842 32.4399 83.2395 32.5034 83.1793 32.5596 C 83.0588 32.6721 82.8967 32.7414 82.7149 32.7414 Z  M 84.3049 32.7414 C 84.1708 32.7414 84.0489 32.7095 83.9394 32.6456 C 83.7202 32.518 83.5812 32.2874 83.5812 32.0041 C 83.5812 31.723 83.7184 31.4945 83.9361 31.3668 C 84.045 31.303 84.1679 31.2711 84.3049 31.2711 C 84.579 31.2711 84.8049 31.4053 84.9313 31.6258 C 84.9944 31.736 85.026 31.8621 85.026 32.0041 C 85.026 32.2902 84.8844 32.5205 84.667 32.6467 C 84.5583 32.7098 84.4376 32.7414 84.3049 32.7414 Z  M 84.3049 32.5176 C 84.4854 32.5176 84.6351 32.4226 84.7192 32.2665 C 84.7613 32.1885 84.7823 32.101 84.7823 32.0041 C 84.7823 31.8102 84.6921 31.6517 84.5482 31.5621 C 84.4763 31.5173 84.3952 31.4948 84.3049 31.4948 C 84.1244 31.4948 83.9747 31.5911 83.8891 31.744 C 83.8463 31.8204 83.8249 31.9071 83.8249 32.0041 C 83.8249 32.1979 83.9172 32.3613 84.0614 32.4506 C 84.1335 32.4953 84.2147 32.5176 84.3049 32.5176 Z  M 85.3506 32.71 L 85.3506 31.3025 L 85.5767 31.3025 L 85.5767 31.5836 L 85.5439 31.5412 C 85.6146 31.3674 85.7797 31.2711 85.9685 31.2711 C 86.0785 31.2711 86.1774 31.3015 86.2651 31.3624 C 86.3528 31.4234 86.4138 31.503 86.448 31.6013 L 86.3829 31.6053 C 86.42 31.4956 86.4817 31.4125 86.5683 31.3559 C 86.6548 31.2993 86.7515 31.2711 86.8583 31.2711 C 87.0498 31.2711 87.2164 31.3673 87.3114 31.5267 C 87.359 31.6064 87.3827 31.6968 87.3827 31.7978 L 87.3827 32.71 L 87.1521 32.71 L 87.1521 31.875 C 87.1521 31.7144 87.0907 31.602 86.9915 31.5408 C 86.9419 31.5101 86.8845 31.4948 86.8192 31.4948 C 86.6285 31.4948 86.482 31.6384 86.482 31.875 L 86.482 32.71 L 86.2513 32.71 L 86.2513 31.875 C 86.2513 31.7144 86.19 31.602 86.0908 31.5408 C 86.0412 31.5101 85.9838 31.4948 85.9184 31.4948 C 85.7234 31.4948 85.5813 31.6384 85.5813 31.875 L 85.5813 32.71 Z" fill="#ffffff"/>
<path d="M 57.895 37.13 L 57.6151 36.11 L 57.7855 36.11 L 58.0128 36.9938 L 57.9703 36.9938 L 58.2065 36.11 L 58.3742 36.11 L 58.6097 36.9938 L 58.5666 36.9938 L 58.7946 36.11 L 58.965 36.11 L 58.685 37.13 L 58.5036 37.13 L 58.2661 36.2606 L 58.314 36.2606 L 58.0765 37.13 Z  M 59.5055 37.13 L 59.5055 36.11 L 60.1771 36.11 L 60.1771 36.2538 L 59.6664 36.2538 L 59.6664 36.5468 L 60.1497 36.5468 L 60.1497 36.6905 L 59.6664 36.6905 L 59.6664 36.9862 L 60.1771 36.9862 L 60.1771 37.13 Z  M 60.7483 37.13 L 60.7483 36.11 L 61.1783 36.11 C 61.3699 36.11 61.4877 36.2161 61.4877 36.3872 C 61.4877 36.4849 61.4379 36.5703 61.333 36.6186 L 61.3323 36.5502 C 61.4733 36.6036 61.5294 36.7063 61.5294 36.8226 C 61.5294 36.9185 61.4983 36.9937 61.436 37.0482 C 61.3737 37.1027 61.288 37.13 61.1789 37.13 Z  M 60.9092 36.9862 L 61.1913 36.9862 C 61.299 36.9862 61.3686 36.9228 61.3686 36.8233 C 61.3686 36.7238 61.299 36.659 61.1913 36.659 L 60.9092 36.659 Z  M 60.9092 36.5173 L 61.1817 36.5173 C 61.2693 36.5173 61.3268 36.4616 61.3268 36.3804 C 61.3268 36.2983 61.2693 36.2503 61.1817 36.2503 L 60.9092 36.2503 Z" fill="#79c0ba"/>
<path d="M 58.4576 40.8214 C 58.3235 40.8214 58.2016 40.7895 58.092 40.7256 C 57.8729 40.598 57.7339 40.3674 57.7339 40.0841 C 57.7339 39.803 57.8711 39.5745 58.0888 39.4468 C 58.1977 39.383 58.3206 39.3511 58.4576 39.3511 C 58.7317 39.3511 58.9576 39.4853 59.084 39.7058 C 59.1471 39.816 59.1787 39.9421 59.1787 40.0841 C 59.1787 40.3702 59.0371 40.6005 58.8197 40.7267 C 58.711 40.7898 58.5903 40.8214 58.4576 40.8214 Z  M 58.4576 40.5976 C 58.6381 40.5976 58.7878 40.5026 58.8719 40.3465 C 58.9139 40.2685 58.935 40.181 58.935 40.0841 C 58.935 39.8902 58.8448 39.7317 58.7009 39.6421 C 58.629 39.5973 58.5479 39.5748 58.4576 39.5748 C 58.2771 39.5748 58.1273 39.6711 58.0418 39.824 C 57.999 39.9004 57.9776 39.9871 57.9776 40.0841 C 57.9776 40.2779 58.0699 40.4413 58.2141 40.5306 C 58.2862 40.5753 58.3673 40.5976 58.4576 40.5976 Z  M 59.5033 40.79 L 59.5033 39.3825 L 59.7294 39.3825 L 59.7294 39.6565 L 59.689 39.6369 C 59.7582 39.4572 59.9244 39.3511 60.132 39.3511 C 60.334 39.3511 60.4995 39.4473 60.5917 39.6067 C 60.6378 39.6864 60.6608 39.7768 60.6608 39.8779 L 60.6608 40.79 L 60.4302 40.79 L 60.4302 39.955 C 60.4302 39.7944 60.3693 39.682 60.2648 39.6208 C 60.2125 39.5901 60.1524 39.5748 60.0844 39.5748 C 59.8804 39.5748 59.7339 39.7184 59.7339 39.955 L 59.7339 40.79 Z  M 61.0162 40.79 L 61.0162 39.3825 L 61.2422 39.3825 L 61.2422 39.6325 L 61.2161 39.5957 C 61.2818 39.4442 61.4213 39.3646 61.6145 39.3646 L 61.7026 39.3646 L 61.7026 39.5861 L 61.5796 39.5861 C 61.379 39.5861 61.2468 39.7154 61.2468 39.9427 L 61.2468 40.79 Z  M 62.3339 40.8214 C 62.0596 40.8214 61.8642 40.6579 61.8642 40.423 C 61.8642 40.1994 62.008 40.0302 62.3223 39.9779 L 62.8523 39.8899 L 62.8523 40.0871 L 62.3736 40.1677 C 62.187 40.2002 62.108 40.2912 62.108 40.4142 C 62.108 40.4737 62.1314 40.5235 62.1782 40.5638 C 62.225 40.6041 62.2851 40.6242 62.3585 40.6242 C 62.4489 40.6242 62.528 40.6048 62.5955 40.5661 C 62.7307 40.4887 62.8104 40.3504 62.8104 40.1892 L 62.8104 39.8304 C 62.8104 39.7519 62.7815 39.6878 62.7236 39.6382 C 62.6658 39.5886 62.5901 39.5638 62.4967 39.5638 C 62.3311 39.5638 62.1999 39.6562 62.1395 39.7905 L 61.9377 39.6845 C 61.9642 39.6215 62.0062 39.5648 62.0636 39.5144 C 62.1786 39.4136 62.3349 39.3511 62.4999 39.3511 C 62.6059 39.3511 62.6997 39.3714 62.7814 39.4122 C 62.9448 39.4937 63.0411 39.6418 63.0411 39.8304 L 63.0411 40.79 L 62.815 40.79 L 62.815 40.5186 L 62.8543 40.5396 C 62.7719 40.7022 62.5772 40.8214 62.3339 40.8214 Z  M 63.4242 40.79 L 63.4242 39.3825 L 63.6549 39.3825 L 63.6549 40.79 Z  M 63.4242 39.1462 L 63.4242 38.84 L 63.6549 38.84 L 63.6549 39.1462 Z  M 64.5364 40.8214 C 64.398 40.8214 64.277 40.7868 64.1732 40.7177 C 64.0694 40.6486 63.9951 40.5548 63.9503 40.4364 L 64.1368 40.3478 C 64.2158 40.5157 64.3655 40.6219 64.5364 40.6219 C 64.6152 40.6219 64.681 40.603 64.7337 40.5652 C 64.7864 40.5274 64.8128 40.4776 64.8128 40.4159 C 64.8128 40.328 64.7551 40.2784 64.6873 40.2483 C 64.6534 40.2332 64.6222 40.222 64.5937 40.2147 L 64.3848 40.1553 C 64.1308 40.0832 64.0188 39.943 64.0188 39.7636 C 64.0188 39.5139 64.2305 39.3511 64.5023 39.3511 C 64.6247 39.3511 64.735 39.3823 64.8334 39.4449 C 64.9318 39.5074 65.0013 39.5945 65.0421 39.7059 L 64.853 39.7945 C 64.7881 39.6442 64.6527 39.5529 64.4959 39.5529 C 64.3486 39.5529 64.2537 39.6348 64.2537 39.7484 C 64.2537 39.8751 64.3725 39.9187 64.4513 39.9414 L 64.6833 40.0095 C 64.912 40.0764 65.0455 40.2216 65.0455 40.4132 C 65.0455 40.571 64.9535 40.7002 64.801 40.7695 C 64.7247 40.8041 64.6365 40.8214 64.5364 40.8214 Z  M 65.9347 40.8057 C 65.667 40.8057 65.5156 40.6461 65.5156 40.3629 L 65.5156 39.604 L 65.2596 39.604 L 65.2596 39.3825 L 65.3159 39.3825 C 65.4395 39.3825 65.5156 39.2969 65.5156 39.1734 L 65.5156 39.0579 L 65.7462 39.0579 L 65.7462 39.3825 L 66.0597 39.3825 L 66.0597 39.604 L 65.7462 39.604 L 65.7462 40.3583 C 65.7462 40.5006 65.8079 40.595 65.9788 40.595 C 66.0062 40.595 66.0478 40.5906 66.0769 40.5871 L 66.0769 40.79 C 66.0332 40.7999 65.971 40.8057 65.9347 40.8057 Z  M 66.9029 40.8214 C 66.7014 40.8214 66.5333 40.7228 66.4423 40.5549 C 66.3968 40.471 66.3741 40.374 66.3741 40.264 L 66.3741 39.3825 L 66.6047 39.3825 L 66.6047 40.239 C 66.6047 40.4531 66.7471 40.5976 66.9507 40.5976 C 67.1553 40.5976 67.301 40.4531 67.301 40.2174 L 67.301 39.3825 L 67.5316 39.3825 L 67.5316 40.79 L 67.3056 40.79 L 67.3056 40.516 L 67.3459 40.5356 C 67.2796 40.7152 67.1105 40.8214 66.9029 40.8214 Z  M 68.5561 40.8214 C 68.4237 40.8214 68.3046 40.7893 68.199 40.7252 C 67.9878 40.5969 67.8582 40.3648 67.8582 40.0862 C 67.8582 39.9452 67.8887 39.8195 67.9496 39.7091 C 68.0716 39.4883 68.2891 39.3511 68.5556 39.3511 C 68.7909 39.3511 68.9815 39.4583 69.0872 39.6301 L 69.0508 39.6892 L 69.0508 38.8086 L 69.2814 38.8086 L 69.2814 40.79 L 69.0553 40.79 L 69.0553 40.4851 L 69.0877 40.523 C 68.9899 40.7144 68.7889 40.8214 68.5561 40.8214 Z  M 68.5729 40.5976 C 68.6632 40.5976 68.7444 40.5753 68.8165 40.5306 C 68.9606 40.4413 69.0508 40.2801 69.0508 40.0862 C 69.0508 39.8924 68.9606 39.7312 68.8165 39.6419 C 68.7444 39.5972 68.6632 39.5748 68.5729 39.5748 C 68.4841 39.5748 68.4038 39.5973 68.332 39.6421 C 68.1883 39.7317 68.1019 39.8895 68.1019 40.0862 C 68.1019 40.2801 68.1887 40.4413 68.3309 40.5306 C 68.402 40.5753 68.4827 40.5976 68.5729 40.5976 Z  M 69.6642 40.79 L 69.6642 39.3825 L 69.8949 39.3825 L 69.8949 40.79 Z  M 69.6642 39.1462 L 69.6642 38.84 L 69.8949 38.84 L 69.8949 39.1462 Z  M 70.9428 40.8214 C 70.8087 40.8214 70.6868 40.7895 70.5773 40.7256 C 70.3582 40.598 70.2191 40.3674 70.2191 40.0841 C 70.2191 39.803 70.3564 39.5745 70.574 39.4468 C 70.6829 39.383 70.8058 39.3511 70.9428 39.3511 C 71.2169 39.3511 71.4429 39.4853 71.5692 39.7058 C 71.6324 39.816 71.6639 39.9421 71.6639 40.0841 C 71.6639 40.3702 71.5223 40.6005 71.3049 40.7267 C 71.1962 40.7898 71.0755 40.8214 70.9428 40.8214 Z  M 70.9428 40.5976 C 71.1234 40.5976 71.273 40.5026 71.3571 40.3465 C 71.3992 40.2685 71.4202 40.181 71.4202 40.0841 C 71.4202 39.8902 71.33 39.7317 71.1861 39.6421 C 71.1142 39.5973 71.0331 39.5748 70.9428 39.5748 C 70.7623 39.5748 70.6126 39.6711 70.527 39.824 C 70.4843 39.9004 70.4629 39.9871 70.4629 40.0841 C 70.4629 40.2779 70.5551 40.4413 70.6993 40.5306 C 70.7714 40.5753 70.8526 40.5976 70.9428 40.5976 Z  M 72.0786 40.79 L 72.0786 40.4838 L 72.32 40.4838 L 72.32 40.79 Z  M 73.4439 40.8214 C 73.3051 40.8214 73.1825 40.7891 73.0762 40.7243 C 72.8634 40.5949 72.7345 40.3634 72.7345 40.0836 C 72.7345 39.8038 72.8629 39.5745 73.0759 39.4468 C 73.1825 39.383 73.3051 39.3511 73.4439 39.3511 C 73.6251 39.3511 73.7873 39.4204 73.9078 39.5311 C 73.9681 39.5864 74.0129 39.6507 74.0422 39.7238 L 73.8358 39.8251 C 73.7697 39.6762 73.6234 39.5748 73.4439 39.5748 C 73.2675 39.5748 73.1204 39.668 73.0392 39.8227 C 72.9985 39.9 72.9782 39.9879 72.9782 40.0862 C 72.9782 40.2801 73.0648 40.4413 73.2058 40.5306 C 73.2763 40.5753 73.3557 40.5976 73.4439 40.5976 C 73.624 40.5976 73.7668 40.4977 73.8358 40.3431 L 74.0422 40.4491 C 74.0132 40.5199 73.9685 40.5834 73.9083 40.6396 C 73.7878 40.7521 73.6257 40.8214 73.4439 40.8214 Z  M 75.0339 40.8214 C 74.8998 40.8214 74.7779 40.7895 74.6684 40.7256 C 74.4492 40.598 74.3102 40.3674 74.3102 40.0841 C 74.3102 39.803 74.4474 39.5745 74.6651 39.4468 C 74.774 39.383 74.8969 39.3511 75.0339 39.3511 C 75.308 39.3511 75.5339 39.4853 75.6603 39.7058 C 75.7234 39.816 75.755 39.9421 75.755 40.0841 C 75.755 40.3702 75.6134 40.6005 75.396 40.7267 C 75.2873 40.7898 75.1666 40.8214 75.0339 40.8214 Z  M 75.0339 40.5976 C 75.2144 40.5976 75.3641 40.5026 75.4482 40.3465 C 75.4902 40.2685 75.5113 40.181 75.5113 40.0841 C 75.5113 39.8902 75.4211 39.7317 75.2772 39.6421 C 75.2053 39.5973 75.1242 39.5748 75.0339 39.5748 C 74.8534 39.5748 74.7036 39.6711 74.6181 39.824 C 74.5753 39.9004 74.5539 39.9871 74.5539 40.0841 C 74.5539 40.2779 74.6462 40.4413 74.7904 40.5306 C 74.8625 40.5753 74.9437 40.5976 75.0339 40.5976 Z  M 76.0796 40.79 L 76.0796 39.3825 L 76.3057 39.3825 L 76.3057 39.6636 L 76.2729 39.6212 C 76.3436 39.4474 76.5087 39.3511 76.6975 39.3511 C 76.8075 39.3511 76.9064 39.3815 76.9941 39.4424 C 77.0818 39.5034 77.1427 39.583 77.177 39.6813 L 77.1119 39.6853 C 77.1489 39.5756 77.2107 39.4925 77.2973 39.4359 C 77.3838 39.3793 77.4805 39.3511 77.5873 39.3511 C 77.7788 39.3511 77.9454 39.4473 78.0404 39.6067 C 78.0879 39.6864 78.1117 39.7768 78.1117 39.8778 L 78.1117 40.79 L 77.881 40.79 L 77.881 39.955 C 77.881 39.7944 77.8197 39.682 77.7205 39.6208 C 77.6709 39.5901 77.6135 39.5748 77.5482 39.5748 C 77.3575 39.5748 77.211 39.7184 77.211 39.955 L 77.211 40.79 L 76.9803 40.79 L 76.9803 39.955 C 76.9803 39.7944 76.919 39.682 76.8198 39.6208 C 76.7702 39.5901 76.7127 39.5748 76.6474 39.5748 C 76.4524 39.5748 76.3102 39.7184 76.3102 39.955 L 76.3102 40.79 Z" fill="#ffffff"/>
<path d="M 57.7054 45.21 L 57.7054 44.19 L 57.8663 44.19 L 57.8663 45.21 Z  M 58.4978 45.21 L 58.4978 44.19 L 58.6272 44.19 L 59.2002 44.98 L 59.1379 44.9903 L 59.1379 44.19 L 59.2988 44.19 L 59.2988 45.21 L 59.1687 45.21 L 58.6005 44.4145 L 58.6587 44.4043 L 58.6587 45.21 Z  M 60.287 45.2264 C 60.2226 45.2264 60.1632 45.2144 60.1086 45.1905 C 59.9996 45.1426 59.92 45.0551 59.8844 44.9464 L 60.0207 44.8889 C 60.0699 45.014 60.1697 45.0847 60.2938 45.0847 C 60.4033 45.0847 60.4752 45.0293 60.4752 44.9458 C 60.4752 44.8718 60.4328 44.8301 60.3506 44.8054 L 60.1589 44.7452 C 60.0056 44.6977 59.9241 44.5953 59.9241 44.4638 C 59.9241 44.3497 59.9835 44.2598 60.083 44.2105 C 60.1327 44.1859 60.1895 44.1736 60.2534 44.1736 C 60.3757 44.1736 60.4785 44.2199 60.5502 44.2947 C 60.586 44.3322 60.6123 44.3755 60.6292 44.4248 L 60.4951 44.483 C 60.454 44.3753 60.3654 44.3153 60.2541 44.3153 C 60.1528 44.3153 60.0836 44.3707 60.0836 44.4556 C 60.0836 44.5213 60.1252 44.575 60.211 44.6014 L 60.3896 44.6569 C 60.5521 44.7071 60.634 44.7988 60.634 44.9348 C 60.634 45.0489 60.5717 45.1394 60.4677 45.1891 C 60.4157 45.214 60.3554 45.2264 60.287 45.2264 Z  M 61.4155 45.21 L 61.4155 44.3338 L 61.1451 44.3338 L 61.1451 44.19 L 61.8433 44.19 L 61.8433 44.3338 L 61.5763 44.3338 L 61.5763 45.21 Z  M 62.2934 45.21 L 62.6522 44.19 L 62.8521 44.19 L 63.2108 45.21 L 63.0376 45.21 L 62.9595 44.9814 L 62.5447 44.9814 L 62.466 45.21 Z  M 62.5919 44.8376 L 62.9109 44.8376 L 62.7295 44.3036 L 62.7747 44.3036 Z  M 64.2291 45.2264 C 64.0839 45.2264 63.9583 45.1713 63.8666 45.0769 C 63.7749 44.9824 63.7211 44.8524 63.7211 44.7 C 63.7211 44.3951 63.9343 44.1736 64.2263 44.1736 C 64.3696 44.1736 64.4852 44.2275 64.5642 44.3074 C 64.6036 44.3473 64.6318 44.3906 64.6487 44.4371 L 64.5056 44.5063 C 64.4627 44.3949 64.3632 44.3208 64.2263 44.3208 C 64.0912 44.3208 63.9834 44.3883 63.9255 44.5015 C 63.8965 44.5581 63.882 44.6242 63.882 44.7 C 63.882 44.8506 63.9449 44.9682 64.0494 45.0317 C 64.1016 45.0634 64.1615 45.0792 64.2291 45.0792 C 64.3423 45.0792 64.4409 45.0298 64.4971 44.9454 C 64.5251 44.9032 64.5392 44.8538 64.5392 44.7972 L 64.5392 44.7267 L 64.6124 44.7924 L 64.2263 44.7924 L 64.2263 44.6555 L 64.7001 44.6555 L 64.7001 44.752 C 64.7001 45.0514 64.4755 45.2264 64.2291 45.2264 Z  M 65.2843 45.21 L 65.2843 44.19 L 65.6547 44.19 C 65.8601 44.19 66.0025 44.3091 66.0025 44.509 C 66.0025 44.6505 65.9274 44.7536 65.8087 44.7993 L 66.0442 45.21 L 65.8608 45.21 L 65.6102 44.765 L 65.7156 44.8266 L 65.4452 44.8266 L 65.4452 45.21 Z  M 65.4452 44.6829 L 65.6581 44.6829 C 65.769 44.6829 65.8416 44.6137 65.8416 44.5083 C 65.8416 44.4015 65.769 44.3338 65.6581 44.3338 L 65.4452 44.3338 Z  M 66.5094 45.21 L 66.8681 44.19 L 67.068 44.19 L 67.4267 45.21 L 67.2535 45.21 L 67.1755 44.9814 L 66.7606 44.9814 L 66.6819 45.21 Z  M 66.8079 44.8376 L 67.1269 44.8376 L 66.9455 44.3036 L 66.9906 44.3036 Z  M 67.9672 45.21 L 67.9672 44.19 L 68.1178 44.19 L 68.5005 44.7212 L 68.4259 44.7212 L 68.8024 44.19 L 68.953 44.19 L 68.953 45.21 L 68.7921 45.21 L 68.7921 44.381 L 68.8523 44.3974 L 68.4683 44.9225 L 68.4519 44.9225 L 68.0754 44.3974 L 68.1281 44.381 L 68.1281 45.21 Z" fill="#79c0ba"/>
<path d="M 58.863 49.4187 C 58.551 49.4187 58.2793 49.304 58.0788 49.105 C 57.8784 48.9061 57.7627 48.6344 57.7627 48.3247 C 57.7627 48.0149 57.8809 47.7446 58.0799 47.5486 C 58.2789 47.3525 58.5536 47.2371 58.8621 47.2371 C 59.1792 47.2371 59.4507 47.3601 59.6444 47.5605 C 59.8381 47.7608 59.9489 48.0264 59.9489 48.316 C 59.9489 48.6476 59.7828 48.87 59.5097 48.87 C 59.3437 48.87 59.1826 48.7749 59.1524 48.5986 L 59.1989 48.6555 C 59.1234 48.7941 58.9734 48.87 58.7964 48.87 C 58.594 48.87 58.4235 48.7658 58.3284 48.598 C 58.2808 48.5141 58.257 48.4189 58.257 48.3125 C 58.257 48.1002 58.3584 47.9249 58.5222 47.8242 C 58.6041 47.7739 58.6962 47.7487 58.7987 47.7487 C 58.9697 47.7487 59.1183 47.8212 59.1935 47.9426 L 59.1733 47.9877 L 59.1733 47.7749 L 59.3595 47.7749 L 59.3595 48.4835 C 59.3595 48.6114 59.419 48.6707 59.5137 48.6707 C 59.6523 48.6707 59.732 48.5564 59.732 48.3176 C 59.732 47.8199 59.3853 47.4386 58.863 47.4386 C 58.6082 47.4386 58.3875 47.5311 58.2291 47.6898 C 58.0707 47.8485 57.9796 48.0662 57.9796 48.322 C 57.9796 48.6989 58.1809 49.0106 58.5066 49.1483 C 58.6151 49.1942 58.7352 49.2171 58.8668 49.2171 C 59.0257 49.2171 59.1771 49.182 59.2976 49.1126 L 59.3901 49.2866 C 59.2381 49.3747 59.0624 49.4187 58.863 49.4187 Z  M 58.8093 48.6707 C 59.007 48.6707 59.1485 48.514 59.1485 48.3085 C 59.1485 48.2049 59.1165 48.1198 59.0525 48.0531 C 58.9885 47.9865 58.9076 47.953 58.8097 47.9527 C 58.6814 47.9521 58.5724 48.0181 58.5143 48.1258 C 58.4853 48.1796 58.4708 48.2411 58.4708 48.3102 C 58.4708 48.5123 58.6167 48.6707 58.8093 48.6707 Z  M 60.8866 48.9014 C 60.7525 48.9014 60.6306 48.8695 60.521 48.8056 C 60.3019 48.678 60.1629 48.4474 60.1629 48.1641 C 60.1629 47.883 60.3001 47.6545 60.5178 47.5268 C 60.6266 47.463 60.7496 47.4311 60.8866 47.4311 C 61.1606 47.4311 61.3866 47.5653 61.513 47.7858 C 61.5761 47.896 61.6077 48.0221 61.6077 48.1641 C 61.6077 48.4502 61.4661 48.6805 61.2487 48.8067 C 61.14 48.8698 61.0193 48.9014 60.8866 48.9014 Z  M 60.8866 48.6776 C 61.0671 48.6776 61.2168 48.5826 61.3009 48.4265 C 61.3429 48.3485 61.364 48.261 61.364 48.1641 C 61.364 47.9702 61.2738 47.8117 61.1299 47.7221 C 61.058 47.6773 60.9769 47.6548 60.8866 47.6548 C 60.7061 47.6548 60.5563 47.7511 60.4708 47.904 C 60.428 47.9804 60.4066 48.0671 60.4066 48.1641 C 60.4066 48.3579 60.4989 48.5213 60.6431 48.6106 C 60.7152 48.6553 60.7963 48.6776 60.8866 48.6776 Z  M 61.9323 48.87 L 61.9323 47.4625 L 62.1584 47.4625 L 62.1584 47.7365 L 62.118 47.7169 C 62.1872 47.5372 62.3534 47.4311 62.561 47.4311 C 62.763 47.4311 62.9285 47.5273 63.0207 47.6867 C 63.0668 47.7664 63.0898 47.8568 63.0898 47.9579 L 63.0898 48.87 L 62.8592 48.87 L 62.8592 48.035 C 62.8592 47.8744 62.7983 47.762 62.6938 47.7008 C 62.6415 47.6701 62.5814 47.6548 62.5134 47.6548 C 62.3094 47.6548 62.1629 47.7984 62.1629 48.035 L 62.1629 48.87 Z  M 63.4452 48.87 L 63.4452 47.4625 L 63.6712 47.4625 L 63.6712 47.7125 L 63.6451 47.6757 C 63.7108 47.5242 63.8503 47.4446 64.0435 47.4446 L 64.1316 47.4446 L 64.1316 47.6661 L 64.0086 47.6661 C 63.808 47.6661 63.6758 47.7954 63.6758 48.0227 L 63.6758 48.87 Z  M 64.7629 48.9014 C 64.4886 48.9014 64.2932 48.7379 64.2932 48.503 C 64.2932 48.2794 64.437 48.1102 64.7513 48.0579 L 65.2813 47.9699 L 65.2813 48.1671 L 64.8026 48.2477 C 64.616 48.2802 64.537 48.3712 64.537 48.4942 C 64.537 48.5537 64.5604 48.6035 64.6072 48.6438 C 64.654 48.6841 64.7141 48.7042 64.7875 48.7042 C 64.8779 48.7042 64.957 48.6848 65.0245 48.6461 C 65.1597 48.5687 65.2394 48.4304 65.2394 48.2692 L 65.2394 47.9104 C 65.2394 47.8319 65.2105 47.7678 65.1526 47.7182 C 65.0948 47.6686 65.0191 47.6438 64.9257 47.6438 C 64.7601 47.6438 64.6289 47.7362 64.5685 47.8705 L 64.3667 47.7645 C 64.3932 47.7015 64.4352 47.6448 64.4926 47.5944 C 64.6076 47.4936 64.7639 47.4311 64.9289 47.4311 C 65.0349 47.4311 65.1287 47.4514 65.2104 47.4922 C 65.3738 47.5737 65.4701 47.7218 65.4701 47.9104 L 65.4701 48.87 L 65.244 48.87 L 65.244 48.5986 L 65.2833 48.6196 C 65.2009 48.7822 65.0062 48.9014 64.7629 48.9014 Z  M 65.8532 48.87 L 65.8532 47.4625 L 66.0839 47.4625 L 66.0839 48.87 Z  M 65.8532 47.2262 L 65.8532 46.92 L 66.0839 46.92 L 66.0839 47.2262 Z  M 66.9654 48.9014 C 66.827 48.9014 66.706 48.8668 66.6022 48.7977 C 66.4984 48.7286 66.4241 48.6348 66.3793 48.5164 L 66.5657 48.4278 C 66.6448 48.5957 66.7945 48.7019 66.9654 48.7019 C 67.0442 48.7019 67.11 48.683 67.1627 48.6452 C 67.2154 48.6074 67.2418 48.5576 67.2418 48.4959 C 67.2418 48.408 67.1841 48.3584 67.1163 48.3283 C 67.0824 48.3132 67.0512 48.302 67.0227 48.2947 L 66.8138 48.2353 C 66.5598 48.1632 66.4478 48.023 66.4478 47.8436 C 66.4478 47.5939 66.6595 47.4311 66.9313 47.4311 C 67.0537 47.4311 67.164 47.4623 67.2624 47.5249 C 67.3608 47.5874 67.4303 47.6745 67.4711 47.7859 L 67.282 47.8745 C 67.2171 47.7242 67.0817 47.6329 66.9249 47.6329 C 66.7776 47.6329 66.6827 47.7148 66.6827 47.8284 C 66.6827 47.9551 66.8015 47.9987 66.8803 48.0214 L 67.1123 48.0895 C 67.341 48.1564 67.4745 48.3016 67.4745 48.4932 C 67.4745 48.651 67.3825 48.7802 67.23 48.8495 C 67.1537 48.8841 67.0655 48.9014 66.9654 48.9014 Z  M 68.3637 48.8857 C 68.096 48.8857 67.9446 48.7261 67.9446 48.4429 L 67.9446 47.684 L 67.6886 47.684 L 67.6886 47.4625 L 67.7449 47.4625 C 67.8685 47.4625 67.9446 47.3769 67.9446 47.2534 L 67.9446 47.1379 L 68.1752 47.1379 L 68.1752 47.4625 L 68.4887 47.4625 L 68.4887 47.684 L 68.1752 47.684 L 68.1752 48.4383 C 68.1752 48.5806 68.2369 48.675 68.4078 48.675 C 68.4351 48.675 68.4768 48.6706 68.5059 48.6671 L 68.5059 48.87 C 68.4622 48.8799 68.4 48.8857 68.3637 48.8857 Z  M 69.3319 48.9014 C 69.1304 48.9014 68.9623 48.8028 68.8713 48.6349 C 68.8258 48.551 68.8031 48.454 68.8031 48.344 L 68.8031 47.4625 L 69.0337 47.4625 L 69.0337 48.319 C 69.0337 48.5331 69.1761 48.6776 69.3797 48.6776 C 69.5843 48.6776 69.73 48.5331 69.73 48.2974 L 69.73 47.4625 L 69.9606 47.4625 L 69.9606 48.87 L 69.7346 48.87 L 69.7346 48.596 L 69.7749 48.6156 C 69.7086 48.7952 69.5395 48.9014 69.3319 48.9014 Z  M 70.985 48.9014 C 70.8526 48.9014 70.7336 48.8693 70.628 48.8052 C 70.4168 48.6769 70.2872 48.4448 70.2872 48.1662 C 70.2872 48.0252 70.3177 47.8995 70.3786 47.7891 C 70.5005 47.5683 70.7181 47.4311 70.9846 47.4311 C 71.2199 47.4311 71.4105 47.5383 71.5162 47.7101 L 71.4797 47.7692 L 71.4797 46.8886 L 71.7104 46.8886 L 71.7104 48.87 L 71.4843 48.87 L 71.4843 48.5651 L 71.5167 48.603 C 71.4189 48.7944 71.2179 48.9014 70.985 48.9014 Z  M 71.0019 48.6776 C 71.0922 48.6776 71.1734 48.6553 71.2455 48.6106 C 71.3896 48.5213 71.4797 48.3601 71.4797 48.1662 C 71.4797 47.9724 71.3896 47.8112 71.2455 47.7219 C 71.1734 47.6772 71.0922 47.6548 71.0019 47.6548 C 70.9131 47.6548 70.8328 47.6773 70.761 47.7221 C 70.6173 47.8117 70.5309 47.9695 70.5309 48.1662 C 70.5309 48.3601 70.6177 48.5213 70.7599 48.6106 C 70.831 48.6553 70.9117 48.6776 71.0019 48.6776 Z  M 72.0932 48.87 L 72.0932 47.4625 L 72.3239 47.4625 L 72.3239 48.87 Z  M 72.0932 47.2262 L 72.0932 46.92 L 72.3239 46.92 L 72.3239 47.2262 Z  M 73.3718 48.9014 C 73.2377 48.9014 73.1158 48.8695 73.0063 48.8056 C 72.7872 48.678 72.6481 48.4474 72.6481 48.1641 C 72.6481 47.883 72.7854 47.6545 73.003 47.5268 C 73.1119 47.463 73.2348 47.4311 73.3718 47.4311 C 73.6459 47.4311 73.8719 47.5653 73.9982 47.7858 C 74.0614 47.896 74.0929 48.0221 74.0929 48.1641 C 74.0929 48.4502 73.9513 48.6805 73.7339 48.8067 C 73.6252 48.8698 73.5045 48.9014 73.3718 48.9014 Z  M 73.3718 48.6776 C 73.5524 48.6776 73.702 48.5826 73.7861 48.4265 C 73.8282 48.3485 73.8492 48.261 73.8492 48.1641 C 73.8492 47.9702 73.759 47.8117 73.6151 47.7221 C 73.5432 47.6773 73.4621 47.6548 73.3718 47.6548 C 73.1913 47.6548 73.0416 47.7511 72.956 47.904 C 72.9132 47.9804 72.8919 48.0671 72.8919 48.1641 C 72.8919 48.3579 72.9841 48.5213 73.1283 48.6106 C 73.2004 48.6553 73.2816 48.6776 73.3718 48.6776 Z" fill="#ffffff"/>
<path d="M 0 6.91 L 4 6.91 L 4 7.09 L 0 7.09 Z  M 6.91 0 L 7.09 0 L 7.09 4 L 6.91 4 Z  M 0 61.91 L 4 61.91 L 4 62.09 L 0 62.09 Z  M 6.91 65 L 7.09 65 L 7.09 69 L 6.91 69 Z  M 100 6.91 L 104 6.91 L 104 7.09 L 100 7.09 Z  M 96.91 0 L 97.09 0 L 97.09 4 L 96.91 4 Z  M 100 61.91 L 104 61.91 L 104 62.09 L 100 62.09 Z  M 96.91 65 L 97.09 65 L 97.09 69 L 96.91 69 Z" fill="#111113"/>
</svg>
