<svg xmlns="http://www.w3.org/2000/svg" width="104mm" height="69mm" viewBox="0 0 104 69">
<path d="M 0 0 L 104 0 L 104 69 L 0 69 Z" fill="#ffffff"/>
<path d="M 3 3 L 101 3 L 101 66 L 3 66 Z" fill="#0c8c81"/>
<path d="M 51.39 22.05 L 51.61 22.05 L 51.61 46.95 L 51.39 46.95 Z" fill="#55aea8"/>
<path d="M 22.916 32.8689 C 22.916 33.0857 22.8231 33.2623 22.6373 33.3988 C 22.4516 33.5353 22.1748 33.6035 21.8071 33.6035 L 20.3301 33.6035 C 20.2541 33.6035 20.2189 33.5697 20.2189 33.519 C 20.2189 33.4729 20.2457 33.4418 20.2994 33.4256 L 20.4351 33.398 C 20.5046 33.3795 20.5401 33.3429 20.5401 33.2796 L 20.5401 30.873 C 20.5401 30.813 20.506 30.7774 20.4351 30.759 L 20.2994 30.7314 C 20.2457 30.7153 20.2189 30.6841 20.2189 30.638 C 20.2189 30.5847 20.2541 30.5535 20.3301 30.5535 L 21.4714 30.5535 C 22.0104 30.5535 22.3939 30.7093 22.5926 30.9716 C 22.692 31.1028 22.7417 31.2554 22.7417 31.4296 C 22.7417 31.7191 22.5775 31.9568 22.2615 32.0898 C 22.1035 32.1564 21.9087 32.1896 21.677 32.1896 L 21.7951 32.1298 C 22.2485 32.1298 22.5919 32.2638 22.7771 32.4863 C 22.8697 32.5975 22.916 32.7251 22.916 32.8689 Z  M 21.5711 32.2577 L 21.008 32.2577 L 21.008 32.1056 L 21.5325 32.1056 C 21.9256 32.1056 22.142 31.8719 22.142 31.4614 C 22.142 31.1647 22.0199 30.9393 21.7939 30.8168 C 21.6809 30.7556 21.5439 30.725 21.383 30.725 L 21.171 30.725 L 21.171 33.2408 C 21.171 33.3706 21.2525 33.4321 21.4117 33.4321 L 21.6685 33.4321 C 22.069 33.4321 22.2825 33.2005 22.2825 32.853 C 22.2825 32.6727 22.222 32.5284 22.101 32.4201 C 21.98 32.3118 21.8034 32.2577 21.5711 32.2577 Z  M 23.9976 31.6458 L 23.9976 33.2952 C 23.9976 33.3761 24.022 33.4106 24.073 33.4256 L 24.1637 33.4472 C 24.2139 33.4632 24.2361 33.4889 24.2361 33.5272 C 24.2361 33.5741 24.2042 33.6035 24.1339 33.6035 L 23.2876 33.6035 C 23.219 33.6035 23.1873 33.5741 23.1873 33.5272 C 23.1873 33.4904 23.2091 33.4645 23.2578 33.4483 L 23.3526 33.4256 C 23.4039 33.4095 23.428 33.3768 23.428 33.2963 L 23.428 31.9802 C 23.428 31.9158 23.4089 31.8908 23.363 31.884 L 23.2379 31.8769 C 23.1912 31.8673 23.1724 31.8448 23.1724 31.8099 C 23.1724 31.7691 23.193 31.7476 23.2587 31.7237 L 23.685 31.5764 C 23.7831 31.5402 23.8338 31.5275 23.8758 31.5275 C 23.9575 31.5275 23.9976 31.5745 23.9976 31.6458 Z  M 23.6702 31.1881 C 23.5615 31.1881 23.4742 31.159 23.4082 31.1007 C 23.3422 31.0424 23.3092 30.9667 23.3092 30.8735 C 23.3092 30.7804 23.3422 30.7051 23.4083 30.6478 C 23.4744 30.5904 23.5617 30.5618 23.6702 30.5618 C 23.7795 30.5618 23.8674 30.5906 23.934 30.6483 C 24.0005 30.7059 24.0337 30.781 24.0337 30.8735 C 24.0337 30.9667 24.0004 31.0424 23.9339 31.1007 C 23.8673 31.159 23.7794 31.1881 23.6702 31.1881 Z  M 25.3198 30.4888 L 25.3198 33.2952 C 25.3198 33.3761 25.3442 33.4106 25.3952 33.4256 L 25.4859 33.4472 C 25.5361 33.4632 25.5583 33.4889 25.5583 33.5272 C 25.5583 33.5741 25.5264 33.6035 25.4561 33.6035 L 24.6098 33.6035 C 24.5413 33.6035 24.5095 33.5741 24.5095 33.5272 C 24.5095 33.4902 24.5317 33.4639 24.5813 33.4477 L 24.6748 33.4256 C 24.7261 33.4095 24.7503 33.3768 24.7503 33.2963 L 24.7503 30.8232 C 24.7503 30.7587 24.7311 30.7338 24.6852 30.727 L 24.5601 30.7198 C 24.5134 30.7103 24.4946 30.6878 24.4946 30.6529 C 24.4946 30.6121 24.5152 30.5905 24.5809 30.5667 L 25.0072 30.4193 C 25.1053 30.3831 25.156 30.3704 25.198 30.3704 C 25.2797 30.3704 25.3198 30.4175 25.3198 30.4888 Z  M 26.6509 30.4888 L 26.6509 33.2952 C 26.6509 33.3761 26.6753 33.4106 26.7263 33.4256 L 26.817 33.4472 C 26.8672 33.4632 26.8894 33.4889 26.8894 33.5272 C 26.8894 33.5741 26.8575 33.6035 26.7872 33.6035 L 25.9409 33.6035 C 25.8724 33.6035 25.8407 33.5741 25.8407 33.5272 C 25.8407 33.4902 25.8628 33.4639 25.9124 33.4477 L 26.006 33.4256 C 26.0572 33.4095 26.0814 33.3768 26.0814 33.2963 L 26.0814 30.8232 C 26.0814 30.7587 26.0622 30.7338 26.0163 30.727 L 25.8912 30.7198 C 25.8445 30.7103 25.8257 30.6878 25.8257 30.6529 C 25.8257 30.6121 25.8463 30.5905 25.912 30.5667 L 26.3383 30.4193 C 26.4364 30.3831 26.4871 30.3704 26.5291 30.3704 C 26.6108 30.3704 26.6509 30.4175 26.6509 30.4888 Z  M 28.4614 33.276 L 28.1632 33.8513 L 27.3011 31.9111 C 27.2744 31.8488 27.2465 31.8052 27.2173 31.7802 C 27.188 31.7552 27.1447 31.7356 27.0874 31.7216 C 27.0353 31.7048 27.0181 31.6818 27.0181 31.6423 C 27.0181 31.5939 27.0556 31.5652 27.1164 31.5652 L 28.0737 31.5652 C 28.1347 31.5652 28.172 31.5932 28.172 31.6418 C 28.172 31.682 28.1508 31.7061 28.0936 31.7196 L 27.9998 31.736 C 27.9375 31.7486 27.901 31.7716 27.8902 31.805 C 27.8793 31.8383 27.8907 31.8953 27.9241 31.9759 Z  M 28.0599 33.983 L 28.215 33.5982 L 28.2828 33.4629 L 28.8602 32.0077 C 28.9283 31.8388 28.9078 31.7726 28.775 31.7439 L 28.6806 31.7239 C 28.6244 31.7101 28.6007 31.683 28.6007 31.642 C 28.6007 31.5934 28.6382 31.5652 28.6989 31.5652 L 29.3062 31.5652 C 29.3676 31.5652 29.4049 31.5942 29.4049 31.6427 C 29.4049 31.6771 29.3854 31.7021 29.3295 31.7227 C 29.2626 31.7415 29.2114 31.7676 29.1761 31.8011 C 29.1408 31.8345 29.1073 31.8914 29.0756 31.9717 L 28.2805 33.9495 C 28.2066 34.1315 28.1377 34.2731 28.0739 34.3744 C 28.0101 34.4757 27.9411 34.5464 27.8668 34.5864 C 27.7925 34.6265 27.702 34.6465 27.5952 34.6465 C 27.4388 34.6465 27.3149 34.6044 27.2236 34.5201 C 27.1323 34.4358 27.0866 34.3328 27.0866 34.2112 C 27.0866 34.0359 27.1794 33.9314 27.3207 33.9314 C 27.4565 33.9314 27.5229 34.0212 27.568 34.1624 L 27.5932 34.2452 C 27.6157 34.3457 27.6695 34.4019 27.7378 34.4019 C 27.8069 34.4019 27.8647 34.3629 27.9365 34.2417 C 27.9725 34.1812 28.0136 34.0949 28.0599 33.983 Z  M 31.1412 32.0632 L 33.0076 32.0632 L 33.0076 32.257 L 31.1412 32.257 Z  M 31.4998 33.284 C 31.4998 33.3439 31.5371 33.3797 31.6047 33.398 L 31.7405 33.4256 C 31.7942 33.4418 31.821 33.4729 31.821 33.5189 C 31.821 33.57 31.787 33.6035 31.7098 33.6035 L 30.6577 33.6035 C 30.5816 33.6035 30.5465 33.57 30.5465 33.5189 C 30.5465 33.4729 30.5733 33.4418 30.627 33.4256 L 30.7628 33.398 C 30.832 33.3797 30.8677 33.3439 30.8677 33.284 L 30.8677 30.873 C 30.8677 30.8132 30.832 30.7771 30.7628 30.759 L 30.627 30.7314 C 30.5733 30.7153 30.5465 30.6842 30.5465 30.638 C 30.5465 30.5847 30.5816 30.5535 30.6577 30.5535 L 31.7098 30.5535 C 31.787 30.5535 31.821 30.5847 31.821 30.638 C 31.821 30.6842 31.7942 30.7153 31.7405 30.7314 L 31.6047 30.759 C 31.5371 30.7771 31.4998 30.8132 31.4998 30.873 Z  M 33.4158 33.284 C 33.4158 33.3439 33.4531 33.3797 33.5207 33.398 L 33.6565 33.4256 C 33.7101 33.4418 33.7369 33.4729 33.7369 33.5189 C 33.7369 33.57 33.7029 33.6035 33.6258 33.6035 L 32.5736 33.6035 C 32.4976 33.6035 32.4625 33.57 32.4625 33.5189 C 32.4625 33.4729 32.4893 33.4418 32.5429 33.4256 L 32.6787 33.398 C 32.7479 33.3797 32.7836 33.3439 32.7836 33.284 L 32.7836 30.873 C 32.7836 30.8132 32.7479 30.7771 32.6787 30.759 L 32.5429 30.7314 C 32.4893 30.7153 32.4625 30.6842 32.4625 30.638 C 32.4625 30.5847 32.4976 30.5535 32.5736 30.5535 L 33.6258 30.5535 C 33.7029 30.5535 33.7369 30.5847 33.7369 30.638 C 33.7369 30.6842 33.7101 30.7153 33.6565 30.7314 L 33.5207 30.759 C 33.4531 30.7771 33.4158 30.8132 33.4158 30.873 Z  M 35.6771 33.3355 L 35.6771 33.1975 L 35.6618 33.1885 L 35.6618 31.9818 C 35.6618 31.9174 35.6426 31.8924 35.5968 31.8856 L 35.4717 31.8785 C 35.425 31.8689 35.4062 31.8464 35.4062 31.8115 C 35.4062 31.7707 35.4268 31.7491 35.4925 31.7253 L 35.9188 31.578 C 36.0125 31.5431 36.0635 31.5291 36.1136 31.5291 C 36.1913 31.5291 36.2313 31.5761 36.2313 31.6474 L 36.2313 33.2952 C 36.2313 33.3761 36.2558 33.4106 36.3068 33.4256 L 36.3974 33.4472 C 36.4477 33.4632 36.4698 33.4889 36.4698 33.5272 C 36.4698 33.5741 36.438 33.6035 36.3676 33.6035 L 35.9145 33.6035 C 35.846 33.6035 35.7893 33.5788 35.7444 33.5293 C 35.6996 33.4799 35.6771 33.4153 35.6771 33.3355 Z  M 34.3102 33.0131 L 34.3102 31.9818 C 34.3102 31.9174 34.291 31.8924 34.2449 31.8856 L 34.1198 31.8785 C 34.0731 31.8689 34.0543 31.8464 34.0543 31.8115 C 34.0543 31.7707 34.0749 31.7491 34.1406 31.7253 L 34.5672 31.578 C 34.6653 31.5418 34.716 31.5291 34.758 31.5291 C 34.8397 31.5291 34.8798 31.5761 34.8798 31.6474 L 34.8798 32.9324 C 34.8798 33.1953 35.0152 33.3235 35.226 33.3235 C 35.3566 33.3235 35.5047 33.262 35.6612 33.1275 L 35.7485 33.052 L 35.834 33.1402 L 35.7482 33.2163 C 35.5718 33.378 35.4172 33.4914 35.2847 33.5565 C 35.1521 33.6215 35.027 33.654 34.9094 33.654 C 34.7307 33.654 34.5862 33.5967 34.4758 33.4821 C 34.3654 33.3675 34.3102 33.2111 34.3102 33.0131 Z  M 38.0645 33.276 L 37.7663 33.8513 L 36.9042 31.9111 C 36.8776 31.8488 36.8496 31.8052 36.8204 31.7802 C 36.7911 31.7552 36.7479 31.7356 36.6906 31.7216 C 36.6385 31.7048 36.6212 31.6818 36.6212 31.6423 C 36.6212 31.5939 36.6587 31.5652 36.7195 31.5652 L 37.6769 31.5652 C 37.7379 31.5652 37.7751 31.5932 37.7751 31.6418 C 37.7751 31.682 37.7539 31.7061 37.6968 31.7196 L 37.6029 31.736 C 37.5407 31.7486 37.5041 31.7716 37.4933 31.805 C 37.4825 31.8383 37.4938 31.8953 37.5272 31.9759 Z  M 37.6631 33.983 L 37.8182 33.5982 L 37.886 33.4629 L 38.4633 32.0077 C 38.5314 31.8388 38.511 31.7726 38.3782 31.7439 L 38.2837 31.7239 C 38.2275 31.7101 38.2038 31.683 38.2038 31.642 C 38.2038 31.5934 38.2414 31.5652 38.3021 31.5652 L 38.9093 31.5652 C 38.9708 31.5652 39.0081 31.5942 39.0081 31.6427 C 39.0081 31.6771 38.9886 31.7021 38.9327 31.7227 C 38.8657 31.7415 38.8146 31.7676 38.7793 31.8011 C 38.744 31.8345 38.7105 31.8914 38.6787 31.9717 L 37.8836 33.9495 C 37.8097 34.1315 37.7409 34.2731 37.6771 34.3744 C 37.6133 34.4757 37.5442 34.5464 37.4699 34.5864 C 37.3956 34.6265 37.3051 34.6465 37.1984 34.6465 C 37.0419 34.6465 36.9181 34.6044 36.8268 34.5201 C 36.7354 34.4358 36.6898 34.3328 36.6898 34.2112 C 36.6898 34.0359 36.7826 33.9314 36.9239 33.9314 C 37.0596 33.9314 37.126 34.0212 37.1711 34.1624 L 37.1963 34.2452 C 37.2188 34.3457 37.2727 34.4019 37.341 34.4019 C 37.4101 34.4019 37.4678 34.3629 37.5397 34.2417 C 37.5756 34.1812 37.6167 34.0949 37.6631 33.983 Z  M 39.9846 31.6458 L 39.9846 33.2952 C 39.9846 33.3761 40.009 33.4092 40.06 33.4256 L 40.1486 33.4482 C 40.19 33.4642 40.2108 33.4892 40.2108 33.5231 C 40.2108 33.5767 40.1764 33.6035 40.1076 33.6035 L 39.2746 33.6035 C 39.206 33.6035 39.1743 33.5741 39.1743 33.5272 C 39.1743 33.4904 39.196 33.4645 39.2448 33.4483 L 39.3396 33.4256 C 39.3909 33.4095 39.415 33.3768 39.415 33.2963 L 39.415 31.9802 C 39.415 31.9158 39.3958 31.8908 39.35 31.884 L 39.2249 31.8769 C 39.1782 31.8673 39.1594 31.8448 39.1594 31.8099 C 39.1594 31.7691 39.18 31.7476 39.2457 31.7237 L 39.672 31.5764 C 39.766 31.5415 39.8167 31.5275 39.8668 31.5275 C 39.9445 31.5275 39.9846 31.5745 39.9846 31.6458 Z  M 39.922 32.1182 L 39.8364 32.03 L 39.9222 31.954 C 40.097 31.7969 40.2473 31.6847 40.3729 31.6173 C 40.4986 31.5499 40.6182 31.5163 40.7316 31.5163 C 40.9033 31.5163 41.0368 31.5733 41.1321 31.6875 C 41.2274 31.8017 41.2856 31.9566 41.3068 32.1524 L 41.4365 33.2882 C 41.4461 33.3738 41.4647 33.4109 41.5192 33.427 L 41.6034 33.4483 C 41.6522 33.4643 41.6739 33.4902 41.6739 33.5272 C 41.6739 33.5741 41.6436 33.6035 41.5733 33.6035 L 40.7312 33.6035 C 40.6622 33.6035 40.6277 33.5767 40.6277 33.5231 C 40.6277 33.4894 40.6482 33.4644 40.6894 33.4482 L 40.7818 33.4256 C 40.838 33.4092 40.8697 33.3719 40.8601 33.2882 L 40.7397 32.2331 C 40.7092 31.9745 40.615 31.8468 40.4188 31.8468 C 40.2954 31.8468 40.1615 31.9124 40.0092 32.0428 Z  M 42.6751 30.4888 L 42.6751 33.2952 C 42.6751 33.3761 42.6995 33.4092 42.7505 33.4256 L 42.8391 33.4482 C 42.8806 33.4642 42.9013 33.4892 42.9013 33.5231 C 42.9013 33.5767 42.8669 33.6035 42.7981 33.6035 L 41.9651 33.6035 C 41.8966 33.6035 41.8648 33.5741 41.8648 33.5272 C 41.8648 33.4902 41.887 33.4639 41.9366 33.4477 L 42.0302 33.4256 C 42.0814 33.4095 42.1056 33.3768 42.1056 33.2963 L 42.1056 30.8232 C 42.1056 30.7587 42.0864 30.7338 42.0405 30.727 L 41.9154 30.7198 C 41.8687 30.7103 41.8499 30.6878 41.8499 30.6529 C 41.8499 30.6121 41.8705 30.5905 41.9362 30.5667 L 42.3625 30.4193 C 42.4565 30.3845 42.5073 30.3704 42.5574 30.3704 C 42.635 30.3704 42.6751 30.4175 42.6751 30.4888 Z  M 42.6125 32.1182 L 42.527 32.03 L 42.6128 31.954 C 42.7876 31.7969 42.9378 31.6847 43.0635 31.6173 C 43.1891 31.5499 43.3087 31.5163 43.4222 31.5163 C 43.5944 31.5163 43.728 31.5733 43.823 31.6875 C 43.9181 31.8017 43.9762 31.9566 43.9973 32.1524 L 44.1271 33.2882 C 44.1367 33.3738 44.1552 33.4109 44.2098 33.427 L 44.2939 33.4483 C 44.3427 33.4643 44.3644 33.4902 44.3644 33.5272 C 44.3644 33.5741 44.3342 33.6035 44.2639 33.6035 L 43.4217 33.6035 C 43.3527 33.6035 43.3182 33.5767 43.3182 33.5231 C 43.3182 33.4894 43.3388 33.4644 43.3799 33.4482 L 43.4724 33.4256 C 43.5285 33.4092 43.5602 33.3719 43.5506 33.2882 L 43.4302 32.2331 C 43.3997 31.9745 43.3055 31.8468 43.1094 31.8468 C 42.986 31.8468 42.8521 31.9124 42.6998 32.0428 Z" fill="#ffffff"/>
<path d="M 23.7361 38.0035 L 23.7361 36.5035 L 24.2266 36.5035 C 24.523 36.5035 24.7468 36.6307 24.8665 36.8549 C 24.9263 36.9669 24.9563 37.0995 24.9563 37.2525 C 24.9563 37.5559 24.8313 37.7874 24.6128 37.9109 C 24.5035 37.9727 24.3748 38.0035 24.2266 38.0035 Z  M 23.8851 37.8646 L 24.2258 37.8646 C 24.3426 37.8646 24.444 37.8395 24.53 37.7893 C 24.7021 37.6889 24.8008 37.5006 24.8008 37.2525 C 24.8008 37.1285 24.777 37.0209 24.7292 36.9298 C 24.6336 36.7475 24.4572 36.6424 24.2258 36.6424 L 23.8851 36.6424 Z  M 25.6988 38.0277 C 25.5982 38.0277 25.5073 38.0032 25.4262 37.9542 C 25.2641 37.8562 25.1637 37.678 25.1637 37.4627 C 25.1637 37.2469 25.2615 37.0733 25.418 36.9767 C 25.4962 36.9284 25.5842 36.9042 25.6819 36.9042 C 25.9858 36.9042 26.1764 37.1525 26.1764 37.4156 C 26.1764 37.4424 26.1741 37.4748 26.1688 37.5086 L 25.2502 37.5086 L 25.2502 37.3798 L 26.089 37.3798 L 26.0242 37.4333 C 26.0451 37.2819 25.978 37.1574 25.868 37.0868 C 25.8129 37.0515 25.7509 37.0339 25.6819 37.0339 C 25.5429 37.0339 25.4191 37.1106 25.3525 37.2386 C 25.3192 37.3027 25.3053 37.3779 25.3106 37.4643 C 25.2999 37.6372 25.3776 37.7716 25.4997 37.8439 C 25.5608 37.88 25.6272 37.898 25.6988 37.898 C 25.8561 37.898 25.9655 37.8152 26.0343 37.6987 L 26.1527 37.7615 C 26.0858 37.9081 25.9139 38.0277 25.6988 38.0277 Z  M 26.7394 38.0035 L 26.3174 36.9284 L 26.4732 36.9284 L 26.8352 37.8815 L 26.7841 37.8815 L 27.1481 36.9284 L 27.3059 36.9284 L 26.8795 38.0035 Z  M 27.9821 38.0277 C 27.8814 38.0277 27.7905 38.0032 27.7094 37.9542 C 27.5473 37.8562 27.4469 37.678 27.4469 37.4627 C 27.4469 37.2469 27.5447 37.0733 27.7012 36.9767 C 27.7794 36.9284 27.8674 36.9042 27.9651 36.9042 C 28.269 36.9042 28.4596 37.1525 28.4596 37.4156 C 28.4596 37.4424 28.4574 37.4748 28.452 37.5086 L 27.5335 37.5086 L 27.5335 37.3798 L 28.3723 37.3798 L 28.3074 37.4333 C 28.3284 37.2819 28.2613 37.1574 28.1512 37.0868 C 28.0961 37.0515 28.0341 37.0339 27.9651 37.0339 C 27.8261 37.0339 27.7023 37.1106 27.6357 37.2386 C 27.6025 37.3027 27.5885 37.3779 27.5939 37.4643 C 27.5831 37.6372 27.6608 37.7716 27.7829 37.8439 C 27.844 37.88 27.9104 37.898 27.9821 37.898 C 28.1394 37.898 28.2488 37.8152 28.3175 37.6987 L 28.4359 37.7615 C 28.369 37.9081 28.1971 38.0277 27.9821 38.0277 Z  M 28.7335 38.0035 L 28.7335 36.4794 L 28.8724 36.4794 L 28.8724 38.0035 Z  M 29.6927 38.0277 C 29.4892 38.0277 29.3165 37.9236 29.2192 37.7537 C 29.1705 37.6687 29.1462 37.5722 29.1462 37.4643 C 29.1462 37.3573 29.1703 37.2616 29.2183 37.1772 C 29.3145 37.0086 29.4848 36.9042 29.6929 36.9042 C 29.7969 36.9042 29.8899 36.9284 29.9719 36.9767 C 30.1359 37.0733 30.2375 37.2477 30.2375 37.4643 C 30.2375 37.6823 30.1311 37.8586 29.9671 37.9552 C 29.8851 38.0035 29.7936 38.0277 29.6927 38.0277 Z  M 29.6927 37.8896 C 29.767 37.8896 29.8342 37.871 29.8941 37.8338 C 30.0139 37.7595 30.0893 37.624 30.0893 37.4643 C 30.0893 37.3043 30.014 37.1726 29.8943 37.0982 C 29.8345 37.0609 29.7674 37.0423 29.6929 37.0423 C 29.5439 37.0423 29.4189 37.1221 29.3478 37.2491 C 29.3122 37.3125 29.2944 37.3843 29.2944 37.4643 C 29.2944 37.624 29.3718 37.7595 29.4914 37.8338 C 29.5512 37.871 29.6183 37.8896 29.6927 37.8896 Z  M 30.5113 38.4062 L 30.5113 36.9284 L 30.6502 36.9284 L 30.6502 37.1816 L 30.6277 37.141 C 30.712 36.9965 30.8637 36.9042 31.0529 36.9042 C 31.1545 36.9042 31.2451 36.9286 31.3246 36.9775 C 31.4837 37.0752 31.5825 37.25 31.5825 37.4661 C 31.5825 37.6796 31.4837 37.8562 31.3246 37.9542 C 31.2451 38.0032 31.1545 38.0277 31.0529 38.0277 C 30.8639 38.0277 30.7034 37.9343 30.6277 37.7748 L 30.6502 37.7502 L 30.6502 38.4062 Z  M 31.0465 37.8888 C 31.1207 37.8888 31.1871 37.8702 31.2455 37.8331 C 31.3624 37.759 31.4343 37.6259 31.4343 37.4659 C 31.4343 37.3036 31.3624 37.1728 31.2456 37.0987 C 31.1872 37.0616 31.1209 37.0431 31.0467 37.0431 C 30.9724 37.0431 30.9055 37.0616 30.8457 37.0987 C 30.7263 37.1728 30.6515 37.3055 30.6515 37.4657 C 30.6515 37.626 30.7263 37.7591 30.8457 37.8332 C 30.9054 37.8702 30.9724 37.8888 31.0465 37.8888 Z  M 32.3472 38.0277 C 32.2465 38.0277 32.1556 38.0032 32.0745 37.9542 C 31.9124 37.8562 31.812 37.678 31.812 37.4627 C 31.812 37.2469 31.9098 37.0733 32.0663 36.9767 C 32.1445 36.9284 32.2325 36.9042 32.3302 36.9042 C 32.6341 36.9042 32.8247 37.1525 32.8247 37.4156 C 32.8247 37.4424 32.8225 37.4748 32.8171 37.5086 L 31.8986 37.5086 L 31.8986 37.3798 L 32.7374 37.3798 L 32.6725 37.4333 C 32.6935 37.2819 32.6264 37.1574 32.5163 37.0868 C 32.4612 37.0515 32.3992 37.0339 32.3302 37.0339 C 32.1912 37.0339 32.0674 37.1106 32.0008 37.2386 C 31.9676 37.3027 31.9536 37.3779 31.959 37.4643 C 31.9482 37.6372 32.0259 37.7716 32.148 37.8439 C 32.2091 37.88 32.2755 37.898 32.3472 37.898 C 32.5045 37.898 32.6139 37.8152 32.6826 37.6987 L 32.801 37.7615 C 32.7341 37.9081 32.5622 38.0277 32.3472 38.0277 Z  M 33.0986 38.0035 L 33.0986 36.9284 L 33.2375 36.9284 L 33.2375 37.1148 L 33.2166 37.0918 C 33.2654 36.9818 33.376 36.9147 33.5258 36.9147 L 33.5939 36.9147 L 33.5939 37.0536 L 33.5045 37.0536 C 33.3412 37.0536 33.2375 37.1622 33.2375 37.3431 L 33.2375 38.0035 Z  M 34.4838 38.0277 C 34.2462 38.0277 34.0706 37.8811 34.0706 37.658 C 34.0706 37.4078 34.2857 37.2747 34.4017 37.1973 L 34.4967 37.1369 C 34.5783 37.0843 34.6584 37.0264 34.7073 36.9499 C 34.7317 36.9116 34.7439 36.869 34.7439 36.822 C 34.7439 36.7633 34.7245 36.7145 34.6855 36.6759 C 34.6466 36.6372 34.5984 36.6179 34.541 36.6179 C 34.4817 36.6179 34.433 36.6374 34.395 36.6765 C 34.357 36.7155 34.338 36.7647 34.338 36.8241 C 34.338 36.903 34.3802 36.9786 34.4369 37.0451 C 34.4652 37.0784 34.494 37.1104 34.5233 37.141 L 35.3532 38.0035 L 35.1527 38.0035 L 34.4073 37.2392 C 34.3756 37.2065 34.3431 37.1696 34.3096 37.1287 C 34.2428 37.0468 34.189 36.9481 34.189 36.8289 C 34.189 36.692 34.257 36.5841 34.3636 36.5243 C 34.4169 36.4943 34.476 36.4794 34.541 36.4794 C 34.6043 36.4794 34.6625 36.494 34.7153 36.5233 C 34.8211 36.5818 34.8897 36.6889 34.8897 36.822 C 34.8897 36.9616 34.8165 37.0651 34.7228 37.1414 C 34.6759 37.1795 34.6316 37.2125 34.5897 37.2404 L 34.4983 37.2988 C 34.4161 37.3536 34.3254 37.4185 34.2696 37.5036 C 34.2417 37.5461 34.2277 37.5965 34.2277 37.6548 C 34.2277 37.7284 34.2519 37.7858 34.3004 37.8271 C 34.3488 37.8685 34.411 37.8892 34.487 37.8892 C 34.69 37.8892 34.7913 37.7336 34.8772 37.6037 L 35.1088 37.259 L 35.2795 37.259 L 35.0101 37.6681 C 34.9672 37.7352 34.9063 37.8233 34.8237 37.8982 C 34.741 37.9731 34.6315 38.0277 34.4838 38.0277 Z  M 35.9516 38.0035 L 35.9516 36.5035 L 36.4421 36.5035 C 36.7384 36.5035 36.9622 36.6307 37.0819 36.8549 C 37.1418 36.9669 37.1717 37.0995 37.1717 37.2525 C 37.1717 37.5559 37.0468 37.7874 36.8282 37.9109 C 36.719 37.9727 36.5902 38.0035 36.4421 38.0035 Z  M 36.1006 37.8646 L 36.4412 37.8646 C 36.558 37.8646 36.6594 37.8395 36.7455 37.7893 C 36.9176 37.6889 37.0163 37.5006 37.0163 37.2525 C 37.0163 37.1285 36.9924 37.0209 36.9446 36.9298 C 36.849 36.7475 36.6727 36.6424 36.4412 36.6424 L 36.1006 36.6424 Z  M 37.9143 38.0277 C 37.8136 38.0277 37.7227 38.0032 37.6417 37.9542 C 37.4795 37.8562 37.3791 37.678 37.3791 37.4627 C 37.3791 37.2469 37.4769 37.0733 37.6334 36.9767 C 37.7117 36.9284 37.7996 36.9042 37.8974 36.9042 C 38.2012 36.9042 38.3919 37.1525 38.3919 37.4156 C 38.3919 37.4424 38.3896 37.4748 38.3842 37.5086 L 37.4657 37.5086 L 37.4657 37.3798 L 38.3045 37.3798 L 38.2396 37.4333 C 38.2606 37.2819 38.1935 37.1574 38.0834 37.0868 C 38.0284 37.0515 37.9664 37.0339 37.8974 37.0339 C 37.7583 37.0339 37.6345 37.1106 37.568 37.2386 C 37.5347 37.3027 37.5207 37.3779 37.5261 37.4643 C 37.5153 37.6372 37.593 37.7716 37.7151 37.8439 C 37.7762 37.88 37.8426 37.898 37.9143 37.898 C 38.0716 37.898 38.181 37.8152 38.2497 37.6987 L 38.3681 37.7615 C 38.3012 37.9081 38.1293 38.0277 37.9143 38.0277 Z  M 39.0345 38.0277 C 38.9331 38.0277 38.8439 38.0021 38.7672 37.951 C 38.6904 37.8998 38.6344 37.8301 38.5992 37.7418 L 38.7176 37.6858 C 38.781 37.8179 38.8992 37.9008 39.0345 37.9008 C 39.1011 37.9008 39.1573 37.8845 39.2031 37.8517 C 39.2488 37.819 39.2717 37.776 39.2717 37.7229 C 39.2717 37.6498 39.2255 37.6064 39.1688 37.5793 C 39.1405 37.5657 39.1136 37.5557 39.0881 37.5493 L 38.929 37.5042 C 38.7357 37.45 38.652 37.3462 38.652 37.2114 C 38.652 37.0262 38.8098 36.9042 39.0072 36.9042 C 39.0974 36.9042 39.1793 36.9276 39.253 36.9745 C 39.3267 37.0213 39.3786 37.0857 39.4086 37.1676 L 39.2878 37.2239 C 39.2331 37.1031 39.1264 37.031 39.0023 37.031 C 38.8788 37.031 38.7961 37.1031 38.7961 37.2014 C 38.7961 37.3061 38.8908 37.3459 38.9592 37.3653 L 39.138 37.4172 C 39.3125 37.4677 39.4147 37.5782 39.4147 37.722 C 39.4147 37.8391 39.3449 37.9365 39.2308 37.9886 C 39.1738 38.0147 39.1084 38.0277 39.0345 38.0277 Z  M 39.6885 38.0035 L 39.6885 36.9284 L 39.8274 36.9284 L 39.8274 38.0035 Z  M 39.6885 36.725 L 39.6885 36.5035 L 39.8274 36.5035 L 39.8274 36.725 Z  M 40.6525 38.4465 C 40.4343 38.4465 40.2607 38.3373 40.1874 38.1835 L 40.3139 38.1151 C 40.3638 38.223 40.4796 38.3088 40.6493 38.3088 C 40.7814 38.3088 40.8997 38.2567 40.9692 38.1539 C 41.004 38.1025 41.0214 38.0387 41.0214 37.9624 L 41.0214 37.71 L 41.0447 37.7345 C 41.0072 37.8143 40.951 37.8763 40.8762 37.9208 C 40.8015 37.9652 40.719 37.9874 40.6288 37.9874 C 40.4285 37.9874 40.2619 37.8835 40.1701 37.7192 C 40.1242 37.6371 40.1012 37.5459 40.1012 37.4458 C 40.1012 37.2434 40.1993 37.0733 40.358 36.9767 C 40.4373 36.9284 40.5276 36.9042 40.6288 36.9042 C 40.8092 36.9042 40.9631 36.9965 41.0447 37.141 L 41.0214 37.1816 L 41.0214 36.9284 L 41.1603 36.9284 L 41.1603 37.9624 C 41.1603 38.1477 41.0685 38.2994 40.9155 38.3835 C 40.839 38.4255 40.7513 38.4465 40.6525 38.4465 Z  M 40.6352 37.8485 C 40.7796 37.8485 40.899 37.77 40.9682 37.6476 C 41.0029 37.5863 41.0202 37.5191 41.0202 37.4458 C 41.0202 37.2987 40.9451 37.1704 40.8299 37.0977 C 40.7723 37.0613 40.7074 37.0431 40.6352 37.0431 C 40.5619 37.0431 40.4959 37.0613 40.4373 37.0977 C 40.32 37.1704 40.2494 37.2971 40.2494 37.4458 C 40.2494 37.5924 40.3202 37.7212 40.4365 37.7939 C 40.4946 37.8303 40.5608 37.8485 40.6352 37.8485 Z  M 41.4784 38.0035 L 41.4784 36.9284 L 41.6174 36.9284 L 41.6174 37.1406 L 41.5851 37.1321 C 41.6367 36.992 41.768 36.9042 41.9306 36.9042 C 42.0061 36.9042 42.0743 36.9214 42.1352 36.9557 C 42.2571 37.0245 42.3341 37.1505 42.3341 37.3041 L 42.3341 38.0035 L 42.1952 38.0035 L 42.1952 37.3528 C 42.1952 37.2218 42.1436 37.1297 42.0569 37.0798 C 42.0135 37.0548 41.9639 37.0423 41.9081 37.0423 C 41.7357 37.0423 41.6174 37.1667 41.6174 37.3608 L 41.6174 38.0035 Z  M 43.121 38.0277 C 43.0203 38.0277 42.9294 38.0032 42.8484 37.9542 C 42.6862 37.8562 42.5858 37.678 42.5858 37.4627 C 42.5858 37.2469 42.6836 37.0733 42.8401 36.9767 C 42.9184 36.9284 43.0064 36.9042 43.1041 36.9042 C 43.408 36.9042 43.5986 37.1525 43.5986 37.4156 C 43.5986 37.4424 43.5963 37.4748 43.5909 37.5086 L 42.6724 37.5086 L 42.6724 37.3798 L 43.5112 37.3798 L 43.4464 37.4333 C 43.4673 37.2819 43.4002 37.1574 43.2901 37.0868 C 43.2351 37.0515 43.1731 37.0339 43.1041 37.0339 C 42.965 37.0339 42.8412 37.1106 42.7747 37.2386 C 42.7414 37.3027 42.7274 37.3779 42.7328 37.4643 C 42.7221 37.6372 42.7997 37.7716 42.9219 37.8439 C 42.9829 37.88 43.0493 37.898 43.121 37.898 C 43.2783 37.898 43.3877 37.8152 43.4564 37.6987 L 43.5748 37.7615 C 43.508 37.9081 43.336 38.0277 43.121 38.0277 Z  M 43.8724 38.0035 L 43.8724 36.9284 L 44.0113 36.9284 L 44.0113 37.1148 L 43.9904 37.0918 C 44.0392 36.9818 44.1498 36.9147 44.2996 36.9147 L 44.3677 36.9147 L 44.3677 37.0536 L 44.2783 37.0536 C 44.1151 37.0536 44.0113 37.1622 44.0113 37.3431 L 44.0113 38.0035 Z" fill="#b1dad7"/>
<path d="M 57.7054 20.97 L 57.7054 19.95 L 58.0765 19.95 C 58.2818 19.95 58.4242 20.0691 58.4242 20.269 C 58.4242 20.4004 58.3612 20.4972 58.2572 20.5483 C 58.2052 20.5739 58.1449 20.5866 58.0765 20.5866 L 57.8663 20.5866 L 57.8663 20.97 Z  M 57.8663 20.4429 L 58.0799 20.4429 C 58.1908 20.4429 58.2633 20.3737 58.2633 20.2683 C 58.2633 20.1615 58.1908 20.0938 58.0799 20.0938 L 57.8663 20.0938 Z  M 59.0099 20.97 L 59.0099 19.95 L 59.1708 19.95 L 59.1708 20.3998 L 59.6431 20.3998 L 59.6431 19.95 L 59.804 19.95 L 59.804 20.97 L 59.6431 20.97 L 59.6431 20.5435 L 59.1708 20.5435 L 59.1708 20.97 Z  M 60.9304 20.9864 C 60.7826 20.9864 60.6524 20.9314 60.557 20.8365 C 60.4616 20.7416 60.4047 20.6108 60.4047 20.4593 C 60.4047 20.3078 60.4609 20.1769 60.5563 20.0825 C 60.6517 19.988 60.7817 19.9336 60.9304 19.9336 C 61.228 19.9336 61.4562 20.1563 61.4562 20.4593 C 61.4562 20.6108 61.3993 20.7416 61.3039 20.8365 C 61.2085 20.9314 61.0783 20.9864 60.9304 20.9864 Z  M 60.9304 20.8392 C 61.1422 20.8392 61.2953 20.6747 61.2953 20.4593 C 61.2953 20.2991 61.2091 20.166 61.0763 20.1092 C 61.032 20.0902 60.9834 20.0808 60.9304 20.0808 C 60.8246 20.0808 60.7347 20.1202 60.6689 20.1896 C 60.6032 20.259 60.5656 20.3525 60.5656 20.4593 C 60.5656 20.6747 60.7205 20.8392 60.9304 20.8392 Z  M 62.0569 20.97 L 62.0569 19.95 L 62.1863 19.95 L 62.7593 20.74 L 62.697 20.7503 L 62.697 19.95 L 62.8579 19.95 L 62.8579 20.97 L 62.7278 20.97 L 62.1596 20.1745 L 62.2178 20.1643 L 62.2178 20.97 Z  M 63.4887 20.97 L 63.4887 19.95 L 64.1603 19.95 L 64.1603 20.0938 L 63.6496 20.0938 L 63.6496 20.3868 L 64.1329 20.3868 L 64.1329 20.5305 L 63.6496 20.5305 L 63.6496 20.8262 L 64.1603 20.8262 L 64.1603 20.97 Z" fill="#79c0ba"/>
<path d="M 58.5528 24.6614 C 58.245 24.6614 58.0054 24.4835 57.8757 24.1814 C 57.8108 24.0303 57.7784 23.8543 57.7784 23.6535 C 57.7784 23.2518 57.9149 22.9416 58.1459 22.7741 C 58.2614 22.6904 58.3962 22.6486 58.5502 22.6486 C 58.8591 22.6486 59.0962 22.8244 59.2258 23.1263 C 59.2905 23.2772 59.3229 23.453 59.3229 23.6537 C 59.3229 24.055 59.1888 24.3677 58.9575 24.5355 C 58.8419 24.6195 58.707 24.6614 58.5528 24.6614 Z  M 58.553 24.4353 C 58.872 24.4353 59.0813 24.1259 59.0813 23.6537 C 59.0813 23.3389 58.9887 23.0997 58.8306 22.9711 C 58.7516 22.9068 58.6581 22.8747 58.5503 22.8747 C 58.2316 22.8747 58.0221 23.1815 58.0221 23.6537 C 58.0221 23.965 58.1144 24.2073 58.2739 24.3376 C 58.3537 24.4028 58.4467 24.4353 58.553 24.4353 Z  M 60.5838 24.63 L 60.5838 24.1767 L 59.6143 24.1767 L 59.6143 23.9768 L 60.5792 22.68 L 60.806 22.68 L 60.806 23.9768 L 61.0552 23.9768 L 61.0552 24.1767 L 60.806 24.1767 L 60.806 24.63 Z  M 59.7977 24.065 L 59.765 23.9768 L 60.5838 23.9768 L 60.5838 22.884 L 60.6557 22.9046 Z  M 61.9336 24.6614 C 61.6263 24.6614 61.3706 24.491 61.2767 24.2176 L 61.4776 24.1318 C 61.5542 24.3281 61.7247 24.4461 61.9336 24.4461 C 62.1834 24.4461 62.36 24.2959 62.36 24.0359 C 62.36 23.7759 62.1822 23.6292 61.9314 23.6292 C 61.8806 23.6292 61.8161 23.6353 61.7763 23.6466 L 61.7253 23.5366 L 62.2468 22.8907 L 61.3729 22.8907 L 61.3729 22.68 L 62.5209 22.68 L 62.5209 22.8861 L 62.0251 23.5 L 62.0058 23.4431 C 62.1227 23.446 62.2262 23.4729 62.3162 23.5237 C 62.4961 23.6255 62.6037 23.8034 62.6037 24.0332 C 62.6037 24.2684 62.483 24.4669 62.281 24.578 C 62.1801 24.6336 62.0642 24.6614 61.9336 24.6614 Z  M 63.5489 24.6614 C 63.2443 24.6614 62.9834 24.4933 62.8904 24.2199 L 63.0849 24.1341 C 63.1226 24.2322 63.1842 24.3088 63.2699 24.3637 C 63.3555 24.4187 63.4485 24.4461 63.5489 24.4461 C 63.7926 24.4461 63.9691 24.2605 63.9691 24.0168 C 63.9691 23.7645 63.7904 23.5879 63.551 23.5879 C 63.4695 23.5879 63.3946 23.6065 63.3263 23.6436 C 63.258 23.6807 63.2082 23.7272 63.1769 23.7831 L 62.9827 23.7434 L 63.1311 22.68 L 64.1357 22.68 L 64.1357 22.8907 L 63.2225 22.8907 L 63.3161 22.8003 L 63.2001 23.629 L 63.1139 23.5818 C 63.23 23.433 63.3946 23.3729 63.573 23.3729 C 63.8261 23.3729 64.0226 23.4981 64.1313 23.6915 C 64.1857 23.7882 64.2129 23.8966 64.2129 24.0168 C 64.2129 24.26 64.09 24.4644 63.89 24.577 C 63.7901 24.6333 63.6763 24.6614 63.5489 24.6614 Z  M 65.6114 24.6614 C 65.3069 24.6614 65.046 24.4933 64.9529 24.2199 L 65.1474 24.1341 C 65.1851 24.2322 65.2468 24.3088 65.3324 24.3637 C 65.4181 24.4187 65.5111 24.4461 65.6114 24.4461 C 65.8551 24.4461 66.0317 24.2605 66.0317 24.0168 C 66.0317 23.7645 65.853 23.5879 65.6136 23.5879 C 65.5321 23.5879 65.4571 23.6065 65.3888 23.6436 C 65.3205 23.6807 65.2707 23.7272 65.2394 23.7831 L 65.0452 23.7434 L 65.1936 22.68 L 66.1983 22.68 L 66.1983 22.8907 L 65.2851 22.8907 L 65.3786 22.8003 L 65.2626 23.629 L 65.1765 23.5818 C 65.2925 23.433 65.4572 23.3729 65.6355 23.3729 C 65.8886 23.3729 66.0852 23.4981 66.1939 23.6915 C 66.2482 23.7882 66.2754 23.8966 66.2754 24.0168 C 66.2754 24.26 66.1525 24.4644 65.9526 24.577 C 65.8526 24.6333 65.7389 24.6614 65.6114 24.6614 Z  M 66.6392 24.63 L 67.5026 22.8907 L 66.5417 22.8907 L 66.5417 22.68 L 67.7565 22.68 L 67.7565 22.8907 L 66.8993 24.63 Z  M 68.9518 24.63 L 68.9518 24.1767 L 67.9822 24.1767 L 67.9822 23.9768 L 68.9472 22.68 L 69.174 22.68 L 69.174 23.9768 L 69.4231 23.9768 L 69.4231 24.1767 L 69.174 24.1767 L 69.174 24.63 Z  M 68.1657 24.065 L 68.133 23.9768 L 68.9518 23.9768 L 68.9518 22.884 L 69.0237 22.9046 Z  M 70.936 24.6614 C 70.6281 24.6614 70.3886 24.4835 70.2588 24.1814 C 70.194 24.0303 70.1615 23.8543 70.1615 23.6535 C 70.1615 23.2518 70.298 22.9416 70.5291 22.7741 C 70.6446 22.6904 70.7793 22.6486 70.9334 22.6486 C 71.2423 22.6486 71.4793 22.8244 71.6089 23.1263 C 71.6737 23.2772 71.7061 23.453 71.7061 23.6537 C 71.7061 24.055 71.5719 24.3677 71.3407 24.5355 C 71.225 24.6195 71.0901 24.6614 70.936 24.6614 Z  M 70.9362 24.4353 C 71.2552 24.4353 71.4645 24.1259 71.4645 23.6537 C 71.4645 23.3389 71.3718 23.0997 71.2138 22.9711 C 71.1348 22.9068 71.0413 22.8747 70.9334 22.8747 C 70.6147 22.8747 70.4053 23.1815 70.4053 23.6537 C 70.4053 23.965 70.4976 24.2073 70.6571 24.3376 C 70.7368 24.4028 70.8299 24.4353 70.9362 24.4353 Z  M 72.652 24.6614 C 72.3447 24.6614 72.0891 24.491 71.9951 24.2176 L 72.1961 24.1318 C 72.2727 24.3281 72.4432 24.4461 72.652 24.4461 C 72.9019 24.4461 73.0784 24.2959 73.0784 24.0359 C 73.0784 23.7759 72.9006 23.6292 72.6499 23.6292 C 72.599 23.6292 72.5346 23.6353 72.4948 23.6466 L 72.4438 23.5366 L 72.9653 22.8907 L 72.0913 22.8907 L 72.0913 22.68 L 73.2393 22.68 L 73.2393 22.8861 L 72.7436 23.5 L 72.7243 23.4431 C 72.8412 23.446 72.9446 23.4729 73.0346 23.5237 C 73.2146 23.6255 73.3222 23.8034 73.3222 24.0332 C 73.3222 24.2684 73.2015 24.4669 72.9995 24.578 C 72.8985 24.6336 72.7827 24.6614 72.652 24.6614 Z  M 74.2487 24.6614 C 73.9414 24.6614 73.6857 24.491 73.5918 24.2176 L 73.7927 24.1318 C 73.8693 24.3281 74.0398 24.4461 74.2487 24.4461 C 74.4985 24.4461 74.6751 24.2959 74.6751 24.0359 C 74.6751 23.7759 74.4973 23.6292 74.2465 23.6292 C 74.1957 23.6292 74.1312 23.6353 74.0914 23.6466 L 74.0404 23.5366 L 74.5619 22.8907 L 73.688 22.8907 L 73.688 22.68 L 74.836 22.68 L 74.836 22.8861 L 74.3402 23.5 L 74.3209 23.4431 C 74.4378 23.446 74.5413 23.4729 74.6313 23.5237 C 74.8112 23.6255 74.9188 23.8034 74.9188 24.0332 C 74.9188 24.2684 74.7981 24.4669 74.5961 24.578 C 74.4952 24.6336 74.3793 24.6614 74.2487 24.6614 Z" fill="#ffffff"/>
<path d="M 57.7054 29.05 L 57.7054 28.03 L 58.377 28.03 L 58.377 28.1738 L 57.8663 28.1738 L 57.8663 28.4668 L 58.3496 28.4668 L 58.3496 28.6105 L 57.8663 28.6105 L 57.8663 28.9062 L 58.377 28.9062 L 58.377 29.05 Z  M 58.9483 29.05 L 58.9483 28.03 L 59.0989 28.03 L 59.4815 28.5612 L 59.4069 28.5612 L 59.7834 28.03 L 59.934 28.03 L 59.934 29.05 L 59.7732 29.05 L 59.7732 28.221 L 59.8334 28.2374 L 59.4494 28.7625 L 59.4329 28.7625 L 59.0564 28.2374 L 59.1091 28.221 L 59.1091 29.05 Z  M 60.4745 29.05 L 60.8332 28.03 L 61.0331 28.03 L 61.3918 29.05 L 61.2186 29.05 L 61.1406 28.8214 L 60.7258 28.8214 L 60.647 29.05 Z  M 60.773 28.6776 L 61.092 28.6776 L 60.9106 28.1436 L 60.9558 28.1436 Z  M 61.9323 29.05 L 61.9323 28.03 L 62.0932 28.03 L 62.0932 29.05 Z  M 62.7247 29.05 L 62.7247 28.03 L 62.8856 28.03 L 62.8856 28.9062 L 63.3271 28.9062 L 63.3271 29.05 Z" fill="#79c0ba"/>
<path d="M 58.4576 32.7414 C 58.3235 32.7414 58.2016 32.7095 58.092 32.6456 C 57.8729 32.518 57.7339 32.2874 57.7339 32.0041 C 57.7339 31.723 57.8711 31.4945 58.0888 31.3668 C 58.1977 31.303 58.3206 31.2711 58.4576 31.2711 C 58.7317 31.2711 58.9576 31.4053 59.084 31.6258 C 59.1471 31.736 59.1787 31.8621 59.1787 32.0041 C 59.1787 32.2902 59.0371 32.5205 58.8197 32.6467 C 58.711 32.7098 58.5903 32.7414 58.4576 32.7414 Z  M 58.4576 32.5176 C 58.6381 32.5176 58.7878 32.4226 58.8719 32.2665 C 58.9139 32.1885 58.935 32.101 58.935 32.0041 C 58.935 31.8102 58.8448 31.6517 58.7009 31.5621 C 58.629 31.5173 58.5479 31.4948 58.4576 31.4948 C 58.2771 31.4948 58.1273 31.5911 58.0418 31.744 C 57.999 31.8204 57.9776 31.9071 57.9776 32.0041 C 57.9776 32.1979 58.0699 32.3613 58.2141 32.4506 C 58.2862 32.4953 58.3673 32.5176 58.4576 32.5176 Z  M 59.5033 32.71 L 59.5033 31.3025 L 59.7294 31.3025 L 59.7294 31.5765 L 59.689 31.5569 C 59.7582 31.3772 59.9244 31.2711 60.132 31.2711 C 60.334 31.2711 60.4995 31.3673 60.5917 31.5267 C 60.6378 31.6064 60.6608 31.6968 60.6608 31.7979 L 60.6608 32.71 L 60.4302 32.71 L 60.4302 31.875 C 60.4302 31.7144 60.3693 31.602 60.2648 31.5408 C 60.2125 31.5101 60.1524 31.4948 60.0844 31.4948 C 59.8804 31.4948 59.7339 31.6384 59.7339 31.875 L 59.7339 32.71 Z  M 61.0162 32.71 L 61.0162 31.3025 L 61.2422 31.3025 L 61.2422 31.5525 L 61.2161 31.5157 C 61.2818 31.3642 61.4213 31.2846 61.6145 31.2846 L 61.7026 31.2846 L 61.7026 31.5061 L 61.5796 31.5061 C 61.379 31.5061 61.2468 31.6354 61.2468 31.8627 L 61.2468 32.71 Z  M 62.3339 32.7414 C 62.0596 32.7414 61.8642 32.5779 61.8642 32.343 C 61.8642 32.1194 62.008 31.9502 62.3223 31.8979 L 62.8523 31.8099 L 62.8523 32.0071 L 62.3736 32.0877 C 62.187 32.1202 62.108 32.2112 62.108 32.3342 C 62.108 32.3937 62.1314 32.4435 62.1782 32.4838 C 62.225 32.5241 62.2851 32.5442 62.3585 32.5442 C 62.4489 32.5442 62.528 32.5248 62.5955 32.4861 C 62.7307 32.4087 62.8104 32.2704 62.8104 32.1092 L 62.8104 31.7504 C 62.8104 31.6719 62.7815 31.6078 62.7236 31.5582 C 62.6658 31.5086 62.5901 31.4838 62.4967 31.4838 C 62.3311 31.4838 62.1999 31.5762 62.1395 31.7105 L 61.9377 31.6045 C 61.9642 31.5415 62.0062 31.4848 62.0636 31.4344 C 62.1786 31.3336 62.3349 31.2711 62.4999 31.2711 C 62.6059 31.2711 62.6997 31.2914 62.7814 31.3322 C 62.9448 31.4137 63.0411 31.5618 63.0411 31.7504 L 63.0411 32.71 L 62.815 32.71 L 62.815 32.4386 L 62.8543 32.4596 C 62.7719 32.6222 62.5772 32.7414 62.3339 32.7414 Z  M 63.4242 32.71 L 63.4242 31.3025 L 63.6549 31.3025 L 63.6549 32.71 Z  M 63.4242 31.0662 L 63.4242 30.76 L 63.6549 30.76 L 63.6549 31.0662 Z  M 64.5364 32.7414 C 64.398 32.7414 64.277 32.7068 64.1732 32.6377 C 64.0694 32.5686 63.9951 32.4748 63.9503 32.3564 L 64.1368 32.2678 C 64.2158 32.4357 64.3655 32.5419 64.5364 32.5419 C 64.6152 32.5419 64.681 32.523 64.7337 32.4852 C 64.7864 32.4474 64.8128 32.3976 64.8128 32.3359 C 64.8128 32.248 64.7551 32.1984 64.6873 32.1683 C 64.6534 32.1532 64.6222 32.142 64.5937 32.1347 L 64.3848 32.0753 C 64.1308 32.0032 64.0188 31.863 64.0188 31.6836 C 64.0188 31.4339 64.2305 31.2711 64.5023 31.2711 C 64.6247 31.2711 64.735 31.3023 64.8334 31.3649 C 64.9318 31.4274 65.0013 31.5145 65.0421 31.6259 L 64.853 31.7145 C 64.7881 31.5642 64.6527 31.4729 64.4959 31.4729 C 64.3486 31.4729 64.2537 31.5548 64.2537 31.6684 C 64.2537 31.7951 64.3725 31.8387 64.4513 31.8614 L 64.6833 31.9295 C 64.912 31.9964 65.0455 32.1416 65.0455 32.3332 C 65.0455 32.491 64.9535 32.6202 64.801 32.6895 C 64.7247 32.7241 64.6365 32.7414 64.5364 32.7414 Z  M 65.9347 32.7257 C 65.667 32.7257 65.5156 32.5661 65.5156 32.2829 L 65.5156 31.524 L 65.2596 31.524 L 65.2596 31.3025 L 65.3159 31.3025 C 65.4395 31.3025 65.5156 31.2169 65.5156 31.0934 L 65.5156 30.9779 L 65.7462 30.9779 L 65.7462 31.3025 L 66.0597 31.3025 L 66.0597 31.524 L 65.7462 31.524 L 65.7462 32.2783 C 65.7462 32.4206 65.8079 32.515 65.9788 32.515 C 66.0062 32.515 66.0478 32.5106 66.0769 32.5071 L 66.0769 32.71 C 66.0332 32.7199 65.971 32.7257 65.9347 32.7257 Z  M 66.9029 32.7414 C 66.7014 32.7414 66.5333 32.6428 66.4423 32.4749 C 66.3968 32.391 66.3741 32.294 66.3741 32.184 L 66.3741 31.3025 L 66.6047 31.3025 L 66.6047 32.159 C 66.6047 32.3731 66.7471 32.5176 66.9507 32.5176 C 67.1553 32.5176 67.301 32.3731 67.301 32.1374 L 67.301 31.3025 L 67.5316 31.3025 L 67.5316 32.71 L 67.3056 32.71 L 67.3056 32.436 L 67.3459 32.4556 C 67.2796 32.6352 67.1105 32.7414 66.9029 32.7414 Z  M 68.5561 32.7414 C 68.4237 32.7414 68.3046 32.7093 68.199 32.6452 C 67.9878 32.5169 67.8582 32.2848 67.8582 32.0062 C 67.8582 31.8652 67.8887 31.7395 67.9496 31.6291 C 68.0716 31.4083 68.2891 31.2711 68.5556 31.2711 C 68.7909 31.2711 68.9815 31.3783 69.0872 31.5501 L 69.0508 31.6092 L 69.0508 30.7286 L 69.2814 30.7286 L 69.2814 32.71 L 69.0553 32.71 L 69.0553 32.4051 L 69.0877 32.443 C 68.9899 32.6344 68.7889 32.7414 68.5561 32.7414 Z  M 68.5729 32.5176 C 68.6632 32.5176 68.7444 32.4953 68.8165 32.4506 C 68.9606 32.3613 69.0508 32.2001 69.0508 32.0062 C 69.0508 31.8124 68.9606 31.6512 68.8165 31.5619 C 68.7444 31.5172 68.6632 31.4948 68.5729 31.4948 C 68.4841 31.4948 68.4038 31.5173 68.332 31.5621 C 68.1883 31.6517 68.1019 31.8095 68.1019 32.0062 C 68.1019 32.2001 68.1887 32.3613 68.3309 32.4506 C 68.402 32.4953 68.4827 32.5176 68.5729 32.5176 Z  M 69.6642 32.71 L 69.6642 31.3025 L 69.8949 31.3025 L 69.8949 32.71 Z  M 69.6642 31.0662 L 69.6642 30.76 L 69.8949 30.76 L 69.8949 31.0662 Z  M 70.9428 32.7414 C 70.8087 32.7414 70.6868 32.7095 70.5773 32.6456 C 70.3582 32.518 70.2191 32.2874 70.2191 32.0041 C 70.2191 31.723 70.3564 31.4945 70.574 31.3668 C 70.6829 31.303 70.8058 31.2711 70.9428 31.2711 C 71.2169 31.2711 71.4429 31.4053 71.5692 31.6258 C 71.6324 31.736 71.6639 31.8621 71.6639 32.0041 C 71.6639 32.2902 71.5223 32.5205 71.3049 32.6467 C 71.1962 32.7098 71.0755 32.7414 70.9428 32.7414 Z  M 70.9428 32.5176 C 71.1234 32.5176 71.273 32.4226 71.3571 32.2665 C 71.3992 32.1885 71.4202 32.101 71.4202 32.0041 C 71.4202 31.8102 71.33 31.6517 71.1861 31.5621 C 71.1142 31.5173 71.0331 31.4948 70.9428 31.4948 C 70.7623 31.4948 70.6126 31.5911 70.527 31.744 C 70.4843 31.8204 70.4629 31.9071 70.4629 32.0041 C 70.4629 32.1979 70.5551 32.3613 70.6993 32.4506 C 70.7714 32.4953 70.8526 32.5176 70.9428 32.5176 Z  M 73.06 33.2587 C 72.748 33.2587 72.4763 33.144 72.2759 32.945 C 72.0754 32.7461 71.9597 32.4744 71.9597 32.1647 C 71.9597 31.8549 72.0779 31.5846 72.277 31.3886 C 72.476 31.1925 72.7506 31.0771 73.0591 31.0771 C 73.3763 31.0771 73.6478 31.2001 73.8415 31.4005 C 74.0352 31.6008 74.1459 31.8664 74.1459 32.156 C 74.1459 32.4876 73.9799 32.71 73.7067 32.71 C 73.5408 32.71 73.3797 32.6149 73.3495 32.4386 L 73.3959 32.4955 C 73.3204 32.6341 73.1705 32.71 72.9934 32.71 C 72.791 32.71 72.6206 32.6058 72.5255 32.438 C 72.4779 32.3541 72.4541 32.2589 72.4541 32.1525 C 72.4541 31.9402 72.5554 31.7649 72.7192 31.6642 C 72.8011 31.6139 72.8933 31.5887 72.9957 31.5887 C 73.1667 31.5887 73.3153 31.6612 73.3906 31.7826 L 73.3704 31.8277 L 73.3704 31.6149 L 73.5566 31.6149 L 73.5566 32.3235 C 73.5566 32.4514 73.6161 32.5107 73.7107 32.5107 C 73.8494 32.5107 73.929 32.3964 73.929 32.1576 C 73.929 31.6599 73.5823 31.2786 73.06 31.2786 C 72.8053 31.2786 72.5846 31.3711 72.4262 31.5298 C 72.2678 31.6885 72.1766 31.9062 72.1766 32.162 C 72.1766 32.5389 72.378 32.8506 72.7036 32.9883 C 72.8122 33.0342 72.9323 33.0571 73.0639 33.0571 C 73.2228 33.0571 73.3742 33.022 73.4947 32.9526 L 73.5871 33.1266 C 73.4351 33.2147 73.2594 33.2587 73.06 33.2587 Z  M 73.0063 32.5107 C 73.2041 32.5107 73.3456 32.354 73.3456 32.1485 C 73.3456 32.0449 73.3136 31.9598 73.2496 31.8931 C 73.1855 31.8265 73.1046 31.793 73.0068 31.7927 C 72.8784 31.7921 72.7695 31.8581 72.7114 31.9658 C 72.6823 32.0196 72.6678 32.0811 72.6678 32.1502 C 72.6678 32.3523 72.8138 32.5107 73.0063 32.5107 Z  M 75.0888 33.2858 C 74.9903 33.2858 74.8994 33.2704 74.816 33.2395 C 74.6491 33.1777 74.5264 33.0673 74.4642 32.9238 L 74.6769 32.8215 C 74.7033 32.8878 74.7512 32.9445 74.8206 32.9915 C 74.89 33.0385 74.9779 33.062 75.0844 33.062 C 75.33 33.062 75.5303 32.9166 75.5303 32.6514 L 75.5303 32.3371 L 75.5694 32.3774 C 75.4717 32.5725 75.2741 32.6804 75.0509 32.6804 C 74.9198 32.6804 74.8018 32.6492 74.6971 32.5868 C 74.4877 32.4621 74.3599 32.238 74.3599 31.975 C 74.3599 31.8421 74.3899 31.7226 74.45 31.6167 C 74.5701 31.4047 74.7849 31.2711 75.0496 31.2711 C 75.2727 31.2711 75.4613 31.3781 75.5694 31.5543 L 75.5348 31.6161 L 75.5348 31.3025 L 75.7609 31.3025 L 75.7609 32.6514 C 75.7609 32.7727 75.7322 32.8812 75.6747 32.9769 C 75.5598 33.1683 75.3501 33.2858 75.0888 33.2858 Z  M 75.0692 32.4561 C 75.2421 32.4561 75.3852 32.3635 75.4681 32.2176 C 75.5095 32.1447 75.5303 32.0641 75.5303 31.9759 C 75.5303 31.7995 75.44 31.646 75.3019 31.5596 C 75.2329 31.5164 75.1553 31.4948 75.0692 31.4948 C 74.8934 31.4948 74.7448 31.5882 74.6641 31.7329 C 74.6238 31.8053 74.6037 31.8863 74.6037 31.9759 C 74.6037 32.1517 74.6895 32.305 74.8299 32.3913 C 74.9001 32.4345 74.9798 32.4561 75.0692 32.4561 Z  M 76.145 32.71 L 76.145 31.3025 L 76.3711 31.3025 L 76.3711 31.5836 L 76.3383 31.5412 C 76.409 31.3674 76.5741 31.2711 76.7629 31.2711 C 76.873 31.2711 76.9718 31.3015 77.0595 31.3624 C 77.1472 31.4234 77.2082 31.503 77.2424 31.6013 L 77.1773 31.6053 C 77.2144 31.4956 77.2762 31.4125 77.3627 31.3559 C 77.4492 31.2993 77.5459 31.2711 77.6527 31.2711 C 77.8442 31.2711 78.0108 31.3673 78.1059 31.5267 C 78.1534 31.6064 78.1771 31.6968 78.1771 31.7978 L 78.1771 32.71 L 77.9465 32.71 L 77.9465 31.875 C 77.9465 31.7144 77.8852 31.602 77.786 31.5408 C 77.7364 31.5101 77.6789 31.4948 77.6136 31.4948 C 77.4229 31.4948 77.2764 31.6384 77.2764 31.875 L 77.2764 32.71 L 77.0458 32.71 L 77.0458 31.875 C 77.0458 31.7144 76.9844 31.602 76.8852 31.5408 C 76.8356 31.5101 76.7782 31.4948 76.7129 31.4948 C 76.5179 31.4948 76.3757 31.6384 76.3757 31.875 L 76.3757 32.71 Z  M 78.9443 32.7414 C 78.6699 32.7414 78.4746 32.5779 78.4746 32.343 C 78.4746 32.1194 78.6183 31.9502 78.9327 31.8979 L 79.4626 31.8099 L 79.4626 32.0071 L 78.9839 32.0877 C 78.7974 32.1202 78.7183 32.2112 78.7183 32.3342 C 78.7183 32.3937 78.7417 32.4435 78.7885 32.4838 C 78.8354 32.5241 78.8955 32.5442 78.9688 32.5442 C 79.0593 32.5442 79.1383 32.5248 79.2059 32.4861 C 79.341 32.4087 79.4208 32.2704 79.4208 32.1092 L 79.4208 31.7504 C 79.4208 31.6719 79.3918 31.6078 79.334 31.5582 C 79.2761 31.5086 79.2004 31.4838 79.107 31.4838 C 78.9415 31.4838 78.8102 31.5762 78.7498 31.7105 L 78.548 31.6045 C 78.5745 31.5415 78.6165 31.4848 78.674 31.4344 C 78.7889 31.3336 78.9452 31.2711 79.1102 31.2711 C 79.2162 31.2711 79.3101 31.2914 79.3917 31.3322 C 79.5551 31.4137 79.6514 31.5618 79.6514 31.7504 L 79.6514 32.71 L 79.4253 32.71 L 79.4253 32.4386 L 79.4647 32.4596 C 79.3822 32.6222 79.1875 32.7414 78.9443 32.7414 Z  M 80.0346 32.71 L 80.0346 31.3025 L 80.2652 31.3025 L 80.2652 32.71 Z  M 80.0346 31.0662 L 80.0346 30.76 L 80.2652 30.76 L 80.2652 31.0662 Z  M 80.647 32.71 L 80.647 30.7286 L 80.8777 30.7286 L 80.8777 32.71 Z  M 81.3496 32.71 L 81.3496 32.4038 L 81.591 32.4038 L 81.591 32.71 Z  M 82.7149 32.7414 C 82.5761 32.7414 82.4535 32.7091 82.3472 32.6443 C 82.1344 32.5149 82.0055 32.2834 82.0055 32.0036 C 82.0055 31.7238 82.1339 31.4945 82.3469 31.3668 C 82.4535 31.303 82.5761 31.2711 82.7149 31.2711 C 82.8961 31.2711 83.0583 31.3404 83.1788 31.4511 C 83.2391 31.5064 83.2839 31.5707 83.3132 31.6438 L 83.1069 31.7451 C 83.0407 31.5962 82.8944 31.4948 82.7149 31.4948 C 82.5385 31.4948 82.3914 31.588 82.3102 31.7427 C 82.2695 31.82 82.2492 31.9079 82.2492 32.0062 C 82.2492 32.2001 82.3358 32.3613 82.4768 32.4506 C 82.5473 32.4953 82.6267 32.5176 82.7149 32.5176 C 82.895 32.5176 83.0378 32.4177 83.1069 32.2631 L 83.3132 32.3691 C 83.2842 32.4399 83.2395 32.5034 83.1793 32.5596 C 83.0588 32.6721 82.8967 32.7414 82.7149 32.7414 Z  M 84.3049 32.7414 C 84.1708 32.7414 84.0489 32.7095 83.9394 32.6456 C 83.7202 32.518 83.5812 32.2874 83.5812 32.0041 C 83.5812 31.723 83.7184 31.4945 83.9361 31.3668 C 84.045 31.303 84.1679 31.2711 84.3049 31.2711 C 84.579 31.2711 84.8049 31.4053 84.9313 31.6258 C 84.9944 31.736 85.026 31.8621 85.026 32.0041 C 85.026 32.2902 84.8844 32.5205 84.667 32.6467 C 84.5583 32.7098 84.4376 32.7414 84.3049 32.7414 Z  M 84.3049 32.5176 C 84.4854 32.5176 84.6351 32.4226 84.7192 32.2665 C 84.7613 32.1885 84.7823 32.101 84.7823 32.0041 C 84.7823 31.8102 84.6921 31.6517 84.5482 31.5621 C 84.4763 31.5173 84.3952 31.4948 84.3049 31.4948 C 84.1244 31.4948 83.9747 31.5911 83.8891 31.744 C 83.8463 31.8204 83.8249 31.9071 83.8249 32.0041 C 83.8249 32.1979 83.9172 32.3613 84.0614 32.4506 C 84.1335 32.4953 84.2147 32.5176 84.3049 32.5176 Z  M 85.3506 32.71 L 85.3506 31.3025 L 85.5767 31.3025 L 85.5767 31.5836 L 85.5439 31.5412 C 85.6146 31.3674 85.7797 31.2711 85.9685 31.2711 C 86.0785 31.2711 86.1774 31.3015 86.2651 31.3624 C 86.3528 31.4234 86.4138 31.503 86.448 31.6013 L 86.3829 31.6053 C 86.42 31.4956 86.4817 31.4125 86.5683 31.3559 C 86.6548 31.2993 86.7515 31.2711 86.8583 31.2711 C 87.0498 31.2711 87.2164 31.3673 87.3114 31.5267 C 87.359 31.6064 87.3827 31.6968 87.3827 31.7978 L 87.3827 32.71 L 87.1521 32.71 L 87.1521 31.875 C 87.1521 31.7144 87.0907 31.602 86.9915 31.5408 C 86.9419 31.5101 86.8845 31.4948 86.8192 31.4948 C 86.6285 31.4948 86.482 31.6384 86.482 31.875 L 86.482 32.71 L 86.2513 32.71 L 86.2513 31.875 C 86.2513 31.7144 86.19 31.602 86.0908 31.5408 C 86.0412 31.5101 85.9838 31.4948 85.9184 31.4948 C 85.7234 31.4948 85.5813 31.6384 85.5813 31.875 L 85.5813 32.71 Z" fill="#ffffff"/>
<path d="M 57.895 37.13 L 57.6151 36.11 L 57.7855 36.11 L 58.0128 36.9938 L 57.9703 36.9938 L 58.2065 36.11 L 58.3742 36.11 L 58.6097 36.9938 L 58.5666 36.9938 L 58.7946 36.11 L 58.965 36.11 L 58.685 37.13 L 58.5036 37.13 L 58.2661 36.2606 L 58.314 36.2606 L 58.0765 37.13 Z  M 59.5055 37.13 L 59.5055 36.11 L 60.1771 36.11 L 60.1771 36.2538 L 59.6664 36.2538 L 59.6664 36.5468 L 60.1497 36.5468 L 60.1497 36.6905 L 59.6664 36.6905 L 59.6664 36.9862 L 60.1771 36.9862 L 60.1771 37.13 Z  M 60.7483 37.13 L 60.7483 36.11 L 61.1783 36.11 C 61.3699 36.11 61.4877 36.2161 61.4877 36.3872 C 61.4877 36.4849 61.4379 36.5703 61.333 36.6186 L 61.3323 36.5502 C 61.4733 36.6036 61.5294 36.7063 61.5294 36.8226 C 61.5294 36.9185 61.4983 36.9937 61.436 37.0482 C 61.3737 37.1027 61.288 37.13 61.1789 37.13 Z  M 60.9092 36.9862 L 61.1913 36.9862 C 61.299 36.9862 61.3686 36.9228 61.3686 36.8233 C 61.3686 36.7238 61.299 36.659 61.1913 36.659 L 60.9092 36.659 Z  M 60.9092 36.5173 L 61.1817 36.5173 C 61.2693 36.5173 61.3268 36.4616 61.3268 36.3804 C 61.3268 36.2983 61.2693 36.2503 61.1817 36.2503 L 60.9092 36.2503 Z" fill="#79c0ba"/>
<path d="M 58.4576 40.8214 C 58.3235 40.8214 58.2016 40.7895 58.092 40.7256 C 57.8729 40.598 57.7339 40.3674 57.7339 40.0841 C 57.7339 39.803 57.8711 39.5745 58.0888 39.4468 C 58.1977 39.383 58.3206 39.3511 58.4576 39.3511 C 58.7317 39.3511 58.9576 39.4853 59.084 39.7058 C 59.1471 39.816 59.1787 39.9421 59.1787 40.0841 C 59.1787 40.3702 59.0371 40.6005 58.8197 40.7267 C 58.711 40.7898 58.5903 40.8214 58.4576 40.8214 Z  M 58.4576 40.5976 C 58.6381 40.5976 58.7878 40.5026 58.8719 40.3465 C 58.9139 40.2685 58.935 40.181 58.935 40.0841 C 58.935 39.8902 58.8448 39.7317 58.7009 39.6421 C 58.629 39.5973 58.5479 39.5748 58.4576 39.5748 C 58.2771 39.5748 58.1273 39.6711 58.0418 39.824 C 57.999 39.9004 57.9776 39.9871 57.9776 40.0841 C 57.9776 40.2779 58.0699 40.4413 58.2141 40.5306 C 58.2862 40.5753 58.3673 40.5976 58.4576 40.5976 Z  M 59.5033 40.79 L 59.5033 39.3825 L 59.7294 39.3825 L 59.7294 39.6565 L 59.689 39.6369 C 59.7582 39.4572 59.9244 39.3511 60.132 39.3511 C 60.334 39.3511 60.4995 39.4473 60.5917 39.6067 C 60.6378 39.6864 60.6608 39.7768 60.6608 39.8779 L 60.6608 40.79 L 60.4302 40.79 L 60.4302 39.955 C 60.4302 39.7944 60.3693 39.682 60.2648 39.6208 C 60.2125 39.5901 60.1524 39.5748 60.0844 39.5748 C 59.8804 39.5748 59.7339 39.7184 59.7339 39.955 L 59.7339 40.79 Z  M 61.0162 40.79 L 61.0162 39.3825 L 61.2422 39.3825 L 61.2422 39.6325 L 61.2161 39.5957 C 61.2818 39.4442 61.4213 39.3646 61.6145 39.3646 L 61.7026 39.3646 L 61.7026 39.5861 L 61.5796 39.5861 C 61.379 39.5861 61.2468 39.7154 61.2468 39.9427 L 61.2468 40.79 Z  M 62.3339 40.8214 C 62.0596 40.8214 61.8642 40.6579 61.8642 40.423 C 61.8642 40.1994 62.008 40.0302 62.3223 39.9779 L 62.8523 39.8899 L 62.8523 40.0871 L 62.3736 40.1677 C 62.187 40.2002 62.108 40.2912 62.108 40.4142 C 62.108 40.4737 62.1314 40.5235 62.1782 40.5638 C 62.225 40.6041 62.2851 40.6242 62.3585 40.6242 C 62.4489 40.6242 62.528 40.6048 62.5955 40.5661 C 62.7307 40.4887 62.8104 40.3504 62.8104 40.1892 L 62.8104 39.8304 C 62.8104 39.7519 62.7815 39.6878 62.7236 39.6382 C 62.6658 39.5886 62.5901 39.5638 62.4967 39.5638 C 62.3311 39.5638 62.1999 39.6562 62.1395 39.7905 L 61.9377 39.6845 C 61.9642 39.6215 62.0062 39.5648 62.0636 39.5144 C 62.1786 39.4136 62.3349 39.3511 62.4999 39.3511 C 62.6059 39.3511 62.6997 39.3714 62.7814 39.4122 C 62.9448 39.4937 63.0411 39.6418 63.0411 39.8304 L 63.0411 40.79 L 62.815 40.79 L 62.815 40.5186 L 62.8543 40.5396 C 62.7719 40.7022 62.5772 40.8214 62.3339 40.8214 Z  M 63.4242 40.79 L 63.4242 39.3825 L 63.6549 39.3825 L 63.6549 40.79 Z  M 63.4242 39.1462 L 63.4242 38.84 L 63.6549 38.84 L 63.6549 39.1462 Z  M 64.5364 40.8214 C 64.398 40.8214 64.277 40.7868 64.1732 40.7177 C 64.0694 40.6486 63.9951 40.5548 63.9503 40.4364 L 64.1368 40.3478 C 64.2158 40.5157 64.3655 40.6219 64.5364 40.6219 C 64.6152 40.6219 64.681 40.603 64.7337 40.5652 C 64.7864 40.5274 64.8128 40.4776 64.8128 40.4159 C 64.8128 40.328 64.7551 40.2784 64.6873 40.2483 C 64.6534 40.2332 64.6222 40.222 64.5937 40.2147 L 64.3848 40.1553 C 64.1308 40.0832 64.0188 39.943 64.0188 39.7636 C 64.0188 39.5139 64.2305 39.3511 64.5023 39.3511 C 64.6247 39.3511 64.735 39.3823 64.8334 39.4449 C 64.9318 39.5074 65.0013 39.5945 65.0421 39.7059 L 64.853 39.7945 C 64.7881 39.6442 64.6527 39.5529 64.4959 39.5529 C 64.3486 39.5529 64.2537 39.6348 64.2537 39.7484 C 64.2537 39.8751 64.3725 39.9187 64.4513 39.9414 L 64.6833 40.0095 C 64.912 40.0764 65.0455 40.2216 65.0455 40.4132 C 65.0455 40.571 64.9535 40.7002 64.801 40.7695 C 64.7247 40.8041 64.6365 40.8214 64.5364 40.8214 Z  M 65.9347 40.8057 C 65.667 40.8057 65.5156 40.6461 65.5156 40.3629 L 65.5156 39.604 L 65.2596 39.604 L 65.2596 39.3825 L 65.3159 39.3825 C 65.4395 39.3825 65.5156 39.2969 65.5156 39.1734 L 65.5156 39.0579 L 65.7462 39.0579 L 65.7462 39.3825 L 66.0597 39.3825 L 66.0597 39.604 L 65.7462 39.604 L 65.7462 40.3583 C 65.7462 40.5006 65.8079 40.595 65.9788 40.595 C 66.0062 40.595 66.0478 40.5906 66.0769 40.5871 L 66.0769 40.79 C 66.0332 40.7999 65.971 40.8057 65.9347 40.8057 Z  M 66.9029 40.8214 C 66.7014 40.8214 66.5333 40.7228 66.4423 40.5549 C 66.3968 40.471 66.3741 40.374 66.3741 40.264 L 66.3741 39.3825 L 66.6047 39.3825 L 66.6047 40.239 C 66.6047 40.4531 66.7471 40.5976 66.9507 40.5976 C 67.1553 40.5976 67.301 40.4531 67.301 40.2174 L 67.301 39.3825 L 67.5316 39.3825 L 67.5316 40.79 L 67.3056 40.79 L 67.3056 40.516 L 67.3459 40.5356 C 67.2796 40.7152 67.1105 40.8214 66.9029 40.8214 Z  M 68.5561 40.8214 C 68.4237 40.8214 68.3046 40.7893 68.199 40.7252 C 67.9878 40.5969 67.8582 40.3648 67.8582 40.0862 C 67.8582 39.9452 67.8887 39.8195 67.9496 39.7091 C 68.0716 39.4883 68.2891 39.3511 68.5556 39.3511 C 68.7909 39.3511 68.9815 39.4583 69.0872 39.6301 L 69.0508 39.6892 L 69.0508 38.8086 L 69.2814 38.8086 L 69.2814 40.79 L 69.0553 40.79 L 69.0553 40.4851 L 69.0877 40.523 C 68.9899 40.7144 68.7889 40.8214 68.5561 40.8214 Z  M 68.5729 40.5976 C 68.6632 40.5976 68.7444 40.5753 68.8165 40.5306 C 68.9606 40.4413 69.0508 40.2801 69.0508 40.0862 C 69.0508 39.8924 68.9606 39.7312 68.8165 39.6419 C 68.7444 39.5972 68.6632 39.5748 68.5729 39.5748 C 68.4841 39.5748 68.4038 39.5973 68.332 39.6421 C 68.1883 39.7317 68.1019 39.8895 68.1019 40.0862 C 68.1019 40.2801 68.1887 40.4413 68.3309 40.5306 C 68.402 40.5753 68.4827 40.5976 68.5729 40.5976 Z  M 69.6642 40.79 L 69.6642 39.3825 L 69.8949 39.3825 L 69.8949 40.79 Z  M 69.6642 39.1462 L 69.6642 38.84 L 69.8949 38.84 L 69.8949 39.1462 Z  M 70.9428 40.8214 C 70.8087 40.8214 70.6868 40.7895 70.5773 40.7256 C 70.3582 40.598 70.2191 40.3674 70.2191 40.0841 C 70.2191 39.803 70.3564 39.5745 70.574 39.4468 C 70.6829 39.383 70.8058 39.3511 70.9428 39.3511 C 71.2169 39.3511 71.4429 39.4853 71.5692 39.7058 C 71.6324 39.816 71.6639 39.9421 71.6639 40.0841 C 71.6639 40.3702 71.5223 40.6005 71.3049 40.7267 C 71.1962 40.7898 71.0755 40.8214 70.9428 40.8214 Z  M 70.9428 40.5976 C 71.1234 40.5976 71.273 40.5026 71.3571 40.3465 C 71.3992 40.2685 71.4202 40.181 71.4202 40.0841 C 71.4202 39.8902 71.33 39.7317 71.1861 39.6421 C 71.1142 39.5973 71.0331 39.5748 70.9428 39.5748 C 70.7623 39.5748 70.6126 39.6711 70.527 39.824 C 70.4843 39.9004 70.4629 39.9871 70.4629 40.0841 C 70.4629 40.2779 70.5551 40.4413 70.6993 40.5306 C 70.7714 40.5753 70.8526 40.5976 70.9428 40.5976 Z  M 72.0786 40.79 L 72.0786 40.4838 L 72.32 40.4838 L 72.32 40.79 Z  M 73.4439 40.8214 C 73.3051 40.8214 73.1825 40.7891 73.0762 40.7243 C 72.8634 40.5949 72.7345 40.3634 72.7345 40.0836 C 72.7345 39.8038 72.8629 39.5745 73.0759 39.4468 C 73.1825 39.383 73.3051 39.3511 73.4439 39.3511 C 73.6251 39.3511 73.7873 39.4204 73.9078 39.5311 C 73.9681 39.5864 74.0129 39.6507 74.0422 39.7238 L 73.8358 39.8251 C 73.7697 39.6762 73.6234 39.5748 73.4439 39.5748 C 73.2675 39.5748 73.1204 39.668 73.0392 39.8227 C 72.9985 39.9 72.9782 39.9879 72.9782 40.0862 C 72.9782 40.2801 73.0648 40.4413 73.2058 40.5306 C 73.2763 40.5753 73.3557 40.5976 73.4439 40.5976 C 73.624 40.5976 73.7668 40.4977 73.8358 40.3431 L 74.0422 40.4491 C 74.0132 40.5199 73.9685 40.5834 73.9083 40.6396 C 73.7878 40.7521 73.6257 40.8214 73.4439 40.8214 Z  M 75.0339 40.8214 C 74.8998 40.8214 74.7779 40.7895 74.6684 40.7256 C 74.4492 40.598 74.3102 40.3674 74.3102 40.0841 C 74.3102 39.803 74.4474 39.5745 74.6651 39.4468 C 74.774 39.383 74.8969 39.3511 75.0339 39.3511 C 75.308 39.3511 75.5339 39.4853 75.6603 39.7058 C 75.7234 39.816 75.755 39.9421 75.755 40.0841 C 75.755 40.3702 75.6134 40.6005 75.396 40.7267 C 75.2873 40.7898 75.1666 40.8214 75.0339 40.8214 Z  M 75.0339 40.5976 C 75.2144 40.5976 75.3641 40.5026 75.4482 40.3465 C 75.4902 40.2685 75.5113 40.181 75.5113 40.0841 C 75.5113 39.8902 75.4211 39.7317 75.2772 39.6421 C 75.2053 39.5973 75.1242 39.5748 75.0339 39.5748 C 74.8534 39.5748 74.7036 39.6711 74.6181 39.824 C 74.5753 39.9004 74.5539 39.9871 74.5539 40.0841 C 74.5539 40.2779 74.6462 40.4413 74.7904 40.5306 C 74.8625 40.5753 74.9437 40.5976 75.0339 40.5976 Z  M 76.0796 40.79 L 76.0796 39.3825 L 76.3057 39.3825 L 76.3057 39.6636 L 76.2729 39.6212 C 76.3436 39.4474 76.5087 39.3511 76.6975 39.3511 C 76.8075 39.3511 76.9064 39.3815 76.9941 39.4424 C 77.0818 39.5034 77.1427 39.583 77.177 39.6813 L 77.1119 39.6853 C 77.1489 39.5756 77.2107 39.4925 77.2973 39.4359 C 77.3838 39.3793 77.4805 39.3511 77.5873 39.3511 C 77.7788 39.3511 77.9454 39.4473 78.0404 39.6067 C 78.0879 39.6864 78.1117 39.7768 78.1117 39.8778 L 78.1117 40.79 L 77.881 40.79 L 77.881 39.955 C 77.881 39.7944 77.8197 39.682 77.7205 39.6208 C 77.6709 39.5901 77.6135 39.5748 77.5482 39.5748 C 77.3575 39.5748 77.211 39.7184 77.211 39.955 L 77.211 40.79 L 76.9803 40.79 L 76.9803 39.955 C 76.9803 39.7944 76.919 39.682 76.8198 39.6208 C 76.7702 39.5901 76.7127 39.5748 76.6474 39.5748 C 76.4524 39.5748 76.3102 39.7184 76.3102 39.955 L 76.3102 40.79 Z" fill="#ffffff"/>
<path d="M 57.7054 45.21 L 57.7054 44.19 L 57.8663 44.19 L 57.8663 45.21 Z  M 58.4978 45.21 L 58.4978 44.19 L 58.6272 44.19 L 59.2002 44.98 L 59.1379 44.9903 L 59.1379 44.19 L 59.2988 44.19 L 59.2988 45.21 L 59.1687 45.21 L 58.6005 44.4145 L 58.6587 44.4043 L 58.6587 45.21 Z  M 60.287 45.2264 C 60.2226 45.2264 60.1632 45.2144 60.1086 45.1905 C 59.9996 45.1426 59.92 45.0551 59.8844 44.9464 L 60.0207 44.8889 C 60.0699 45.014 60.1697 45.0847 60.2938 45.0847 C 60.4033 45.0847 60.4752 45.0293 60.4752 44.9458 C 60.4752 44.8718 60.4328 44.8301 60.3506 44.8054 L 60.1589 44.7452 C 60.0056 44.6977 59.9241 44.5953 59.9241 44.4638 C 59.9241 44.3497 59.9835 44.2598 60.083 44.2105 C 60.1327 44.1859 60.1895 44.1736 60.2534 44.1736 C 60.3757 44.1736 60.4785 44.2199 60.5502 44.2947 C 60.586 44.3322 60.6123 44.3755 60.6292 44.4248 L 60.4951 44.483 C 60.454 44.3753 60.3654 44.3153 60.2541 44.3153 C 60.1528 44.3153 60.0836 44.3707 60.0836 44.4556 C 60.0836 44.5213 60.1252 44.575 60.211 44.6014 L 60.3896 44.6569 C 60.5521 44.7071 60.634 44.7988 60.634 44.9348 C 60.634 45.0489 60.5717 45.1394 60.4677 45.1891 C 60.4157 45.214 60.3554 45.2264 60.287 45.2264 Z  M 61.4155 45.21 L 61.4155 44.3338 L 61.1451 44.3338 L 61.1451 44.19 L 61.8433 44.19 L 61.8433 44.3338 L 61.5763 44.3338 L 61.5763 45.21 Z  M 62.2934 45.21 L 62.6522 44.19 L 62.8521 44.19 L 63.2108 45.21 L 63.0376 45.21 L 62.9595 44.9814 L 62.5447 44.9814 L 62.466 45.21 Z  M 62.5919 44.8376 L 62.9109 44.8376 L 62.7295 44.3036 L 62.7747 44.3036 Z  M 64.2291 45.2264 C 64.0839 45.2264 63.9583 45.1713 63.8666 45.0769 C 63.7749 44.9824 63.7211 44.8524 63.7211 44.7 C 63.7211 44.3951 63.9343 44.1736 64.2263 44.1736 C 64.3696 44.1736 64.4852 44.2275 64.5642 44.3074 C 64.6036 44.3473 64.6318 44.3906 64.6487 44.4371 L 64.5056 44.5063 C 64.4627 44.3949 64.3632 44.3208 64.2263 44.3208 C 64.0912 44.3208 63.9834 44.3883 63.9255 44.5015 C 63.8965 44.5581 63.882 44.6242 63.882 44.7 C 63.882 44.8506 63.9449 44.9682 64.0494 45.0317 C 64.1016 45.0634 64.1615 45.0792 64.2291 45.0792 C 64.3423 45.0792 64.4409 45.0298 64.4971 44.9454 C 64.5251 44.9032 64.5392 44.8538 64.5392 44.7972 L 64.5392 44.7267 L 64.6124 44.7924 L 64.2263 44.7924 L 64.2263 44.6555 L 64.7001 44.6555 L 64.7001 44.752 C 64.7001 45.0514 64.4755 45.2264 64.2291 45.2264 Z  M 65.2843 45.21 L 65.2843 44.19 L 65.6547 44.19 C 65.8601 44.19 66.0025 44.3091 66.0025 44.509 C 66.0025 44.6505 65.9274 44.7536 65.8087 44.7993 L 66.0442 45.21 L 65.8608 45.21 L 65.6102 44.765 L 65.7156 44.8266 L 65.4452 44.8266 L 65.4452 45.21 Z  M 65.4452 44.6829 L 65.6581 44.6829 C 65.769 44.6829 65.8416 44.6137 65.8416 44.5083 C 65.8416 44.4015 65.769 44.3338 65.6581 44.3338 L 65.4452 44.3338 Z  M 66.5094 45.21 L 66.8681 44.19 L 67.068 44.19 L 67.4267 45.21 L 67.2535 45.21 L 67.1755 44.9814 L 66.7606 44.9814 L 66.6819 45.21 Z  M 66.8079 44.8376 L 67.1269 44.8376 L 66.9455 44.3036 L 66.9906 44.3036 Z  M 67.9672 45.21 L 67.9672 44.19 L 68.1178 44.19 L 68.5005 44.7212 L 68.4259 44.7212 L 68.8024 44.19 L 68.953 44.19 L 68.953 45.21 L 68.7921 45.21 L 68.7921 44.381 L 68.8523 44.3974 L 68.4683 44.9225 L 68.4519 44.9225 L 68.0754 44.3974 L 68.1281 44.381 L 68.1281 45.21 Z" fill="#79c0ba"/>
<path d="M 58.863 49.4187 C 58.551 49.4187 58.2793 49.304 58.0788 49.105 C 57.8784 48.9061 57.7627 48.6344 57.7627 48.3247 C 57.7627 48.0149 57.8809 47.7446 58.0799 47.5486 C 58.2789 47.3525 58.5536 47.2371 58.8621 47.2371 C 59.1792 47.2371 59.4507 47.3601 59.6444 47.5605 C 59.8381 47.7608 59.9489 48.0264 59.9489 48.316 C 59.9489 48.6476 59.7828 48.87 59.5097 48.87 C 59.3437 48.87 59.1826 48.7749 59.1524 48.5986 L 59.1989 48.6555 C 59.1234 48.7941 58.9734 48.87 58.7964 48.87 C 58.594 48.87 58.4235 48.7658 58.3284 48.598 C 58.2808 48.5141 58.257 48.4189 58.257 48.3125 C 58.257 48.1002 58.3584 47.9249 58.5222 47.8242 C 58.6041 47.7739 58.6962 47.7487 58.7987 47.7487 C 58.9697 47.7487 59.1183 47.8212 59.1935 47.9426 L 59.1733 47.9877 L 59.1733 47.7749 L 59.3595 47.7749 L 59.3595 48.4835 C 59.3595 48.6114 59.419 48.6707 59.5137 48.6707 C 59.6523 48.6707 59.732 48.5564 59.732 48.3176 C 59.732 47.8199 59.3853 47.4386 58.863 47.4386 C 58.6082 47.4386 58.3875 47.5311 58.2291 47.6898 C 58.0707 47.8485 57.9796 48.0662 57.9796 48.322 C 57.9796 48.6989 58.1809 49.0106 58.5066 49.1483 C 58.6151 49.1942 58.7352 49.2171 58.8668 49.2171 C 59.0257 49.2171 59.1771 49.182 59.2976 49.1126 L 59.3901 49.2866 C 59.2381 49.3747 59.0624 49.4187 58.863 49.4187 Z  M 58.8093 48.6707 C 59.007 48.6707 59.1485 48.514 59.1485 48.3085 C 59.1485 48.2049 59.1165 48.1198 59.0525 48.0531 C 58.9885 47.9865 58.9076 47.953 58.8097 47.9527 C 58.6814 47.9521 58.5724 48.0181 58.5143 48.1258 C 58.4853 48.1796 58.4708 48.2411 58.4708 48.3102 C 58.4708 48.5123 58.6167 48.6707 58.8093 48.6707 Z  M 60.8866 48.9014 C 60.7525 48.9014 60.6306 48.8695 60.521 48.8056 C 60.3019 48.678 60.1629 48.4474 60.1629 48.1641 C 60.1629 47.883 60.3001 47.6545 60.5178 47.5268 C 60.6266 47.463 60.7496 47.4311 60.8866 47.4311 C 61.1606 47.4311 61.3866 47.5653 61.513 47.7858 C 61.5761 47.896 61.6077 48.0221 61.6077 48.1641 C 61.6077 48.4502 61.4661 48.6805 61.2487 48.8067 C 61.14 48.8698 61.0193 48.9014 60.8866 48.9014 Z  M 60.8866 48.6776 C 61.0671 48.6776 61.2168 48.5826 61.3009 48.4265 C 61.3429 48.3485 61.364 48.261 61.364 48.1641 C 61.364 47.9702 61.2738 47.8117 61.1299 47.7221 C 61.058 47.6773 60.9769 47.6548 60.8866 47.6548 C 60.7061 47.6548 60.5563 47.7511 60.4708 47.904 C 60.428 47.9804 60.4066 48.0671 60.4066 48.1641 C 60.4066 48.3579 60.4989 48.5213 60.6431 48.6106 C 60.7152 48.6553 60.7963 48.6776 60.8866 48.6776 Z  M 61.9323 48.87 L 61.9323 47.4625 L 62.1584 47.4625 L 62.1584 47.7365 L 62.118 47.7169 C 62.1872 47.5372 62.3534 47.4311 62.561 47.4311 C 62.763 47.4311 62.9285 47.5273 63.0207 47.6867 C 63.0668 47.7664 63.0898 47.8568 63.0898 47.9579 L 63.0898 48.87 L 62.8592 48.87 L 62.8592 48.035 C 62.8592 47.8744 62.7983 47.762 62.6938 47.7008 C 62.6415 47.6701 62.5814 47.6548 62.5134 47.6548 C 62.3094 47.6548 62.1629 47.7984 62.1629 48.035 L 62.1629 48.87 Z  M 63.4452 48.87 L 63.4452 47.4625 L 63.6712 47.4625 L 63.6712 47.7125 L 63.6451 47.6757 C 63.7108 47.5242 63.8503 47.4446 64.0435 47.4446 L 64.1316 47.4446 L 64.1316 47.6661 L 64.0086 47.6661 C 63.808 47.6661 63.6758 47.7954 63.6758 48.0227 L 63.6758 48.87 Z  M 64.7629 48.9014 C 64.4886 48.9014 64.2932 48.7379 64.2932 48.503 C 64.2932 48.2794 64.437 48.1102 64.7513 48.0579 L 65.2813 47.9699 L 65.2813 48.1671 L 64.8026 48.2477 C 64.616 48.2802 64.537 48.3712 64.537 48.4942 C 64.537 48.5537 64.5604 48.6035 64.6072 48.6438 C 64.654 48.6841 64.7141 48.7042 64.7875 48.7042 C 64.8779 48.7042 64.957 48.6848 65.0245 48.6461 C 65.1597 48.5687 65.2394 48.4304 65.2394 48.2692 L 65.2394 47.9104 C 65.2394 47.8319 65.2105 47.7678 65.1526 47.7182 C 65.0948 47.6686 65.0191 47.6438 64.9257 47.6438 C 64.7601 47.6438 64.6289 47.7362 64.5685 47.8705 L 64.3667 47.7645 C 64.3932 47.7015 64.4352 47.6448 64.4926 47.5944 C 64.6076 47.4936 64.7639 47.4311 64.9289 47.4311 C 65.0349 47.4311 65.1287 47.4514 65.2104 47.4922 C 65.3738 47.5737 65.4701 47.7218 65.4701 47.9104 L 65.4701 48.87 L 65.244 48.87 L 65.244 48.5986 L 65.2833 48.6196 C 65.2009 48.7822 65.0062 48.9014 64.7629 48.9014 Z  M 65.8532 48.87 L 65.8532 47.4625 L 66.0839 47.4625 L 66.0839 48.87 Z  M 65.8532 47.2262 L 65.8532 46.92 L 66.0839 46.92 L 66.0839 47.2262 Z  M 66.9654 48.9014 C 66.827 48.9014 66.706 48.8668 66.6022 48.7977 C 66.4984 48.7286 66.4241 48.6348 66.3793 48.5164 L 66.5657 48.4278 C 66.6448 48.5957 66.7945 48.7019 66.9654 48.7019 C 67.0442 48.7019 67.11 48.683 67.1627 48.6452 C 67.2154 48.6074 67.2418 48.5576 67.2418 48.4959 C 67.2418 48.408 67.1841 48.3584 67.1163 48.3283 C 67.0824 48.3132 67.0512 48.302 67.0227 48.2947 L 66.8138 48.2353 C 66.5598 48.1632 66.4478 48.023 66.4478 47.8436 C 66.4478 47.5939 66.6595 47.4311 66.9313 47.4311 C 67.0537 47.4311 67.164 47.4623 67.2624 47.5249 C 67.3608 47.5874 67.4303 47.6745 67.4711 47.7859 L 67.282 47.8745 C 67.2171 47.7242 67.0817 47.6329 66.9249 47.6329 C 66.7776 47.6329 66.6827 47.7148 66.6827 47.8284 C 66.6827 47.9551 66.8015 47.9987 66.8803 48.0214 L 67.1123 48.0895 C 67.341 48.1564 67.4745 48.3016 67.4745 48.4932 C 67.4745 48.651 67.3825 48.7802 67.23 48.8495 C 67.1537 48.8841 67.0655 48.9014 66.9654 48.9014 Z  M 68.3637 48.8857 C 68.096 48.8857 67.9446 48.7261 67.9446 48.4429 L 67.9446 47.684 L 67.6886 47.684 L 67.6886 47.4625 L 67.7449 47.4625 C 67.8685 47.4625 67.9446 47.3769 67.9446 47.2534 L 67.9446 47.1379 L 68.1752 47.1379 L 68.1752 47.4625 L 68.4887 47.4625 L 68.4887 47.684 L 68.1752 47.684 L 68.1752 48.4383 C 68.1752 48.5806 68.2369 48.675 68.4078 48.675 C 68.4351 48.675 68.4768 48.6706 68.5059 48.6671 L 68.5059 48.87 C 68.4622 48.8799 68.4 48.8857 68.3637 48.8857 Z  M 69.3319 48.9014 C 69.1304 48.9014 68.9623 48.8028 68.8713 48.6349 C 68.8258 48.551 68.8031 48.454 68.8031 48.344 L 68.8031 47.4625 L 69.0337 47.4625 L 69.0337 48.319 C 69.0337 48.5331 69.1761 48.6776 69.3797 48.6776 C 69.5843 48.6776 69.73 48.5331 69.73 48.2974 L 69.73 47.4625 L 69.9606 47.4625 L 69.9606 48.87 L 69.7346 48.87 L 69.7346 48.596 L 69.7749 48.6156 C 69.7086 48.7952 69.5395 48.9014 69.3319 48.9014 Z  M 70.985 48.9014 C 70.8526 48.9014 70.7336 48.8693 70.628 48.8052 C 70.4168 48.6769 70.2872 48.4448 70.2872 48.1662 C 70.2872 48.0252 70.3177 47.8995 70.3786 47.7891 C 70.5005 47.5683 70.7181 47.4311 70.9846 47.4311 C 71.2199 47.4311 71.4105 47.5383 71.5162 47.7101 L 71.4797 47.7692 L 71.4797 46.8886 L 71.7104 46.8886 L 71.7104 48.87 L 71.4843 48.87 L 71.4843 48.5651 L 71.5167 48.603 C 71.4189 48.7944 71.2179 48.9014 70.985 48.9014 Z  M 71.0019 48.6776 C 71.0922 48.6776 71.1734 48.6553 71.2455 48.6106 C 71.3896 48.5213 71.4797 48.3601 71.4797 48.1662 C 71.4797 47.9724 71.3896 47.8112 71.2455 47.7219 C 71.1734 47.6772 71.0922 47.6548 71.0019 47.6548 C 70.9131 47.6548 70.8328 47.6773 70.761 47.7221 C 70.6173 47.8117 70.5309 47.9695 70.5309 48.1662 C 70.5309 48.3601 70.6177 48.5213 70.7599 48.6106 C 70.831 48.6553 70.9117 48.6776 71.0019 48.6776 Z  M 72.0932 48.87 L 72.0932 47.4625 L 72.3239 47.4625 L 72.3239 48.87 Z  M 72.0932 47.2262 L 72.0932 46.92 L 72.3239 46.92 L 72.3239 47.2262 Z  M 73.3718 48.9014 C 73.2377 48.9014 73.1158 48.8695 73.0063 48.8056 C 72.7872 48.678 72.6481 48.4474 72.6481 48.1641 C 72.6481 47.883 72.7854 47.6545 73.003 47.5268 C 73.1119 47.463 73.2348 47.4311 73.3718 47.4311 C 73.6459 47.4311 73.8719 47.5653 73.9982 47.7858 C 74.0614 47.896 74.0929 48.0221 74.0929 48.1641 C 74.0929 48.4502 73.9513 48.6805 73.7339 48.8067 C 73.6252 48.8698 73.5045 48.9014 73.3718 48.9014 Z  M 73.3718 48.6776 C 73.5524 48.6776 73.702 48.5826 73.7861 48.4265 C 73.8282 48.3485 73.8492 48.261 73.8492 48.1641 C 73.8492 47.9702 73.759 47.8117 73.6151 47.7221 C 73.5432 47.6773 73.4621 47.6548 73.3718 47.6548 C 73.1913 47.6548 73.0416 47.7511 72.956 47.904 C 72.9132 47.9804 72.8919 48.0671 72.8919 48.1641 C 72.8919 48.3579 72.9841 48.5213 73.1283 48.6106 C 73.2004 48.6553 73.2816 48.6776 73.3718 48.6776 Z" fill="#ffffff"/>
<path d="M 0 6.91 L 4 6.91 L 4 7.09 L 0 7.09 Z  M 6.91 0 L 7.09 0 L 7.09 4 L 6.91 4 Z  M 0 61.91 L 4 61.91 L 4 62.09 L 0 62.09 Z  M 6.91 65 L 7.09 65 L 7.09 69 L 6.91 69 Z  M 100 6.91 L 104 6.91 L 104 7.09 L 100 7.09 Z  M 96.91 0 L 97.09 0 L 97.09 4 L 96.91 4 Z  M 100 61.91 L 104 61.91 L 104 62.09 L 100 62.09 Z  M 96.91 65 L 97.09 65 L 97.09 69 L 96.91 69 Z" fill="#111113"/>
</svg>
